<svg id="svg" version="1.1" xmlns="http://www.w3.org/2000/svg" xmlns:xlink="http://www.w3.org/1999/xlink" width="400" height="460.7228915662651" viewBox="0, 0, 400,460.7228915662651"><g id="svgg"><path id="path0" d="M195.600 137.220 C 194.170 137.390,191.222 137.449,189.049 137.351 C 183.145 137.083,182.028 137.613,181.421 140.972 C 181.265 141.837,181.016 142.351,180.868 142.114 C 180.721 141.877,180.570 142.713,180.533 143.970 C 180.463 146.385,179.540 148.534,177.762 150.422 C 177.233 150.984,176.800 151.569,176.800 151.722 C 176.800 151.875,189.952 152.000,206.027 152.000 L 235.254 152.000 233.727 150.100 C 232.887 149.055,232.064 148.140,231.898 148.066 C 231.731 147.992,231.702 147.759,231.832 147.548 C 231.962 147.337,231.841 146.891,231.563 146.555 C 231.276 146.210,231.069 144.959,231.085 143.673 L 231.113 141.400 230.817 143.200 L 230.520 145.000 230.460 143.350 C 230.347 140.241,229.997 139.296,228.858 139.025 C 227.865 138.789,221.475 137.998,214.200 137.210 C 210.304 136.788,199.167 136.794,195.600 137.220 M104.672 170.682 C 105.292 170.947,106.455 171.172,107.256 171.182 C 108.057 171.192,110.217 171.490,112.056 171.844 C 114.685 172.350,116.768 172.435,121.800 172.242 C 130.193 171.919,149.750 171.954,161.800 172.313 C 167.080 172.471,173.560 172.509,176.200 172.397 C 181.520 172.172,189.587 172.627,190.143 173.183 C 190.702 173.742,190.137 175.319,188.762 177.034 L 187.507 178.600 187.759 183.600 C 188.163 191.584,188.632 196.049,189.096 196.336 C 189.334 196.483,189.592 197.142,189.670 197.801 C 189.772 198.667,190.116 197.777,190.905 194.600 C 191.507 192.180,192.466 188.490,193.038 186.400 C 193.609 184.310,194.234 181.880,194.426 181.000 C 194.618 180.120,195.139 178.230,195.584 176.800 C 196.618 173.479,196.649 171.362,195.671 170.838 C 195.214 170.594,177.912 170.402,149.243 170.324 C 113.329 170.227,103.786 170.303,104.672 170.682 M273.600 170.428 C 250.584 170.858,222.599 171.604,220.852 171.834 L 219.103 172.064 219.339 173.732 C 219.625 175.759,220.043 177.500,221.372 182.200 C 221.932 184.180,222.837 187.420,223.383 189.400 C 223.930 191.380,224.838 194.620,225.402 196.600 C 225.967 198.580,226.536 200.879,226.668 201.710 C 226.800 202.540,227.064 203.316,227.254 203.433 C 227.444 203.551,227.600 204.022,227.600 204.479 C 227.600 211.697,236.063 223.952,243.615 227.669 C 249.891 230.759,248.596 230.608,268.155 230.530 C 291.550 230.436,296.323 229.160,304.000 220.948 C 305.740 219.086,305.720 219.096,303.400 221.232 C 300.238 224.144,297.598 225.917,295.285 226.682 C 294.248 227.026,293.229 227.462,293.020 227.653 C 292.811 227.844,292.091 227.994,291.420 227.987 C 290.320 227.976,290.269 227.922,290.900 227.443 C 291.728 226.814,291.789 226.255,291.093 225.677 C 290.705 225.355,290.654 224.188,290.877 220.728 C 291.162 216.301,290.840 213.519,289.982 212.989 C 289.746 212.843,289.912 212.286,290.393 211.610 C 290.837 210.987,291.200 210.031,291.200 209.487 C 291.200 208.943,291.493 207.801,291.852 206.949 C 293.367 203.350,293.819 196.886,292.639 195.705 C 292.217 195.283,291.600 196.121,291.593 197.124 C 291.589 197.740,291.167 198.598,290.606 199.130 L 289.625 200.060 288.213 198.982 C 286.741 197.860,286.669 197.704,286.788 195.899 C 286.833 195.215,286.622 194.706,286.230 194.556 C 285.884 194.423,285.600 194.052,285.600 193.731 C 285.600 193.409,285.168 192.574,284.639 191.873 C 284.111 191.173,283.414 189.957,283.090 189.172 C 282.453 187.627,278.615 183.600,277.780 183.600 C 277.498 183.600,276.814 183.195,276.260 182.700 C 275.705 182.205,273.845 181.080,272.126 180.200 C 269.137 178.670,268.995 178.534,268.876 177.100 C 268.759 175.690,269.249 175.108,269.800 176.000 C 270.067 176.432,273.482 176.464,275.344 176.053 C 277.249 175.632,273.710 173.281,271.076 173.218 C 270.678 173.208,270.446 173.049,270.560 172.864 C 270.795 172.485,284.987 171.806,290.800 171.895 C 292.890 171.927,298.303 172.069,302.829 172.211 C 311.455 172.482,313.500 172.257,315.239 170.849 C 316.249 170.031,302.359 169.890,273.600 170.428 M144.800 173.044 C 135.932 174.107,124.433 182.800,131.895 182.800 C 132.899 182.800,132.906 182.780,132.200 182.000 C 131.802 181.560,131.234 181.200,130.938 181.200 C 128.151 181.200,134.931 176.537,140.479 174.637 C 145.224 173.013,148.873 172.900,155.010 174.190 C 156.193 174.438,156.192 174.436,154.868 173.826 C 153.516 173.203,147.423 172.730,144.800 173.044 M263.749 174.744 C 264.300 174.785,264.389 174.932,264.085 175.300 C 263.783 175.665,264.039 176.172,265.036 177.181 C 265.786 177.940,266.400 178.826,266.400 179.149 C 266.400 179.911,267.570 181.200,268.262 181.200 C 268.558 181.200,268.800 181.433,268.800 181.717 C 268.800 182.347,271.966 185.509,273.231 186.142 C 273.734 186.394,274.698 187.520,275.373 188.644 C 276.048 189.768,277.545 191.621,278.700 192.763 C 279.855 193.904,280.800 195.005,280.800 195.209 C 280.800 195.413,281.340 195.859,282.000 196.200 C 282.660 196.541,283.202 197.041,283.204 197.310 C 283.207 197.580,283.837 198.410,284.604 199.156 C 285.372 199.902,286.000 200.725,286.000 200.984 C 286.000 201.464,287.044 202.489,288.739 203.674 C 290.359 204.806,291.564 208.426,290.468 208.867 C 290.285 208.940,289.522 210.170,288.772 211.600 C 287.150 214.693,280.692 221.582,278.000 223.092 C 277.010 223.648,275.745 224.415,275.190 224.797 C 274.634 225.179,273.554 225.596,272.790 225.724 C 272.025 225.852,270.359 226.178,269.087 226.447 C 258.825 228.626,249.569 221.353,243.064 206.000 C 242.591 204.883,241.822 200.682,241.934 199.825 C 241.947 199.723,241.437 199.082,240.800 198.400 C 234.660 191.827,239.478 176.000,247.620 176.000 C 248.746 176.000,252.000 177.521,252.000 178.048 C 252.000 178.382,252.209 178.355,252.700 177.958 C 255.800 175.449,259.348 174.417,263.749 174.744 M184.994 198.034 C 184.557 198.204,182.905 198.356,181.323 198.372 C 177.449 198.410,175.895 199.307,174.992 202.026 C 174.268 204.205,173.622 204.600,173.560 202.900 C 173.538 202.294,173.271 202.969,172.966 204.400 C 172.415 206.990,168.609 215.154,167.144 216.888 C 160.295 224.999,150.634 227.646,140.919 224.076 C 131.899 220.761,123.616 210.482,122.532 201.259 L 122.277 199.095 121.675 200.247 C 121.344 200.881,120.860 201.580,120.600 201.800 C 120.024 202.287,118.771 207.475,118.585 210.141 C 118.420 212.521,118.288 212.667,116.902 211.999 C 116.296 211.706,115.575 211.423,115.300 211.369 C 114.538 211.219,114.681 213.494,115.461 213.930 C 115.994 214.228,115.913 214.300,115.041 214.300 C 114.170 214.300,113.915 214.076,113.730 213.150 C 113.604 212.518,113.388 211.985,113.250 211.967 C 113.113 211.949,112.535 211.857,111.967 211.762 C 111.339 211.658,110.608 211.872,110.105 212.309 L 109.277 213.027 110.239 213.883 C 110.783 214.368,111.200 215.186,111.200 215.770 C 111.200 216.408,111.423 216.800,111.786 216.800 C 112.108 216.800,112.558 217.148,112.786 217.573 C 113.013 217.998,113.569 218.463,114.022 218.607 C 114.474 218.750,114.768 219.078,114.676 219.334 C 114.584 219.590,114.670 220.115,114.868 220.500 C 115.608 221.938,113.639 220.923,112.043 219.043 C 111.689 218.626,111.085 218.001,110.700 217.654 C 110.315 217.306,110.000 216.792,110.000 216.511 C 110.000 216.230,109.820 216.000,109.600 216.000 C 109.380 216.000,109.200 215.749,109.200 215.443 C 109.200 215.136,108.921 214.778,108.579 214.647 C 106.200 213.735,113.305 221.970,117.451 224.931 C 124.111 229.688,127.217 230.329,146.108 230.850 C 169.437 231.492,175.487 229.355,183.177 217.752 C 185.486 214.269,188.878 205.303,188.788 202.922 C 188.762 202.230,187.829 204.277,187.568 205.600 L 187.292 207.000 187.246 205.367 C 187.221 204.468,187.404 202.716,187.654 201.473 C 188.247 198.521,187.202 197.171,184.994 198.034 M189.067 200.267 C 188.920 200.413,188.811 200.908,188.825 201.367 C 188.849 202.133,188.882 202.123,189.234 201.242 C 189.626 200.263,189.544 199.789,189.067 200.267 M204.229 223.153 C 204.085 223.387,203.254 223.791,202.383 224.052 C 201.512 224.313,200.800 224.671,200.800 224.848 C 200.800 225.173,200.172 225.859,194.800 231.398 C 187.227 239.206,180.024 243.749,172.538 245.441 C 158.509 248.612,132.116 248.440,122.200 245.114 C 115.996 243.033,107.164 237.623,103.596 233.720 L 101.515 231.443 101.776 235.021 C 102.970 251.393,104.746 259.354,110.385 273.600 C 110.864 274.810,112.172 277.510,113.292 279.600 C 114.412 281.690,115.729 284.155,116.218 285.077 C 125.735 303.009,147.617 321.710,168.001 329.333 C 191.195 338.007,211.636 338.566,236.600 331.208 C 238.553 330.633,241.229 329.610,243.498 328.572 C 244.667 328.037,245.726 327.600,245.851 327.600 C 246.405 327.600,248.993 326.373,253.000 324.210 C 271.441 314.257,287.194 298.137,296.399 279.800 C 300.415 271.801,301.513 269.024,304.233 260.000 C 305.769 254.901,307.594 244.114,307.598 240.107 L 307.600 237.614 304.567 239.407 C 302.899 240.393,301.455 241.200,301.359 241.200 C 301.263 241.200,300.513 241.623,299.692 242.140 C 290.438 247.968,266.938 249.737,246.114 246.173 C 237.887 244.765,234.484 243.439,229.539 239.715 C 228.140 238.662,226.514 237.489,225.925 237.109 C 225.336 236.728,222.632 234.208,219.914 231.509 C 214.279 225.909,212.186 224.050,211.019 223.609 C 209.504 223.035,204.509 222.700,204.229 223.153 M185.600 267.600 C 191.868 268.250,228.879 267.912,231.890 267.177 C 239.774 265.253,246.308 274.116,241.717 280.507 C 240.014 282.877,237.763 284.364,235.800 284.415 C 233.384 284.477,230.400 287.116,230.400 289.190 C 230.400 289.390,230.203 289.675,229.961 289.824 C 229.649 290.017,229.604 289.192,229.806 286.947 C 230.124 283.400,229.650 283.330,228.819 286.800 C 227.666 291.618,226.885 292.418,222.400 293.379 C 219.878 293.920,219.852 293.937,221.549 293.968 C 223.299 294.000,223.396 295.182,221.651 295.210 C 221.293 295.216,219.697 295.653,218.104 296.181 C 211.085 298.508,201.690 298.396,193.600 295.890 C 191.028 295.094,187.565 293.200,188.680 293.200 C 189.160 293.200,189.664 293.380,189.800 293.600 C 189.936 293.820,190.892 293.990,191.924 293.979 L 193.800 293.957 190.609 293.014 C 186.684 291.853,185.575 290.745,184.406 286.819 C 183.378 283.368,183.074 283.237,183.432 286.400 C 183.766 289.351,183.231 289.546,181.710 287.028 C 180.532 285.078,179.436 284.400,177.459 284.400 C 168.937 284.400,167.892 269.734,176.243 267.319 C 177.898 266.840,178.416 266.855,185.600 267.600 M189.940 269.601 C 186.494 269.909,183.931 273.244,183.351 278.176 C 183.072 280.552,183.537 281.135,184.327 279.400 C 184.578 278.850,184.984 278.400,185.230 278.400 C 185.475 278.400,186.185 278.038,186.806 277.596 C 189.079 275.978,217.422 275.311,222.400 276.759 C 223.170 276.983,224.291 277.266,224.891 277.389 C 225.613 277.536,226.532 278.355,227.604 279.805 C 229.621 282.536,229.944 282.551,229.571 279.900 C 229.130 276.771,225.779 270.577,224.068 269.731 C 223.353 269.377,193.718 269.265,189.940 269.601 M217.105 294.283 C 217.602 294.379,218.322 294.375,218.705 294.275 C 219.087 294.175,218.680 294.096,217.800 294.101 C 216.920 294.105,216.607 294.187,217.105 294.283 M212.900 294.687 C 213.505 294.778,214.495 294.778,215.100 294.687 C 215.705 294.595,215.210 294.520,214.000 294.520 C 212.790 294.520,212.295 294.595,212.900 294.687 M245.600 327.047 C 245.600 327.131,245.139 327.200,244.576 327.200 C 244.013 327.200,243.654 327.037,243.777 326.838 C 243.982 326.506,245.600 326.692,245.600 327.047 M241.188 328.816 C 240.865 329.020,240.296 329.191,239.924 329.194 C 239.552 329.197,239.136 329.380,239.000 329.600 C 238.864 329.820,238.376 330.000,237.914 330.000 C 236.405 330.000,238.264 328.462,239.942 328.322 C 241.664 328.178,241.991 328.308,241.188 328.816 M175.000 330.152 C 176.100 330.450,177.630 330.974,178.400 331.315 L 179.800 331.935 178.343 331.967 C 177.393 331.989,176.805 331.791,176.655 331.400 C 176.513 331.029,175.904 330.800,175.058 330.800 C 174.307 330.800,173.176 330.531,172.546 330.202 C 171.038 329.416,172.200 329.392,175.000 330.152 M231.300 331.923 C 230.365 331.991,229.600 332.216,229.600 332.423 C 229.600 332.630,229.060 332.800,228.400 332.800 C 225.774 332.800,227.135 331.810,230.000 331.637 C 230.990 331.577,231.870 331.459,231.956 331.375 C 232.041 331.291,232.311 331.352,232.556 331.511 C 232.800 331.670,232.235 331.855,231.300 331.923 M187.800 333.600 C 187.940 333.826,187.612 334.000,187.047 334.000 C 186.497 334.000,185.936 333.820,185.800 333.600 C 185.660 333.374,185.988 333.200,186.553 333.200 C 187.103 333.200,187.664 333.380,187.800 333.600 M191.737 333.767 C 192.933 334.078,195.671 334.347,197.821 334.365 C 201.534 334.394,202.402 334.531,201.922 335.012 C 201.124 335.810,188.800 334.806,188.800 333.943 C 188.800 333.051,188.954 333.042,191.737 333.767 M224.000 333.600 C 224.000 333.820,223.226 334.000,222.280 334.000 C 221.334 334.000,220.389 334.167,220.180 334.370 C 219.726 334.813,210.968 335.101,210.554 334.688 C 210.396 334.529,210.702 334.391,211.233 334.379 C 214.729 334.303,219.212 333.940,220.400 333.638 C 222.349 333.142,224.000 333.125,224.000 333.600 " stroke="none" fill="#d6a81a" fill-rule="evenodd"></path><path id="path1" d="M168.190 134.774 C 166.209 135.480,159.570 138.500,158.400 139.229 C 158.070 139.434,157.413 139.770,156.939 139.976 C 156.465 140.182,153.855 141.418,151.139 142.723 C 148.423 144.028,145.120 145.589,143.800 146.191 C 137.747 148.953,136.060 149.744,134.101 150.736 C 132.946 151.321,132.001 151.935,132.001 152.100 C 132.000 152.265,141.512 152.400,153.138 152.400 L 174.276 152.400 175.438 151.400 C 176.077 150.851,176.717 150.401,176.861 150.400 C 177.005 150.400,177.770 149.424,178.561 148.232 C 183.368 140.990,176.341 131.872,168.190 134.774 M237.630 134.688 C 230.825 137.091,229.604 145.593,235.343 150.613 L 237.386 152.400 258.493 152.400 C 270.102 152.400,279.600 152.258,279.600 152.084 C 279.600 151.728,277.393 150.575,271.000 147.592 C 266.689 145.581,263.609 144.141,258.400 141.701 C 256.970 141.031,254.810 140.032,253.600 139.480 C 252.390 138.928,249.780 137.715,247.800 136.785 C 241.683 133.910,240.516 133.669,237.630 134.688 M332.000 153.569 C 328.590 153.696,268.967 153.785,199.504 153.766 C 59.246 153.728,71.600 153.501,71.600 156.124 C 71.600 158.031,77.256 162.886,81.891 164.958 C 84.043 165.919,84.805 167.103,85.237 170.156 C 85.428 171.500,85.765 173.410,85.986 174.400 C 86.208 175.390,86.678 178.000,87.032 180.200 C 87.902 185.608,88.255 187.637,88.983 191.400 C 89.747 195.349,90.371 198.777,90.805 201.400 C 90.987 202.500,91.311 204.210,91.526 205.200 C 91.742 206.190,92.140 208.260,92.411 209.800 C 92.682 211.340,93.036 212.780,93.197 213.000 C 93.358 213.220,93.598 213.856,93.731 214.414 C 94.278 216.712,97.542 222.961,99.575 225.600 C 100.168 226.370,101.130 227.831,101.712 228.847 C 106.050 236.411,120.119 243.725,132.366 244.785 C 157.824 246.988,174.586 244.800,183.286 238.138 C 184.104 237.512,185.615 236.374,186.645 235.608 C 190.634 232.643,195.210 226.730,198.702 220.029 C 202.366 212.998,203.889 211.600,207.884 211.600 C 210.377 211.600,214.800 214.710,214.800 216.464 C 214.800 217.454,219.852 225.949,222.038 228.635 C 233.675 242.934,243.637 246.277,271.613 245.270 C 289.084 244.640,292.708 243.987,301.076 239.956 C 306.626 237.282,315.532 228.638,319.176 222.388 C 322.115 217.345,324.583 210.222,325.616 203.800 C 325.902 202.022,326.802 197.285,327.972 191.400 C 328.191 190.300,328.653 187.690,328.999 185.600 C 329.345 183.510,329.789 180.900,329.986 179.800 C 330.182 178.700,330.555 176.540,330.814 175.000 C 332.261 166.396,332.355 166.187,335.396 164.802 C 342.338 161.639,345.609 153.012,339.769 153.269 C 338.906 153.307,335.410 153.442,332.000 153.569 M194.851 168.227 C 195.562 168.594,196.356 169.508,196.773 170.438 C 197.555 172.185,197.510 172.540,195.742 178.658 C 195.224 180.450,194.800 182.297,194.800 182.763 C 194.800 183.229,194.640 183.923,194.444 184.305 C 194.248 184.687,193.782 186.350,193.409 188.000 C 193.036 189.650,192.586 191.360,192.408 191.800 C 192.231 192.240,191.793 193.860,191.435 195.400 C 190.380 199.944,189.913 201.751,189.574 202.600 C 189.398 203.040,189.165 203.940,189.055 204.600 C 188.797 206.161,187.779 210.375,187.413 211.400 C 187.256 211.840,186.996 212.560,186.836 213.000 C 186.675 213.440,185.882 215.161,185.072 216.824 C 184.262 218.487,183.600 220.068,183.600 220.337 C 183.600 221.492,181.488 224.753,179.524 226.631 C 172.812 233.048,163.511 234.922,143.200 233.948 C 124.003 233.027,115.837 229.917,111.424 221.846 C 110.837 220.772,109.916 219.245,109.378 218.454 C 108.840 217.662,108.400 216.801,108.400 216.540 C 108.400 216.280,108.265 216.007,108.100 215.933 C 107.618 215.719,105.799 211.958,105.230 210.000 C 104.942 209.010,104.556 207.750,104.371 207.200 C 104.186 206.650,103.749 204.490,103.401 202.400 C 103.052 200.310,102.673 198.150,102.559 197.600 C 102.444 197.050,102.193 195.610,102.002 194.400 C 101.811 193.190,101.360 190.670,100.999 188.800 C 100.638 186.930,100.199 184.205,100.023 182.745 C 99.847 181.284,99.609 179.934,99.494 179.745 C 97.632 176.670,98.048 169.647,100.168 168.354 C 101.916 167.288,192.800 167.166,194.851 168.227 M316.680 168.376 C 318.752 169.651,318.930 171.204,317.760 177.800 C 317.214 180.880,316.596 184.570,316.385 186.000 C 316.175 187.430,315.723 189.950,315.381 191.600 C 315.038 193.250,314.674 195.320,314.572 196.200 C 314.201 199.399,312.484 207.738,311.895 209.200 C 311.674 209.750,311.318 210.650,311.104 211.200 C 309.959 214.148,306.295 220.444,305.559 220.729 C 305.375 220.800,305.103 221.508,304.954 222.302 C 304.557 224.418,299.039 229.669,295.769 231.042 C 290.008 233.461,284.123 234.114,269.929 233.911 C 248.819 233.609,238.825 230.491,233.674 222.600 C 230.966 218.450,228.671 213.569,227.845 210.200 C 226.940 206.512,226.548 204.933,226.057 203.000 C 225.416 200.478,223.219 192.097,222.334 188.800 C 221.891 187.150,221.196 184.540,220.789 183.000 C 220.382 181.460,219.682 178.850,219.234 177.200 C 217.484 170.759,218.578 168.376,223.467 167.977 C 232.489 167.242,315.413 167.597,316.680 168.376 M158.400 191.968 C 158.400 192.927,158.098 193.388,157.005 194.096 C 156.238 194.593,155.602 195.270,155.592 195.600 C 155.571 196.317,154.400 197.964,154.400 197.276 C 154.400 196.642,153.218 196.663,153.019 197.300 C 152.933 197.575,152.753 198.460,152.619 199.268 C 152.433 200.393,152.050 200.928,150.978 201.560 C 150.210 202.013,149.466 202.703,149.325 203.092 C 149.185 203.481,148.738 204.279,148.334 204.864 C 147.929 205.449,147.706 206.210,147.838 206.555 C 148.008 206.998,147.542 207.508,146.252 208.291 C 145.247 208.901,144.420 209.642,144.413 209.937 C 144.406 210.233,144.040 210.569,143.600 210.684 C 143.160 210.799,142.800 211.057,142.800 211.257 C 142.800 211.456,142.355 211.789,141.811 211.996 C 141.258 212.206,140.710 212.819,140.568 213.386 C 140.428 213.944,140.177 214.400,140.011 214.400 C 139.606 214.400,137.745 217.180,137.425 218.264 C 136.824 220.296,143.900 222.188,151.173 221.939 C 156.506 221.756,160.609 219.976,164.537 216.141 C 168.814 211.965,171.109 207.452,167.789 209.745 C 163.972 212.381,162.628 210.984,161.581 203.291 C 160.591 196.021,159.733 192.076,158.977 191.320 C 158.474 190.817,158.400 190.900,158.400 191.968 M262.666 197.773 C 262.080 198.970,261.600 200.145,261.600 200.384 C 261.600 201.125,258.330 204.409,256.623 205.382 C 254.181 206.774,251.961 206.914,249.787 205.813 C 248.796 205.312,247.919 205.013,247.839 205.151 C 247.389 205.917,247.193 208.749,247.573 208.983 C 247.861 209.161,247.874 209.488,247.612 209.978 C 247.063 211.004,249.830 215.033,252.715 217.408 C 258.196 221.920,263.469 223.448,270.069 222.438 C 276.149 221.507,276.159 221.481,273.568 213.501 C 272.485 210.168,271.600 207.063,271.600 206.601 C 271.600 206.138,271.443 205.589,271.251 205.380 C 271.060 205.171,270.586 203.969,270.199 202.709 C 269.812 201.448,269.338 200.515,269.145 200.634 C 268.952 200.753,268.690 200.578,268.561 200.244 C 268.433 199.910,267.524 199.247,266.540 198.771 C 265.453 198.245,264.828 197.703,264.948 197.390 C 265.720 195.380,263.669 195.724,262.666 197.773 M176.274 268.007 C 167.139 270.749,170.160 284.000,179.920 284.000 C 182.741 284.000,182.798 283.955,182.365 282.080 C 182.178 281.266,181.900 277.929,181.749 274.666 C 181.411 267.373,180.812 266.645,176.274 268.007 M232.048 268.500 C 231.865 268.995,231.599 271.740,231.456 274.600 C 231.313 277.460,231.082 280.745,230.943 281.900 L 230.689 284.000 233.266 284.000 C 241.401 284.000,245.583 275.734,240.249 270.196 C 237.754 267.605,232.759 266.572,232.048 268.500 " stroke="none" fill="#3f2011" fill-rule="evenodd"></path><path id="path2" d="M0.000 230.200 L 0.000 460.400 200.000 460.400 L 400.000 460.400 400.000 230.200 L 400.000 0.000 200.000 0.000 L 0.000 0.000 0.000 230.200 M215.893 127.603 C 217.382 127.824,219.770 128.163,221.200 128.355 C 225.234 128.898,231.494 130.325,234.800 131.455 C 236.450 132.020,238.610 132.570,239.600 132.679 C 240.590 132.788,241.571 133.040,241.780 133.239 C 241.989 133.437,242.517 133.600,242.953 133.600 C 243.389 133.600,245.378 134.387,247.373 135.349 C 249.368 136.311,252.080 137.589,253.400 138.188 C 254.720 138.788,256.880 139.789,258.200 140.412 C 259.520 141.036,261.860 142.116,263.400 142.813 C 264.940 143.509,268.090 144.971,270.400 146.062 C 272.710 147.152,275.590 148.501,276.800 149.060 C 278.010 149.619,279.540 150.374,280.200 150.738 C 281.278 151.332,284.492 151.420,311.733 151.600 L 342.066 151.800 343.233 153.106 C 346.026 156.233,342.567 162.649,336.295 165.976 C 334.003 167.191,332.852 168.886,332.819 171.094 C 332.809 171.806,332.627 173.156,332.416 174.094 C 331.919 176.298,331.253 179.970,330.800 183.000 C 330.350 186.013,329.848 188.861,329.002 193.200 C 328.638 195.070,328.253 197.320,328.147 198.200 C 328.041 199.080,327.798 200.160,327.607 200.600 C 327.416 201.040,327.146 202.376,327.007 203.568 C 326.764 205.655,326.219 207.944,324.952 212.200 C 324.624 213.300,324.255 214.605,324.132 215.100 C 324.008 215.595,323.748 216.000,323.553 216.000 C 323.359 216.000,323.200 216.381,323.200 216.846 C 323.200 219.184,318.234 226.620,313.499 231.372 C 309.113 235.774,308.859 236.295,308.810 241.000 C 308.782 243.782,307.158 253.792,306.054 258.000 C 302.533 271.411,297.590 281.975,289.233 293.952 C 288.088 295.593,285.298 299.154,284.807 299.600 C 284.686 299.710,284.075 300.430,283.449 301.200 C 262.094 327.461,225.106 341.324,189.400 336.449 C 178.970 335.024,164.870 330.052,153.967 323.953 C 151.572 322.613,142.568 316.823,141.796 316.126 C 141.354 315.727,140.095 314.680,139.000 313.800 C 134.223 309.964,122.153 297.021,121.280 294.800 C 121.151 294.470,120.783 293.936,120.464 293.613 C 119.025 292.159,112.690 281.548,110.804 277.434 C 108.353 272.086,107.900 270.930,106.036 265.274 C 104.249 259.849,103.621 257.562,102.446 252.200 C 101.539 248.057,100.816 240.698,100.776 235.188 C 100.734 229.477,100.579 228.727,99.100 227.045 C 98.715 226.607,98.400 226.116,98.400 225.953 C 98.400 225.790,98.159 225.416,97.865 225.122 C 96.806 224.063,93.200 217.230,93.200 216.282 C 93.200 215.995,93.042 215.589,92.849 215.380 C 92.395 214.888,91.420 211.646,90.811 208.600 C 90.547 207.280,90.091 205.030,89.798 203.600 C 89.505 202.170,89.059 199.650,88.806 198.000 C 88.554 196.350,88.191 194.370,88.001 193.600 C 87.810 192.830,87.530 191.300,87.378 190.200 C 87.227 189.100,86.765 186.593,86.351 184.628 C 85.938 182.664,85.600 180.380,85.600 179.554 C 85.600 178.728,85.414 177.562,85.186 176.962 C 84.773 175.877,84.139 172.533,83.733 169.300 C 83.616 168.365,83.392 167.600,83.235 167.600 C 83.079 167.600,82.602 167.285,82.175 166.900 C 81.749 166.515,80.770 165.886,80.000 165.502 C 78.333 164.672,77.231 163.981,76.488 163.300 C 76.188 163.025,75.796 162.800,75.617 162.800 C 74.291 162.800,70.400 157.912,70.400 156.245 C 70.400 151.681,69.477 151.816,101.600 151.697 C 131.605 151.586,130.325 151.670,134.000 149.566 C 134.615 149.214,135.746 148.678,139.600 146.913 C 140.810 146.359,143.150 145.273,144.800 144.500 C 146.450 143.727,148.790 142.643,150.000 142.090 C 151.210 141.538,152.740 140.810,153.400 140.472 C 154.060 140.135,154.870 139.722,155.200 139.556 C 155.530 139.389,156.385 139.017,157.100 138.729 C 157.815 138.440,158.400 138.069,158.400 137.902 C 158.400 137.736,158.625 137.599,158.900 137.598 C 159.175 137.597,160.286 137.147,161.368 136.598 C 162.450 136.049,163.553 135.600,163.819 135.600 C 164.085 135.600,164.502 135.360,164.745 135.066 C 164.989 134.772,165.956 134.302,166.894 134.020 C 167.832 133.739,168.960 133.362,169.400 133.183 C 169.840 133.004,170.920 132.742,171.800 132.602 C 172.680 132.461,175.020 131.838,177.000 131.218 C 180.216 130.210,181.913 129.824,189.400 128.399 C 195.414 127.255,210.505 126.801,215.893 127.603 M120.081 178.327 C 119.171 178.459,116.800 181.257,116.800 182.198 C 116.800 182.461,116.444 182.999,116.008 183.393 C 115.572 183.787,115.102 184.717,114.962 185.459 C 114.823 186.202,114.550 186.907,114.355 187.028 C 112.966 187.886,115.515 195.214,117.520 196.127 C 118.680 196.656,119.929 195.478,119.174 194.568 C 118.890 194.226,118.892 193.990,119.181 193.812 C 119.789 193.436,120.400 193.930,120.400 194.800 C 120.400 195.214,120.580 195.664,120.800 195.800 C 121.027 195.940,121.200 195.602,121.200 195.018 C 121.200 194.452,121.373 193.677,121.584 193.295 C 121.795 192.913,122.619 191.070,123.416 189.200 C 124.213 187.330,125.210 185.239,125.633 184.553 C 127.342 181.775,123.788 177.789,120.081 178.327 " stroke="none" fill="#fbfbfb" fill-rule="evenodd"></path><path id="path3" d="M178.986 148.178 C 178.774 148.475,178.157 149.321,177.616 150.059 C 177.020 150.870,176.909 151.177,177.334 150.836 C 178.208 150.134,179.743 148.009,179.529 147.796 C 179.443 147.709,179.198 147.881,178.986 148.178 M233.513 149.833 C 233.757 150.291,234.266 150.921,234.644 151.233 C 235.269 151.749,235.291 151.725,234.887 150.967 C 234.643 150.509,234.134 149.879,233.756 149.567 C 233.131 149.051,233.109 149.075,233.513 149.833 M175.200 152.618 C 174.385 153.098,172.317 153.200,164.000 153.168 C 142.864 153.086,129.876 153.210,130.155 153.489 C 130.496 153.830,274.450 153.911,294.200 153.581 L 307.800 153.354 293.800 153.177 C 286.100 153.080,270.440 152.991,259.000 152.979 C 244.317 152.964,237.729 152.820,236.600 152.488 C 233.968 151.716,176.524 151.837,175.200 152.618 M88.300 153.489 C 89.015 153.578,90.185 153.578,90.900 153.489 C 91.615 153.401,91.030 153.328,89.600 153.328 C 88.170 153.328,87.585 153.401,88.300 153.489 M105.600 153.485 C 105.600 153.658,109.335 153.820,113.900 153.845 C 118.721 153.871,121.445 153.765,120.400 153.592 C 117.933 153.183,105.600 153.094,105.600 153.485 M316.900 153.876 C 317.285 153.976,317.915 153.976,318.300 153.876 C 318.685 153.775,318.370 153.693,317.600 153.693 C 316.830 153.693,316.515 153.775,316.900 153.876 M324.505 153.887 C 325.114 153.979,326.014 153.977,326.505 153.882 C 326.997 153.787,326.500 153.711,325.400 153.714 C 324.300 153.717,323.897 153.795,324.505 153.887 M104.100 168.298 C 100.154 170.262,103.120 170.385,154.734 170.398 C 181.354 170.405,195.126 170.546,195.634 170.818 C 196.652 171.363,196.635 173.426,195.584 176.800 C 195.139 178.230,194.617 180.120,194.425 181.000 C 194.233 181.880,193.777 183.680,193.413 185.000 C 193.048 186.320,191.514 192.261,190.003 198.203 C 186.317 212.700,185.910 213.836,182.777 218.400 C 178.382 224.799,172.271 228.906,164.603 230.612 C 160.277 231.575,132.188 230.845,127.710 229.654 C 117.036 226.814,109.355 219.521,105.325 208.400 C 104.548 206.259,104.424 206.082,104.619 207.400 C 105.030 210.181,107.217 215.541,108.100 215.933 C 108.265 216.007,108.400 216.280,108.400 216.540 C 108.400 216.801,108.840 217.662,109.378 218.454 C 109.916 219.245,110.837 220.772,111.424 221.846 C 115.837 229.917,124.003 233.027,143.200 233.948 C 163.511 234.922,172.812 233.048,179.524 226.631 C 181.488 224.753,183.600 221.492,183.600 220.337 C 183.600 220.068,184.262 218.487,185.072 216.824 C 185.882 215.161,186.675 213.440,186.836 213.000 C 186.996 212.560,187.256 211.840,187.413 211.400 C 187.779 210.375,188.797 206.161,189.055 204.600 C 189.165 203.940,189.398 203.040,189.574 202.600 C 189.913 201.751,190.380 199.944,191.435 195.400 C 191.793 193.860,192.231 192.240,192.408 191.800 C 192.586 191.360,193.036 189.650,193.409 188.000 C 193.782 186.350,194.248 184.687,194.444 184.305 C 194.640 183.923,194.800 183.229,194.800 182.763 C 194.800 182.297,195.224 180.450,195.742 178.658 C 197.510 172.540,197.555 172.185,196.773 170.438 C 195.410 167.394,198.822 167.597,149.520 167.626 C 109.713 167.649,105.273 167.714,104.100 168.298 M223.467 167.977 C 218.578 168.376,217.484 170.759,219.234 177.200 C 219.682 178.850,220.382 181.460,220.789 183.000 C 221.196 184.540,221.891 187.150,222.334 188.800 C 223.219 192.097,225.416 200.478,226.057 203.000 C 226.548 204.933,226.940 206.512,227.845 210.200 C 229.142 215.488,233.114 222.644,236.659 226.081 C 246.333 235.458,288.799 237.380,299.137 228.910 C 302.831 225.882,304.676 223.787,304.954 222.302 C 305.103 221.508,305.375 220.800,305.559 220.729 C 306.107 220.517,309.627 214.800,309.210 214.800 C 308.998 214.800,308.075 215.835,307.158 217.100 C 298.849 228.560,293.422 230.428,268.155 230.530 C 248.596 230.608,249.891 230.759,243.615 227.669 C 236.063 223.952,227.600 211.697,227.600 204.479 C 227.600 204.022,227.444 203.551,227.254 203.433 C 227.064 203.316,226.800 202.540,226.668 201.710 C 226.536 200.879,225.967 198.580,225.402 196.600 C 224.838 194.620,223.930 191.380,223.383 189.400 C 222.837 187.420,221.932 184.180,221.372 182.200 C 220.047 177.513,219.625 175.760,219.341 173.753 C 219.035 171.590,218.341 171.682,237.000 171.398 C 245.360 171.270,254.990 170.998,258.400 170.792 C 261.810 170.586,271.710 170.394,280.400 170.366 C 314.267 170.256,317.217 170.075,315.359 168.217 C 314.715 167.572,231.115 167.355,223.467 167.977 M144.400 173.587 C 140.140 174.249,134.410 176.897,131.500 179.548 C 130.281 180.658,130.107 181.200,130.971 181.200 C 131.285 181.200,131.877 181.605,132.287 182.100 C 132.697 182.595,133.385 183.198,133.816 183.441 C 134.247 183.683,134.659 184.279,134.731 184.765 C 134.803 185.251,135.114 185.745,135.421 185.863 C 136.157 186.146,137.200 188.270,137.200 189.488 C 137.200 190.018,137.380 190.789,137.600 191.199 C 137.875 191.714,137.828 192.762,137.447 194.579 C 137.102 196.227,137.039 197.301,137.280 197.450 C 137.492 197.581,137.183 198.191,136.594 198.806 C 136.004 199.422,135.522 200.077,135.521 200.263 C 135.520 200.448,135.363 200.557,135.172 200.504 C 134.777 200.395,134.048 201.593,134.139 202.200 C 134.236 202.837,125.908 202.724,125.695 202.085 C 124.688 199.067,122.203 198.458,122.538 201.311 C 123.616 210.480,131.924 220.770,140.919 224.076 C 156.090 229.651,171.386 218.998,173.426 201.437 C 173.599 199.941,173.549 199.559,173.237 200.000 C 173.004 200.330,172.809 201.140,172.804 201.800 C 172.795 203.164,171.228 207.252,170.312 208.302 C 169.976 208.686,169.407 209.635,169.047 210.412 C 167.404 213.954,163.045 218.042,158.531 220.273 C 151.941 223.530,138.200 222.027,136.986 217.916 C 136.705 216.963,135.970 216.193,134.274 215.076 C 132.374 213.825,132.035 213.440,132.420 212.976 C 132.679 212.664,133.041 212.502,133.225 212.616 C 133.921 213.045,134.321 209.029,133.872 206.122 C 133.677 204.859,133.771 204.286,134.253 203.804 C 135.066 202.992,135.763 203.214,135.929 204.337 C 136.132 205.718,136.842 204.883,136.668 203.469 C 136.582 202.771,136.589 202.515,136.684 202.899 C 136.818 203.446,137.018 203.512,137.599 203.201 C 138.008 202.982,138.624 202.911,138.968 203.043 C 139.346 203.188,139.674 203.029,139.797 202.642 C 139.908 202.289,140.092 201.710,140.205 201.355 C 140.365 200.851,140.532 200.812,140.969 201.174 C 141.322 201.467,141.618 201.494,141.771 201.247 C 141.904 201.032,141.827 200.740,141.600 200.600 C 141.030 200.248,141.559 199.499,142.203 199.746 C 142.829 199.986,144.177 198.610,143.844 198.071 C 143.714 197.862,143.877 197.468,144.204 197.196 C 144.532 196.924,144.800 196.443,144.800 196.127 C 144.800 195.774,144.993 195.669,145.300 195.853 C 145.683 196.083,145.694 196.018,145.349 195.577 C 144.717 194.767,145.284 193.497,146.352 193.334 C 146.980 193.239,147.162 193.348,146.960 193.699 C 146.802 193.974,146.816 194.070,146.992 193.910 C 147.168 193.751,147.349 192.761,147.395 191.710 C 147.440 190.660,147.505 189.573,147.539 189.296 C 147.606 188.745,151.851 188.837,152.860 189.410 C 153.295 189.658,153.303 189.613,152.900 189.179 C 152.625 188.882,152.403 188.361,152.406 188.020 C 152.411 187.517,152.478 187.503,152.758 187.945 C 153.049 188.406,153.137 188.406,153.321 187.945 C 153.500 187.498,153.615 187.508,153.963 188.000 C 154.420 188.646,154.561 188.116,154.474 186.083 C 154.452 185.579,154.831 184.709,155.317 184.149 C 155.803 183.590,156.205 182.922,156.211 182.666 C 156.216 182.410,156.377 181.951,156.568 181.646 C 156.758 181.341,156.944 180.801,156.979 180.446 C 157.113 179.111,158.148 177.628,159.351 177.046 L 160.596 176.443 158.345 175.447 C 154.095 173.568,148.943 172.880,144.400 173.587 M258.288 175.046 C 253.458 176.708,251.318 178.586,253.564 179.190 C 254.456 179.431,255.376 179.981,255.607 180.414 C 255.839 180.846,256.432 181.200,256.925 181.200 C 257.982 181.200,259.705 182.306,259.405 182.792 C 259.290 182.977,258.752 183.080,258.209 183.021 C 257.666 182.961,257.325 183.079,257.452 183.283 C 257.578 183.488,257.933 183.558,258.240 183.440 C 258.548 183.322,258.800 183.399,258.800 183.613 C 258.800 183.826,259.160 184.000,259.600 184.000 C 260.040 184.000,260.400 184.180,260.400 184.400 C 260.400 184.620,260.652 184.800,260.960 184.800 C 261.268 184.800,262.433 185.799,263.550 187.021 C 265.238 188.868,267.782 190.466,266.987 189.179 C 266.651 188.635,268.150 188.710,268.704 189.264 C 268.960 189.520,269.640 189.779,270.217 189.841 C 271.767 190.006,272.918 191.517,272.621 192.997 C 272.140 195.392,272.144 195.787,272.663 196.785 C 272.953 197.343,273.101 198.080,272.993 198.422 C 272.670 199.442,274.445 201.040,275.690 200.851 C 275.850 200.826,276.374 201.338,276.854 201.987 C 277.726 203.167,278.566 203.298,278.140 202.187 C 277.988 201.792,278.175 201.600,278.708 201.600 C 279.574 201.600,280.551 202.516,280.132 202.934 C 279.815 203.252,281.195 204.850,281.581 204.612 C 281.731 204.519,282.080 205.066,282.355 205.828 C 282.631 206.589,283.011 207.117,283.200 207.000 C 283.390 206.883,283.650 206.957,283.779 207.166 C 283.908 207.374,283.830 207.658,283.607 207.796 C 283.383 207.934,283.203 208.262,283.206 208.524 C 283.210 208.835,283.314 208.857,283.506 208.587 C 284.047 207.826,285.689 208.149,286.035 209.084 C 286.705 210.893,285.374 213.426,283.276 214.338 C 282.244 214.786,280.290 216.199,278.932 217.477 C 274.334 221.806,274.385 221.777,270.120 222.430 C 262.049 223.666,254.213 220.428,249.200 213.788 C 248.430 212.768,247.238 211.273,246.551 210.466 C 245.411 209.128,245.005 208.088,243.019 201.425 C 242.761 200.559,242.361 199.787,242.130 199.710 C 241.660 199.553,242.481 204.998,243.117 206.262 C 243.322 206.668,244.072 208.260,244.784 209.800 C 250.383 221.904,259.872 228.403,269.087 226.447 C 270.359 226.178,272.025 225.852,272.790 225.724 C 273.554 225.596,274.634 225.179,275.190 224.797 C 275.745 224.415,277.010 223.648,278.000 223.092 C 280.692 221.582,287.150 214.693,288.772 211.600 C 289.522 210.170,290.285 208.940,290.468 208.867 C 291.564 208.426,290.359 204.806,288.739 203.674 C 287.044 202.489,286.000 201.464,286.000 200.984 C 286.000 200.725,285.372 199.902,284.604 199.156 C 283.837 198.410,283.207 197.580,283.204 197.310 C 283.202 197.041,282.660 196.541,282.000 196.200 C 281.340 195.859,280.800 195.413,280.800 195.209 C 280.800 195.005,279.855 193.904,278.700 192.763 C 277.545 191.621,276.048 189.768,275.373 188.644 C 274.698 187.520,273.734 186.394,273.231 186.142 C 271.966 185.509,268.800 182.347,268.800 181.717 C 268.800 181.433,268.558 181.200,268.262 181.200 C 267.570 181.200,266.400 179.911,266.400 179.149 C 266.400 178.826,265.786 177.940,265.036 177.181 C 264.039 176.172,263.783 175.665,264.085 175.300 C 264.532 174.758,264.389 174.725,261.291 174.644 C 260.351 174.620,259.000 174.801,258.288 175.046 M268.184 194.501 C 267.763 195.594,268.320 197.204,269.108 197.168 C 269.529 197.149,269.604 197.058,269.298 196.934 C 269.021 196.823,268.897 196.567,269.021 196.366 C 269.145 196.165,269.012 195.997,268.724 195.994 C 268.309 195.989,268.314 195.915,268.747 195.642 C 269.154 195.383,269.186 195.105,268.873 194.548 C 268.480 193.847,268.437 193.844,268.184 194.501 M102.475 195.800 C 102.465 196.460,102.611 197.360,102.800 197.800 L 103.144 198.600 103.125 197.800 C 103.114 197.360,102.968 196.460,102.800 195.800 L 102.495 194.600 102.475 195.800 M103.423 201.163 C 103.299 201.363,103.367 201.948,103.574 202.463 C 103.925 203.339,103.951 203.316,103.975 202.100 C 104.000 200.786,103.832 200.500,103.423 201.163 M141.426 202.772 C 141.011 203.230,140.795 203.728,140.945 203.879 C 141.325 204.258,142.529 202.986,142.336 202.409 C 142.237 202.111,141.903 202.245,141.426 202.772 M204.600 212.243 C 202.791 212.898,201.597 214.475,198.702 220.029 C 195.210 226.730,190.634 232.643,186.645 235.608 C 185.615 236.374,184.104 237.512,183.286 238.138 C 174.586 244.800,157.824 246.988,132.366 244.785 C 121.878 243.878,112.624 239.779,104.886 232.616 C 102.635 230.532,102.000 230.363,102.000 231.850 C 102.000 233.179,109.892 239.180,116.000 242.495 C 122.899 246.240,132.071 247.745,147.800 247.712 C 172.473 247.662,182.351 244.233,194.800 231.398 C 200.251 225.777,200.800 225.172,200.800 224.785 C 200.800 224.573,201.032 224.400,201.315 224.400 C 201.599 224.400,202.544 224.033,203.415 223.585 C 204.742 222.902,205.423 222.813,207.600 223.038 C 211.822 223.473,211.838 223.484,219.914 231.509 C 222.632 234.208,225.336 236.728,225.925 237.109 C 226.514 237.489,228.140 238.662,229.539 239.715 C 235.584 244.267,242.479 246.284,256.400 247.572 C 272.161 249.030,293.430 246.626,298.600 242.803 C 298.820 242.640,299.810 242.061,300.800 241.515 C 307.592 237.773,308.132 237.379,307.045 236.962 C 306.712 236.834,305.845 237.179,305.120 237.728 C 298.515 242.725,290.178 244.601,271.613 245.270 C 243.637 246.277,233.675 242.934,222.038 228.635 C 219.852 225.949,214.800 217.454,214.800 216.464 C 214.800 213.383,208.569 210.805,204.600 212.243 M176.243 267.319 C 167.892 269.734,168.937 284.400,177.459 284.400 C 179.436 284.400,180.532 285.078,181.710 287.028 C 182.978 289.127,183.618 289.291,183.553 287.500 C 183.426 284.022,183.371 283.972,179.600 283.881 C 175.593 283.784,174.134 283.109,172.060 280.389 C 168.406 275.599,172.368 267.614,178.400 267.613 C 181.236 267.612,181.363 267.811,181.656 272.684 C 181.799 275.058,182.142 277.540,182.419 278.200 L 182.921 279.400 183.405 277.356 C 184.018 274.768,185.900 271.282,187.200 270.329 C 188.260 269.552,221.103 268.979,223.644 269.694 C 225.652 270.258,229.580 277.271,229.618 280.360 L 229.635 281.800 230.453 280.250 C 231.087 279.048,231.320 277.654,231.492 274.050 C 231.813 267.313,233.236 265.986,237.720 268.245 C 246.663 272.749,242.818 284.558,232.616 283.918 L 229.800 283.741 229.705 286.891 C 229.645 288.886,229.755 289.952,230.005 289.797 C 230.222 289.663,230.400 289.390,230.400 289.190 C 230.400 287.116,233.384 284.477,235.800 284.415 C 237.763 284.364,240.014 282.877,241.717 280.507 C 246.308 274.116,239.774 265.253,231.890 267.177 C 228.879 267.912,191.868 268.250,185.600 267.600 C 178.416 266.855,177.898 266.840,176.243 267.319 M189.803 294.266 C 197.071 298.148,209.612 298.996,218.104 296.181 C 219.697 295.653,221.293 295.216,221.651 295.210 C 222.009 295.205,222.549 294.902,222.851 294.537 C 223.359 293.925,223.129 293.902,219.800 294.237 C 212.001 295.023,190.369 294.521,189.763 293.540 C 189.647 293.353,189.160 293.200,188.680 293.200 C 188.063 293.200,188.393 293.513,189.803 294.266 M243.777 326.838 C 243.654 327.037,244.013 327.200,244.576 327.200 C 245.802 327.200,245.901 326.972,244.800 326.684 C 244.361 326.569,243.900 326.638,243.777 326.838 M239.942 328.322 C 238.264 328.462,236.405 330.000,237.914 330.000 C 238.376 330.000,238.864 329.820,239.000 329.600 C 239.136 329.380,239.552 329.197,239.924 329.194 C 240.643 329.187,241.905 328.526,241.588 328.322 C 241.485 328.255,240.744 328.255,239.942 328.322 M172.546 330.202 C 173.176 330.531,174.307 330.800,175.058 330.800 C 175.904 330.800,176.513 331.029,176.655 331.400 C 176.805 331.791,177.393 331.989,178.343 331.967 L 179.800 331.935 178.400 331.315 C 175.268 329.928,170.157 328.956,172.546 330.202 M231.956 331.375 C 231.870 331.459,230.990 331.577,230.000 331.637 C 227.135 331.810,225.774 332.800,228.400 332.800 C 229.060 332.800,229.600 332.630,229.600 332.423 C 229.600 332.216,230.365 331.991,231.300 331.923 C 232.235 331.855,232.800 331.670,232.556 331.511 C 232.311 331.352,232.041 331.291,231.956 331.375 M185.800 333.600 C 185.936 333.820,186.497 334.000,187.047 334.000 C 187.612 334.000,187.940 333.826,187.800 333.600 C 187.664 333.380,187.103 333.200,186.553 333.200 C 185.988 333.200,185.660 333.374,185.800 333.600 M188.800 333.943 C 188.800 334.806,201.124 335.810,201.922 335.012 C 202.402 334.531,201.534 334.394,197.821 334.365 C 195.671 334.347,192.933 334.078,191.737 333.767 C 188.954 333.042,188.800 333.051,188.800 333.943 M220.400 333.638 C 219.212 333.940,214.729 334.303,211.233 334.379 C 210.702 334.391,210.396 334.529,210.554 334.688 C 210.968 335.101,219.726 334.813,220.180 334.370 C 220.389 334.167,221.334 334.000,222.280 334.000 C 223.226 334.000,224.000 333.820,224.000 333.600 C 224.000 333.125,222.349 333.142,220.400 333.638 " stroke="none" fill="#9a5f1c" fill-rule="evenodd"></path><path id="path4" d="M194.200 127.657 C 192.660 127.856,190.500 128.189,189.400 128.396 C 174.723 131.163,171.441 132.494,175.301 134.112 C 177.287 134.944,179.600 136.926,179.600 137.794 C 179.600 138.127,179.870 138.400,180.200 138.400 C 180.530 138.400,180.814 138.715,180.832 139.100 C 180.851 139.532,180.941 139.605,181.068 139.292 C 181.621 137.917,183.726 137.401,189.000 137.346 C 191.860 137.317,197.620 137.164,201.800 137.008 C 208.998 136.738,212.557 136.918,220.600 137.959 C 227.682 138.876,232.000 138.846,232.000 137.881 C 232.000 137.258,235.108 134.535,236.456 133.977 C 242.084 131.646,223.409 127.583,206.200 127.395 C 201.140 127.340,195.740 127.458,194.200 127.657 M99.659 174.378 C 99.674 175.600,99.841 177.140,100.029 177.800 C 100.217 178.460,100.660 180.710,101.015 182.800 C 101.369 184.890,101.822 187.410,102.022 188.400 C 103.348 194.965,104.146 199.345,104.426 201.600 C 105.280 208.462,108.219 214.893,112.582 219.446 C 114.308 221.247,115.546 221.817,114.868 220.500 C 114.670 220.115,114.584 219.590,114.676 219.334 C 114.768 219.078,114.474 218.750,114.022 218.607 C 113.569 218.463,113.013 217.998,112.786 217.573 C 112.558 217.148,112.108 216.800,111.786 216.800 C 111.423 216.800,111.200 216.408,111.200 215.770 C 111.200 215.186,110.783 214.368,110.239 213.883 L 109.277 213.027 110.105 212.309 C 110.608 211.872,111.339 211.658,111.967 211.762 C 112.535 211.857,113.113 211.949,113.250 211.967 C 113.388 211.985,113.604 212.518,113.730 213.150 C 113.915 214.076,114.170 214.300,115.041 214.300 C 115.913 214.300,115.994 214.228,115.461 213.930 C 114.681 213.494,114.538 211.219,115.300 211.369 C 115.575 211.423,116.296 211.706,116.902 211.999 C 118.288 212.667,118.420 212.521,118.585 210.141 C 118.780 207.342,120.036 202.275,120.664 201.756 C 120.959 201.512,121.200 200.759,121.200 200.084 C 121.200 199.232,121.626 198.405,122.593 197.380 C 123.786 196.114,124.209 194.777,123.222 195.386 C 123.045 195.496,122.781 194.843,122.636 193.935 C 122.328 192.009,121.237 192.767,121.213 194.924 C 121.205 195.568,121.030 195.942,120.800 195.800 C 120.580 195.664,120.400 195.214,120.400 194.800 C 120.400 193.930,119.789 193.436,119.181 193.812 C 118.892 193.990,118.890 194.226,119.174 194.568 C 119.929 195.478,118.680 196.656,117.520 196.127 C 115.515 195.214,112.966 187.886,114.355 187.028 C 114.550 186.907,114.824 186.195,114.965 185.445 C 115.106 184.694,115.477 183.868,115.791 183.608 C 116.104 183.348,116.734 182.364,117.190 181.420 C 119.461 176.730,123.964 177.353,126.243 182.673 C 127.006 184.455,127.600 184.697,127.600 183.225 C 127.600 181.009,131.335 177.695,137.134 174.767 C 140.390 173.123,139.642 173.034,121.800 172.945 C 112.780 172.899,104.102 172.703,102.515 172.509 L 99.630 172.156 99.659 174.378 M282.600 173.251 C 279.520 173.389,276.931 173.524,276.846 173.551 C 276.542 173.648,278.640 175.089,280.685 176.189 C 289.835 181.111,296.066 193.806,293.952 203.216 C 293.738 204.167,293.471 206.038,293.359 207.373 C 292.993 211.713,292.547 214.157,291.691 216.515 C 290.728 219.165,290.382 224.942,291.140 225.700 C 291.781 226.341,291.715 226.825,290.900 227.443 C 289.606 228.426,291.686 228.103,293.762 227.000 C 294.796 226.450,295.903 226.000,296.221 226.000 C 296.540 226.000,296.800 225.820,296.800 225.600 C 296.800 225.380,297.009 225.200,297.264 225.200 C 299.553 225.200,307.390 216.753,309.412 212.107 C 309.772 211.278,310.261 210.241,310.498 209.803 C 311.219 208.467,311.613 206.741,313.010 198.800 C 313.378 196.710,313.848 194.100,314.054 193.000 C 314.260 191.900,314.599 189.715,314.807 188.145 C 315.015 186.575,315.369 184.808,315.593 184.219 C 315.817 183.630,316.000 182.608,316.000 181.948 C 316.000 181.288,316.156 180.444,316.346 180.074 C 316.536 179.703,316.806 177.960,316.947 176.200 L 317.202 173.000 302.701 173.000 C 294.725 173.000,285.680 173.113,282.600 173.251 M157.376 173.653 C 156.729 173.792,156.470 173.927,156.800 173.952 C 162.024 174.362,171.217 184.063,173.334 191.400 C 173.714 192.720,174.200 194.353,174.413 195.028 C 174.626 195.704,174.800 196.541,174.800 196.887 C 174.800 197.349,175.480 197.636,177.333 197.959 C 181.369 198.662,183.200 198.475,183.200 197.362 C 183.200 197.053,183.597 196.813,184.100 196.817 C 186.476 196.839,187.550 196.339,187.825 195.085 C 188.096 193.851,187.756 183.225,187.348 180.172 C 187.167 178.818,187.305 178.336,188.165 177.314 C 190.710 174.290,189.635 173.989,175.401 173.749 C 169.021 173.641,162.619 173.519,161.176 173.476 C 159.733 173.434,158.023 173.514,157.376 173.653 M244.946 176.829 C 238.818 179.650,236.165 190.089,240.028 196.180 C 241.615 198.681,242.239 198.409,242.062 195.294 C 241.908 192.592,243.739 187.123,245.255 185.750 C 245.681 185.365,246.365 184.290,246.776 183.361 C 247.367 182.026,247.909 181.501,249.362 180.858 C 251.759 179.798,251.988 178.069,249.900 176.796 C 248.311 175.827,247.105 175.835,244.946 176.829 M100.867 235.880 C 100.742 244.993,102.330 254.026,106.036 265.274 C 107.900 270.930,108.353 272.086,110.804 277.434 C 112.707 281.585,119.041 292.184,120.477 293.620 C 120.804 293.947,121.145 294.425,121.236 294.682 C 121.560 295.604,128.002 303.076,131.864 307.009 C 139.962 315.256,148.308 321.271,159.000 326.564 C 172.441 333.219,188.448 337.314,200.277 337.124 C 202.875 337.083,203.920 336.996,202.600 336.931 C 168.157 335.239,140.067 320.079,120.655 292.707 C 108.736 275.899,102.949 258.157,101.053 232.600 C 100.988 231.720,100.904 233.196,100.867 235.880 M308.068 241.000 C 306.555 252.392,304.701 260.832,302.401 266.800 C 301.935 268.010,301.093 270.260,300.530 271.800 C 294.968 287.017,280.816 305.669,267.200 315.729 C 261.289 320.096,261.228 320.137,257.141 322.534 C 243.806 330.357,228.986 335.069,213.000 336.568 L 207.400 337.093 210.907 337.146 C 218.458 337.262,232.759 334.097,242.400 330.176 C 243.830 329.595,245.874 328.786,246.943 328.378 C 270.183 319.519,293.341 294.450,303.089 267.600 C 306.413 258.444,308.959 245.943,308.719 239.956 L 308.600 237.000 308.068 241.000 M201.042 283.268 C 201.228 283.570,201.123 283.656,200.746 283.512 C 199.434 283.008,189.623 283.856,188.869 284.537 C 188.466 284.902,187.934 285.200,187.687 285.200 C 187.439 285.200,187.128 285.875,186.996 286.700 C 186.864 287.525,186.687 288.538,186.602 288.951 C 186.225 290.793,187.734 291.708,193.600 293.192 C 197.007 294.055,206.438 294.525,210.944 294.057 C 213.395 293.803,216.210 293.535,217.200 293.461 C 220.336 293.226,224.981 292.271,225.502 291.753 C 226.450 290.810,225.350 287.380,223.460 285.388 L 221.800 283.637 216.000 283.329 C 208.687 282.939,207.186 282.948,206.234 283.385 C 205.685 283.637,205.551 283.604,205.758 283.268 C 205.968 282.929,205.319 282.800,203.400 282.800 C 201.481 282.800,200.832 282.929,201.042 283.268 M201.087 290.662 C 205.456 291.536,204.994 291.878,199.631 291.742 C 195.424 291.636,192.800 290.987,192.800 290.054 C 192.800 289.575,197.309 289.906,201.087 290.662 M216.503 290.749 C 216.704 291.520,211.404 292.421,210.384 291.790 C 209.720 291.379,210.382 290.800,211.524 290.794 C 212.116 290.791,212.870 290.613,213.200 290.400 C 214.272 289.707,216.286 289.920,216.503 290.749 " stroke="none" fill="#efdf92" fill-rule="evenodd"></path><path id="path5" d="M240.600 133.986 C 242.140 134.133,243.985 134.562,244.700 134.937 C 245.415 135.313,246.000 135.517,246.000 135.391 C 246.000 134.693,242.395 133.622,240.200 133.667 L 237.800 133.717 240.600 133.986 M163.200 136.200 C 162.650 136.514,162.380 136.772,162.600 136.772 C 162.820 136.772,163.450 136.514,164.000 136.200 C 164.550 135.886,164.820 135.628,164.600 135.628 C 164.380 135.628,163.750 135.886,163.200 136.200 M247.600 136.192 C 247.600 136.345,249.992 137.600,250.285 137.600 C 250.374 137.600,250.347 137.438,250.224 137.239 C 249.998 136.874,247.600 135.916,247.600 136.192 M160.493 137.380 C 159.032 138.187,158.962 138.442,160.330 137.964 C 161.029 137.721,161.702 137.359,161.824 137.161 C 162.121 136.681,161.604 136.766,160.493 137.380 M252.569 138.618 C 253.652 139.155,254.623 139.511,254.726 139.407 C 254.913 139.220,251.372 137.581,250.867 137.621 C 250.720 137.633,251.486 138.081,252.569 138.618 M157.376 138.987 C 156.949 139.310,156.780 139.575,157.000 139.575 C 157.220 139.575,157.749 139.310,158.176 138.987 C 158.604 138.664,158.773 138.400,158.553 138.400 C 158.333 138.400,157.804 138.664,157.376 138.987 M256.800 140.600 C 257.790 141.130,258.780 141.564,259.000 141.564 C 259.220 141.564,258.590 141.130,257.600 140.600 C 256.610 140.070,255.620 139.636,255.400 139.636 C 255.180 139.636,255.810 140.070,256.800 140.600 M153.376 140.987 C 152.949 141.310,152.780 141.575,153.000 141.575 C 153.220 141.575,153.749 141.310,154.176 140.987 C 154.604 140.664,154.773 140.400,154.553 140.400 C 154.333 140.400,153.804 140.664,153.376 140.987 M149.800 142.614 C 148.700 143.137,146.578 144.135,145.084 144.833 C 143.590 145.530,142.435 146.168,142.517 146.251 C 142.653 146.387,145.142 145.269,150.600 142.619 C 151.700 142.086,152.420 141.652,152.200 141.656 C 151.980 141.660,150.900 142.091,149.800 142.614 M262.000 143.000 C 262.550 143.314,263.180 143.572,263.400 143.572 C 263.620 143.572,263.350 143.314,262.800 143.000 C 262.250 142.686,261.620 142.428,261.400 142.428 C 261.180 142.428,261.450 142.686,262.000 143.000 M268.800 146.200 C 269.790 146.730,270.780 147.164,271.000 147.164 C 271.220 147.164,270.590 146.730,269.600 146.200 C 268.610 145.670,267.620 145.236,267.400 145.236 C 267.180 145.236,267.810 145.670,268.800 146.200 M139.600 147.400 C 138.610 147.930,137.980 148.364,138.200 148.364 C 138.420 148.364,139.410 147.930,140.400 147.400 C 141.390 146.870,142.020 146.436,141.800 146.436 C 141.580 146.436,140.590 146.870,139.600 147.400 M272.200 147.701 C 273.552 148.507,276.800 149.974,276.800 149.779 C 276.800 149.677,275.688 149.055,274.329 148.397 C 271.827 147.185,270.736 146.828,272.200 147.701 M135.900 149.029 C 135.295 149.357,134.800 149.706,134.800 149.804 C 134.800 150.028,136.866 149.163,137.380 148.724 C 138.007 148.190,137.104 148.376,135.900 149.029 M131.900 151.077 C 130.856 151.658,130.061 152.194,130.135 152.268 C 130.208 152.342,131.243 151.865,132.434 151.208 C 133.625 150.552,134.420 150.016,134.200 150.017 C 133.980 150.018,132.945 150.495,131.900 151.077 M279.166 151.208 C 280.357 151.865,281.393 152.341,281.468 152.266 C 281.640 152.094,277.814 149.997,277.346 150.007 C 277.156 150.011,277.975 150.552,279.166 151.208 M73.275 152.822 C 72.156 153.270,71.200 154.179,71.200 154.794 C 71.200 155.042,71.615 154.762,72.122 154.173 C 72.935 153.228,73.441 153.067,76.422 152.808 L 79.800 152.515 77.000 152.483 C 75.460 152.465,73.784 152.618,73.275 152.822 M123.315 152.696 C 124.588 152.776,126.568 152.775,127.715 152.694 C 128.862 152.614,127.820 152.549,125.400 152.550 C 122.980 152.551,122.042 152.616,123.315 152.696 M341.900 153.196 C 343.065 153.906,343.203 154.186,343.227 155.894 C 343.250 157.528,343.315 157.675,343.677 156.925 C 344.464 155.296,342.893 152.398,341.225 152.401 C 340.881 152.402,341.185 152.760,341.900 153.196 M71.201 157.666 C 71.199 158.743,75.622 162.435,79.752 164.804 L 83.580 167.000 84.155 169.400 C 84.532 170.976,84.731 171.388,84.734 170.600 C 84.745 167.973,83.918 166.774,80.897 165.041 C 76.622 162.587,72.882 159.754,71.993 158.296 C 71.506 157.498,71.202 157.256,71.201 157.666 M342.250 159.350 C 341.383 161.177,338.186 164.008,335.394 165.421 C 332.909 166.678,332.269 167.501,332.515 169.120 C 332.673 170.150,332.683 170.143,332.740 168.962 C 332.808 167.564,333.472 166.859,335.847 165.665 C 338.813 164.175,343.843 158.910,343.054 158.121 C 342.972 158.039,342.610 158.592,342.250 159.350 M99.600 170.000 C 98.980 170.620,98.815 171.273,98.867 172.900 C 98.925 174.711,98.954 174.780,99.074 173.400 C 99.357 170.155,99.456 170.003,101.308 169.972 C 102.620 169.950,102.820 169.867,102.200 169.600 C 100.951 169.063,100.461 169.139,99.600 170.000 M331.800 172.000 C 331.646 172.910,331.611 173.744,331.721 173.854 C 331.831 173.964,332.046 173.310,332.200 172.400 C 332.354 171.490,332.389 170.656,332.279 170.546 C 332.169 170.436,331.954 171.090,331.800 172.000 M84.806 173.033 C 84.809 173.675,84.996 174.470,85.221 174.800 C 85.514 175.230,85.554 174.946,85.362 173.800 C 85.030 171.816,84.798 171.496,84.806 173.033 M330.820 177.820 C 330.540 179.703,330.392 181.325,330.491 181.424 C 330.590 181.523,330.909 180.072,331.200 178.200 C 331.491 176.328,331.639 174.706,331.529 174.596 C 331.419 174.486,331.100 175.937,330.820 177.820 M85.637 176.304 C 85.591 177.438,86.678 184.192,87.167 185.800 C 87.671 187.459,87.691 185.995,87.193 183.906 C 86.970 182.968,86.537 180.670,86.231 178.800 C 85.925 176.930,85.658 175.807,85.637 176.304 M252.451 180.096 C 256.025 186.773,251.710 197.699,245.099 198.714 L 242.600 199.098 244.720 199.149 C 251.899 199.322,256.864 187.594,252.815 180.028 C 252.571 179.573,252.282 179.200,252.172 179.200 C 252.062 179.200,252.188 179.603,252.451 180.096 M161.648 180.112 C 161.008 180.752,161.091 181.783,161.958 183.926 C 162.374 184.957,163.027 187.025,163.408 188.522 C 164.400 192.420,166.811 193.619,169.886 191.741 C 170.993 191.065,171.872 191.049,172.135 191.700 C 172.252 191.990,172.350 191.897,172.368 191.477 C 172.414 190.429,170.692 187.515,167.596 183.400 C 164.800 179.683,163.046 178.714,161.648 180.112 M128.900 182.294 C 128.556 182.413,128.398 183.483,128.394 185.733 C 128.386 190.372,127.218 193.497,124.315 196.646 L 122.698 198.400 124.149 198.400 C 124.947 198.400,125.735 198.414,125.900 198.431 C 126.684 198.512,126.980 197.138,126.288 196.624 C 125.752 196.225,125.706 196.045,126.102 195.893 C 126.391 195.782,127.041 194.886,127.547 193.902 C 128.054 192.918,129.263 191.448,130.234 190.636 C 131.239 189.796,132.000 188.816,132.000 188.362 C 132.000 187.530,133.427 185.858,134.418 185.527 C 135.601 185.133,134.202 183.270,132.518 182.996 C 131.683 182.860,130.640 182.608,130.200 182.435 C 129.760 182.263,129.175 182.199,128.900 182.294 M329.869 183.156 C 329.721 183.895,329.620 184.883,329.644 185.350 C 329.668 185.817,329.847 185.390,330.042 184.400 C 330.237 183.410,330.338 182.423,330.267 182.206 C 330.196 181.990,330.017 182.417,329.869 183.156 M328.830 189.231 C 328.542 190.864,328.149 192.830,327.956 193.600 C 327.762 194.370,327.624 195.540,327.649 196.200 C 327.695 197.449,327.717 197.376,328.381 193.800 C 328.585 192.700,328.966 190.789,329.227 189.553 C 329.488 188.318,329.624 187.072,329.528 186.785 C 329.433 186.498,329.119 187.599,328.830 189.231 M87.647 187.976 C 87.597 189.021,88.200 192.428,89.067 196.000 C 89.361 197.210,89.520 197.570,89.419 196.800 C 89.253 195.527,89.057 194.402,88.026 188.800 C 87.843 187.810,87.673 187.439,87.647 187.976 M327.031 198.886 C 326.881 199.609,326.412 202.000,325.990 204.200 C 325.567 206.400,325.122 208.650,325.000 209.200 L 324.777 210.200 325.197 209.242 C 325.428 208.716,325.882 206.916,326.207 205.242 C 326.532 203.569,327.007 201.254,327.263 200.098 C 327.519 198.942,327.634 197.900,327.517 197.784 C 327.401 197.667,327.182 198.163,327.031 198.886 M89.805 200.200 C 89.988 202.536,91.509 209.788,91.563 208.582 C 91.583 208.132,91.249 206.062,90.820 203.982 C 90.391 201.902,89.952 199.750,89.844 199.200 C 89.737 198.650,89.719 199.100,89.805 200.200 M91.634 210.200 C 91.622 210.640,91.787 211.270,92.000 211.600 C 92.514 212.395,92.514 211.396,92.000 210.200 L 91.656 209.400 91.634 210.200 M323.634 213.461 C 321.658 219.886,317.420 226.596,312.146 231.651 C 308.861 234.799,307.390 236.579,310.205 234.000 C 317.075 227.704,320.844 222.309,323.593 214.830 C 324.274 212.976,324.780 211.203,324.716 210.890 C 324.652 210.577,324.166 211.734,323.634 213.461 M92.461 212.800 C 92.461 213.130,92.703 214.030,93.000 214.800 C 93.297 215.570,93.539 215.930,93.539 215.600 C 93.539 215.270,93.297 214.370,93.000 213.600 C 92.703 212.830,92.461 212.470,92.461 212.800 M93.764 216.742 C 93.881 216.931,94.166 217.586,94.399 218.198 C 94.632 218.810,94.921 219.213,95.041 219.093 C 95.278 218.856,94.115 216.400,93.766 216.400 C 93.649 216.400,93.648 216.554,93.764 216.742 M95.206 219.677 C 95.198 220.039,96.828 222.800,97.050 222.800 C 97.144 222.800,96.953 222.305,96.625 221.700 C 95.810 220.195,95.213 219.344,95.206 219.677 M97.200 223.392 C 97.200 223.571,97.835 224.492,98.611 225.439 C 99.387 226.386,100.373 227.935,100.802 228.881 C 101.231 229.826,101.586 230.366,101.591 230.080 C 101.604 229.316,100.539 227.391,98.929 225.269 C 97.199 222.988,97.200 222.989,97.200 223.392 M183.309 282.000 C 183.309 282.990,183.387 283.395,183.482 282.900 C 183.578 282.405,183.578 281.595,183.482 281.100 C 183.387 280.605,183.309 281.010,183.309 282.000 " stroke="none" fill="#9e9691" fill-rule="evenodd"></path><path id="path6" d="M171.000 133.792 C 171.220 133.863,172.390 134.224,173.600 134.594 C 177.499 135.787,179.667 138.619,180.035 143.000 L 180.271 145.800 180.335 142.978 C 180.449 138.032,175.979 133.416,171.286 133.632 C 170.909 133.649,170.780 133.721,171.000 133.792 M165.800 135.381 C 164.260 136.124,163.144 136.747,163.320 136.766 C 163.496 136.785,164.207 136.507,164.899 136.149 C 165.592 135.790,167.068 135.174,168.179 134.778 C 169.291 134.382,169.840 134.052,169.400 134.045 C 168.960 134.037,167.340 134.639,165.800 135.381 M236.695 134.554 C 233.388 136.020,231.167 139.529,231.255 143.149 L 231.309 145.400 231.604 143.000 C 232.127 138.749,234.195 135.902,237.650 134.682 C 238.613 134.341,239.040 134.064,238.600 134.064 C 238.160 134.065,237.303 134.285,236.695 134.554 M242.600 134.526 C 243.480 134.824,244.982 135.470,245.939 135.962 C 246.895 136.454,247.762 136.772,247.864 136.669 C 248.143 136.390,243.583 134.374,242.200 134.164 C 241.275 134.025,241.367 134.107,242.600 134.526 M248.400 136.956 C 248.400 137.164,251.908 138.806,252.296 138.779 C 252.567 138.760,248.833 136.800,248.525 136.800 C 248.456 136.800,248.400 136.870,248.400 136.956 M156.400 139.819 C 155.410 140.333,154.713 140.763,154.851 140.776 C 155.350 140.823,157.951 139.602,158.196 139.206 C 158.502 138.712,158.596 138.680,156.400 139.819 M252.800 138.956 C 252.800 139.164,256.308 140.806,256.696 140.779 C 256.967 140.760,253.233 138.800,252.925 138.800 C 252.856 138.800,252.800 138.870,252.800 138.956 M257.200 141.020 C 257.200 141.318,260.818 142.915,261.025 142.709 C 261.132 142.602,260.315 142.139,259.209 141.679 C 258.104 141.220,257.200 140.923,257.200 141.020 M151.600 142.200 C 151.050 142.514,150.780 142.772,151.000 142.772 C 151.220 142.772,151.850 142.514,152.400 142.200 C 152.950 141.886,153.220 141.628,153.000 141.628 C 152.780 141.628,152.150 141.886,151.600 142.200 M261.600 142.966 C 261.600 143.315,264.056 144.478,264.293 144.241 C 264.413 144.121,264.010 143.832,263.398 143.599 C 262.786 143.366,262.131 143.081,261.942 142.964 C 261.754 142.848,261.600 142.849,261.600 142.966 M146.400 144.600 C 145.410 145.130,144.712 145.572,144.849 145.582 C 145.236 145.610,148.800 143.985,148.800 143.781 C 148.800 143.434,148.188 143.643,146.400 144.600 M265.424 144.987 C 265.851 145.310,266.470 145.579,266.800 145.585 C 267.130 145.590,266.884 145.326,266.254 144.998 C 264.795 144.237,264.425 144.232,265.424 144.987 M142.000 146.619 C 141.010 147.133,140.337 147.563,140.504 147.576 C 140.889 147.606,144.400 145.966,144.400 145.756 C 144.400 145.468,143.810 145.680,142.000 146.619 M231.616 145.713 C 231.576 146.494,232.894 148.990,233.610 149.492 C 234.047 149.798,234.678 150.578,235.013 151.224 C 235.401 151.976,235.933 152.400,236.486 152.400 C 237.203 152.400,236.994 152.073,235.269 150.500 C 234.123 149.455,232.836 147.880,232.409 147.000 C 231.982 146.120,231.625 145.541,231.616 145.713 M267.600 145.793 C 267.600 146.118,272.508 148.425,272.729 148.204 C 272.836 148.098,272.220 147.718,271.361 147.361 C 270.503 147.004,269.305 146.457,268.700 146.145 C 268.095 145.834,267.600 145.675,267.600 145.793 M178.652 148.065 C 178.053 148.980,177.853 149.488,178.208 149.194 C 178.812 148.692,180.185 146.400,179.881 146.400 C 179.805 146.400,179.252 147.149,178.652 148.065 M274.000 149.000 C 274.550 149.314,275.180 149.572,275.400 149.572 C 275.620 149.572,275.350 149.314,274.800 149.000 C 274.250 148.686,273.620 148.428,273.400 148.428 C 273.180 148.428,273.450 148.686,274.000 149.000 M132.800 151.077 L 130.200 152.536 105.800 152.449 C 78.006 152.351,73.488 152.585,72.103 154.195 C 69.779 156.897,72.742 160.542,80.945 165.069 C 84.381 166.965,84.207 166.521,86.212 178.600 C 86.874 182.591,87.610 186.386,87.840 187.000 C 88.300 188.225,86.804 178.056,85.986 174.400 C 85.765 173.410,85.428 171.500,85.237 170.156 C 84.805 167.103,84.043 165.919,81.891 164.958 C 77.256 162.886,71.600 158.031,71.600 156.124 C 71.600 153.346,68.921 153.546,108.000 153.406 C 120.210 153.363,140.079 153.292,152.153 153.249 C 176.246 153.164,175.175 153.277,177.200 150.605 C 177.876 149.714,176.030 150.719,174.871 151.873 C 174.258 152.484,132.000 152.669,132.000 152.061 C 132.000 151.874,132.729 151.393,133.619 150.991 C 134.510 150.590,135.331 150.112,135.443 149.931 C 135.747 149.439,135.625 149.492,132.800 151.077 M278.176 150.966 C 278.604 151.315,279.099 151.600,279.276 151.600 C 279.454 151.600,279.600 151.780,279.600 152.000 C 279.600 152.262,272.311 152.400,258.533 152.400 C 246.947 152.400,237.602 152.535,237.767 152.700 C 237.932 152.865,249.617 153.025,263.733 153.055 C 311.887 153.159,341.650 153.544,342.286 154.071 C 342.883 154.567,342.856 156.948,342.235 158.600 C 341.939 159.389,341.944 159.389,342.567 158.624 C 342.949 158.155,343.200 157.083,343.200 155.918 C 343.200 152.165,345.201 152.382,311.000 152.422 L 281.400 152.456 279.400 151.394 C 278.300 150.810,277.749 150.618,278.176 150.966 M339.801 161.599 C 338.728 162.688,336.849 164.068,335.625 164.665 C 332.652 166.117,332.518 166.287,331.861 169.457 C 331.321 172.060,331.119 173.176,329.992 179.800 C 329.730 181.340,329.264 183.924,328.958 185.543 C 328.396 188.508,328.245 190.289,328.583 189.950 C 328.772 189.761,329.282 187.017,331.066 176.600 C 331.632 173.300,332.218 169.873,332.371 168.985 C 332.743 166.810,332.816 166.725,335.447 165.394 C 337.744 164.232,342.398 160.278,341.976 159.847 C 341.853 159.721,340.874 160.510,339.801 161.599 M100.168 168.354 C 98.048 169.647,97.632 176.670,99.494 179.745 C 99.609 179.934,99.847 181.284,100.023 182.745 C 100.199 184.205,100.640 186.930,101.003 188.800 C 101.366 190.670,101.805 193.190,101.979 194.400 L 102.295 196.600 102.348 194.683 C 102.376 193.629,102.131 191.379,101.801 189.683 C 101.472 187.987,101.035 185.700,100.830 184.600 C 100.625 183.500,100.166 181.237,99.811 179.571 C 98.187 171.956,98.727 168.693,101.497 169.389 C 102.062 169.530,102.631 169.482,102.762 169.281 C 102.893 169.081,103.540 168.627,104.200 168.274 L 105.400 167.632 103.400 167.618 C 102.126 167.608,100.953 167.876,100.168 168.354 M315.284 168.219 C 315.788 168.824,316.222 169.253,317.414 170.329 C 318.088 170.937,318.168 173.088,317.619 175.869 C 317.114 178.430,316.143 183.926,315.581 187.400 C 315.332 188.940,314.975 190.920,314.788 191.800 C 314.601 192.680,314.076 195.671,313.621 198.447 C 312.491 205.349,311.428 209.301,309.853 212.458 C 309.120 213.927,308.741 215.044,309.010 214.941 C 309.575 214.724,310.751 212.389,312.002 209.000 C 312.521 207.596,314.248 198.993,314.572 196.200 C 314.674 195.320,315.038 193.250,315.381 191.600 C 315.723 189.950,316.175 187.430,316.385 186.000 C 316.596 184.570,317.214 180.880,317.760 177.800 C 318.931 171.202,318.752 169.647,316.680 168.383 C 315.138 167.443,314.584 167.378,315.284 168.219 M159.341 177.051 C 158.147 177.629,157.113 179.115,156.979 180.446 C 156.944 180.801,156.758 181.341,156.568 181.646 C 156.377 181.951,156.216 182.410,156.211 182.666 C 156.205 182.922,155.803 183.590,155.317 184.149 C 154.831 184.709,154.452 185.579,154.474 186.083 C 154.560 188.080,154.418 188.646,153.994 188.000 C 153.666 187.501,153.541 187.492,153.248 187.945 C 152.952 188.406,152.863 188.406,152.680 187.945 C 152.514 187.528,152.456 187.546,152.432 188.020 C 152.414 188.361,152.625 188.882,152.900 189.179 C 153.303 189.613,153.295 189.658,152.860 189.410 C 151.851 188.837,147.606 188.745,147.539 189.296 C 147.505 189.573,147.440 190.660,147.395 191.710 C 147.349 192.761,147.168 193.751,146.992 193.910 C 146.816 194.070,146.802 193.974,146.960 193.699 C 147.162 193.348,146.980 193.239,146.352 193.334 C 145.284 193.497,144.717 194.767,145.349 195.577 C 145.694 196.018,145.683 196.083,145.300 195.853 C 144.993 195.669,144.800 195.774,144.800 196.127 C 144.800 196.443,144.532 196.924,144.204 197.196 C 143.877 197.468,143.714 197.862,143.844 198.071 C 144.177 198.610,142.829 199.986,142.203 199.746 C 141.559 199.499,141.030 200.248,141.600 200.600 C 141.827 200.740,141.904 201.032,141.771 201.247 C 141.618 201.494,141.322 201.467,140.969 201.174 C 140.402 200.704,140.364 200.754,139.758 202.742 C 139.665 203.047,139.320 203.178,138.968 203.043 C 138.624 202.911,138.008 202.982,137.599 203.201 C 137.018 203.512,136.818 203.446,136.684 202.899 C 136.589 202.515,136.582 202.771,136.668 203.469 C 136.842 204.883,136.132 205.718,135.929 204.337 C 135.763 203.214,135.066 202.992,134.253 203.804 C 133.771 204.286,133.677 204.859,133.872 206.122 C 134.321 209.029,133.921 213.045,133.225 212.616 C 133.041 212.502,132.675 212.669,132.411 212.987 C 132.014 213.465,132.317 213.813,134.156 214.989 C 135.380 215.772,136.629 216.886,136.932 217.465 L 137.484 218.517 137.727 217.559 C 137.861 217.031,138.504 216.018,139.156 215.307 C 139.808 214.596,140.460 213.641,140.605 213.184 C 140.750 212.728,141.303 212.189,141.834 211.987 C 142.365 211.785,142.800 211.435,142.800 211.210 C 142.800 210.984,143.087 210.800,143.437 210.800 C 143.788 210.800,144.161 210.485,144.267 210.100 C 144.372 209.715,145.273 208.901,146.268 208.291 C 147.544 207.509,148.008 206.997,147.838 206.555 C 147.706 206.210,147.929 205.449,148.334 204.864 C 148.738 204.279,149.185 203.481,149.325 203.092 C 149.466 202.703,150.210 202.013,150.978 201.560 C 152.050 200.928,152.433 200.393,152.619 199.268 C 152.753 198.460,152.933 197.575,153.019 197.300 C 153.218 196.663,154.400 196.642,154.400 197.276 C 154.400 197.964,155.571 196.317,155.592 195.600 C 155.602 195.270,156.238 194.593,157.005 194.096 C 158.098 193.388,158.400 192.927,158.400 191.968 C 158.400 190.900,158.474 190.817,158.977 191.320 C 159.733 192.076,160.591 196.021,161.581 203.291 C 162.547 210.391,162.797 210.925,165.000 210.581 C 166.947 210.277,169.689 209.028,170.466 208.090 C 172.586 205.531,174.241 195.617,172.846 193.830 C 172.661 193.593,172.392 192.905,172.248 192.300 C 171.958 191.088,171.235 190.917,169.886 191.741 C 166.811 193.619,164.400 192.420,163.408 188.522 C 163.027 187.025,162.374 184.957,161.958 183.926 C 160.684 180.774,161.214 179.287,163.414 179.839 C 164.981 180.232,164.562 179.406,162.374 177.785 C 160.640 176.501,160.530 176.474,159.341 177.051 M252.572 179.701 C 257.283 186.891,251.865 199.663,244.336 199.118 C 242.208 198.964,241.448 199.212,242.345 199.766 C 242.535 199.883,242.915 200.839,243.190 201.890 C 244.583 207.213,245.398 209.238,246.577 210.301 C 247.247 210.905,247.668 211.241,247.512 211.047 C 247.356 210.853,247.402 210.369,247.615 209.972 C 247.874 209.489,247.860 209.160,247.573 208.983 C 247.193 208.749,247.389 205.917,247.839 205.151 C 247.919 205.013,248.796 205.312,249.787 205.813 C 251.961 206.914,254.181 206.774,256.623 205.382 C 258.330 204.409,261.600 201.125,261.600 200.384 C 261.600 198.771,263.757 195.618,264.439 196.235 C 264.828 196.587,265.057 197.107,264.948 197.390 C 264.828 197.703,265.453 198.245,266.540 198.771 C 267.524 199.247,268.433 199.910,268.561 200.244 C 268.690 200.578,268.952 200.753,269.145 200.634 C 269.338 200.515,269.812 201.448,270.199 202.709 C 270.586 203.969,271.060 205.171,271.251 205.380 C 271.443 205.589,271.600 206.138,271.600 206.601 C 271.600 207.063,272.496 210.200,273.591 213.573 C 274.686 216.945,275.486 219.861,275.368 220.052 C 274.718 221.104,276.182 220.081,278.622 217.778 C 280.150 216.336,282.244 214.789,283.276 214.339 C 285.374 213.425,286.704 210.892,286.035 209.084 C 285.689 208.149,284.047 207.826,283.506 208.587 C 283.314 208.857,283.210 208.835,283.206 208.524 C 283.203 208.262,283.383 207.934,283.607 207.796 C 283.830 207.658,283.908 207.374,283.779 207.166 C 283.650 206.957,283.390 206.883,283.200 207.000 C 283.011 207.117,282.631 206.589,282.355 205.828 C 282.080 205.066,281.731 204.519,281.581 204.612 C 281.195 204.850,279.815 203.252,280.132 202.934 C 280.551 202.516,279.574 201.600,278.708 201.600 C 278.175 201.600,277.988 201.792,278.140 202.187 C 278.566 203.298,277.726 203.167,276.854 201.987 C 276.374 201.338,275.850 200.826,275.690 200.851 C 274.445 201.040,272.670 199.442,272.993 198.422 C 273.101 198.080,272.953 197.343,272.663 196.785 C 272.144 195.787,272.140 195.392,272.621 192.997 C 272.918 191.517,271.767 190.006,270.217 189.841 C 269.640 189.779,268.960 189.520,268.704 189.264 C 268.150 188.710,266.651 188.635,266.987 189.179 C 267.782 190.466,265.238 188.868,263.550 187.021 C 262.433 185.799,261.268 184.800,260.960 184.800 C 260.652 184.800,260.400 184.620,260.400 184.400 C 260.400 184.180,260.040 184.000,259.600 184.000 C 259.160 184.000,258.800 183.826,258.800 183.613 C 258.800 183.399,258.548 183.322,258.240 183.440 C 257.933 183.558,257.578 183.488,257.452 183.283 C 257.325 183.079,257.666 182.961,258.209 183.021 C 258.752 183.080,259.290 182.977,259.405 182.792 C 259.705 182.306,257.982 181.200,256.925 181.200 C 256.432 181.200,255.842 180.852,255.614 180.427 C 255.387 180.002,254.796 179.538,254.300 179.395 C 251.721 178.654,251.869 178.628,252.572 179.701 M132.982 186.582 C 132.442 187.122,132.000 187.923,132.000 188.362 C 132.000 188.816,131.239 189.796,130.234 190.636 C 129.263 191.448,128.054 192.918,127.547 193.902 C 127.041 194.886,126.391 195.782,126.102 195.893 C 125.706 196.045,125.752 196.225,126.288 196.624 C 127.462 197.496,126.473 198.621,124.669 198.465 C 122.762 198.301,122.051 198.752,123.264 199.357 C 123.778 199.613,124.559 200.396,124.999 201.096 C 125.512 201.911,126.232 202.451,127.000 202.596 C 128.328 202.847,134.048 202.671,133.936 202.382 C 133.802 202.039,134.824 200.408,135.112 200.504 C 135.270 200.557,135.427 200.448,135.461 200.263 C 135.495 200.077,136.004 199.422,136.594 198.806 C 137.183 198.191,137.492 197.581,137.280 197.450 C 137.039 197.301,137.102 196.227,137.447 194.579 C 137.828 192.762,137.875 191.714,137.600 191.199 C 137.380 190.789,137.200 190.011,137.200 189.472 C 137.200 186.376,134.819 184.744,132.982 186.582 M88.194 189.600 C 88.362 190.590,88.636 192.120,88.802 193.000 C 88.968 193.880,89.408 196.397,89.778 198.592 C 90.148 200.788,90.553 202.678,90.677 202.792 C 90.937 203.032,90.601 200.005,90.010 196.800 C 89.788 195.590,89.366 193.207,89.074 191.505 C 88.782 189.803,88.396 188.273,88.216 188.105 C 88.036 187.937,88.026 188.610,88.194 189.600 M327.785 192.259 C 327.639 193.107,327.087 195.983,326.559 198.650 C 326.032 201.318,325.618 203.928,325.640 204.450 C 325.682 205.444,325.889 204.627,326.969 199.200 C 328.256 192.733,328.505 191.172,328.283 190.949 C 328.156 190.822,327.932 191.412,327.785 192.259 M268.747 195.642 C 268.314 195.915,268.309 195.989,268.724 195.994 C 269.012 195.997,269.145 196.165,269.021 196.366 C 268.897 196.567,269.021 196.823,269.298 196.934 C 269.604 197.058,269.529 197.149,269.108 197.168 C 268.320 197.204,267.763 195.594,268.184 194.501 C 268.437 193.844,268.480 193.847,268.873 194.548 C 269.186 195.105,269.154 195.383,268.747 195.642 M102.812 199.200 C 102.812 199.750,102.987 200.470,103.200 200.800 C 103.507 201.275,103.588 201.192,103.588 200.400 C 103.588 199.850,103.413 199.130,103.200 198.800 C 102.893 198.325,102.812 198.408,102.812 199.200 M141.856 203.515 C 140.929 204.442,140.533 203.758,141.426 202.772 C 141.903 202.245,142.237 202.111,142.336 202.409 C 142.422 202.667,142.206 203.165,141.856 203.515 M90.956 204.400 C 91.390 207.328,91.985 210.244,92.383 211.400 L 92.797 212.600 92.607 211.400 C 92.503 210.740,92.218 208.851,91.974 207.202 C 91.730 205.553,91.354 203.933,91.139 203.602 C 90.860 203.172,90.807 203.400,90.956 204.400 M103.743 204.350 C 103.884 205.093,104.003 205.993,104.006 206.350 C 104.011 206.877,104.079 206.895,104.363 206.446 C 104.561 206.133,104.564 205.371,104.369 204.692 C 103.879 202.984,103.436 202.742,103.743 204.350 M325.246 205.649 C 323.258 216.307,319.191 224.119,311.839 231.406 C 307.188 236.015,306.647 236.658,307.157 236.973 C 307.382 237.112,307.831 236.713,308.155 236.087 C 308.479 235.460,310.131 233.609,311.825 231.974 C 316.711 227.257,320.475 221.822,322.585 216.438 C 323.994 212.844,325.668 206.810,325.467 206.054 C 325.371 205.694,325.272 205.512,325.246 205.649 M92.800 212.917 C 92.800 214.321,96.848 222.523,98.840 225.155 C 100.769 227.704,101.289 228.688,101.613 230.400 C 101.827 231.535,101.937 231.661,102.194 231.067 C 102.539 230.269,101.473 228.037,99.582 225.600 C 97.467 222.874,94.179 216.529,93.723 214.292 C 93.540 213.396,92.800 212.293,92.800 212.917 M182.141 280.005 C 182.358 282.677,182.689 284.000,183.143 284.001 C 183.623 284.002,183.126 279.549,182.526 278.471 C 181.961 277.456,181.941 277.536,182.141 280.005 M230.465 280.217 C 229.920 281.413,229.845 283.600,230.348 283.600 C 230.695 283.600,231.380 279.647,231.085 279.352 C 231.000 279.266,230.721 279.656,230.465 280.217 M172.000 280.525 C 172.000 280.594,172.585 281.179,173.300 281.825 L 174.600 283.000 173.425 281.700 C 172.330 280.488,172.000 280.216,172.000 280.525 " stroke="none" fill="#746c44" fill-rule="evenodd"></path><path id="path7" d="M175.000 134.360 C 177.590 135.561,179.978 138.555,180.617 141.400 C 180.924 142.768,181.256 142.232,181.733 139.600 C 181.968 138.301,181.943 138.256,181.393 138.976 C 180.876 139.654,180.800 139.667,180.800 139.076 C 180.800 138.704,180.530 138.400,180.200 138.400 C 179.870 138.400,179.600 138.118,179.600 137.774 C 179.600 136.697,175.481 133.645,174.000 133.626 C 173.670 133.621,174.120 133.952,175.000 134.360 M235.356 134.638 C 233.581 135.823,232.000 137.383,232.000 137.951 C 232.000 138.416,229.777 138.957,229.237 138.623 C 229.027 138.493,228.742 138.570,228.604 138.793 C 228.466 139.017,228.701 139.200,229.126 139.200 C 229.972 139.200,230.361 140.421,230.450 143.350 C 230.499 144.968,230.506 144.959,230.806 142.899 C 231.388 138.911,233.729 135.576,236.920 134.188 C 237.624 133.882,237.910 133.624,237.556 133.616 C 237.202 133.607,236.212 134.067,235.356 134.638 M89.700 152.300 C 97.125 152.361,109.275 152.361,116.700 152.300 C 124.125 152.239,118.050 152.189,103.200 152.189 C 88.350 152.189,82.275 152.239,89.700 152.300 M295.729 152.300 C 303.611 152.361,316.391 152.361,324.129 152.300 C 331.868 152.239,325.420 152.189,309.800 152.190 C 294.180 152.190,287.848 152.239,295.729 152.300 M99.456 170.599 C 99.315 170.966,99.233 172.376,99.274 173.733 C 99.347 176.158,99.350 176.166,99.492 174.178 L 99.636 172.157 102.518 172.510 C 104.103 172.704,112.780 172.899,121.800 172.945 C 139.642 173.034,140.390 173.123,137.134 174.767 C 130.233 178.252,127.600 180.907,127.600 184.381 C 127.600 189.396,126.018 193.694,122.966 196.972 C 121.792 198.232,121.201 199.225,121.201 199.934 C 121.203 200.984,121.216 200.979,122.051 199.600 C 122.517 198.830,123.581 197.456,124.415 196.546 C 127.214 193.493,128.386 190.312,128.394 185.743 C 128.399 183.220,128.535 182.434,129.000 182.255 C 129.330 182.129,129.606 181.704,129.613 181.313 C 129.698 176.517,147.706 170.890,154.400 173.567 C 158.626 175.256,163.182 177.794,164.200 179.026 C 171.738 188.145,173.024 190.933,173.460 199.100 C 173.747 204.482,174.009 204.983,174.991 202.027 C 175.513 200.456,175.980 199.857,177.284 199.087 L 178.922 198.119 176.861 197.846 C 175.326 197.642,174.800 197.405,174.800 196.915 C 174.800 196.553,174.626 195.704,174.413 195.028 C 174.200 194.353,173.714 192.720,173.334 191.400 C 171.193 183.981,163.898 176.183,157.000 173.940 C 155.527 173.461,171.950 173.404,181.800 173.854 C 189.530 174.207,190.392 174.668,188.200 177.273 C 187.634 177.946,187.218 178.925,187.241 179.531 C 187.280 180.539,187.299 180.527,187.586 179.323 C 187.753 178.621,188.364 177.483,188.945 176.793 C 190.130 175.384,190.682 173.722,190.143 173.183 C 189.587 172.627,181.520 172.172,176.200 172.397 C 173.560 172.509,167.080 172.471,161.800 172.314 C 149.582 171.949,129.527 171.918,121.937 172.251 C 116.140 172.505,109.989 171.940,105.400 170.731 C 102.317 169.918,99.739 169.861,99.456 170.599 M314.871 171.014 C 313.008 172.339,311.183 172.514,302.348 172.212 C 298.087 172.067,292.890 171.923,290.800 171.892 C 284.956 171.807,270.794 172.487,270.560 172.864 C 270.446 173.049,270.678 173.208,271.076 173.218 C 273.710 173.281,277.249 175.632,275.344 176.053 C 273.482 176.464,270.067 176.432,269.800 176.000 C 269.249 175.108,268.759 175.690,268.876 177.100 C 268.995 178.534,269.137 178.670,272.126 180.200 C 273.845 181.080,275.705 182.205,276.260 182.700 C 276.814 183.195,277.498 183.600,277.780 183.600 C 278.615 183.600,282.453 187.627,283.090 189.172 C 283.414 189.957,284.111 191.173,284.639 191.873 C 285.168 192.574,285.600 193.409,285.600 193.731 C 285.600 194.052,285.884 194.423,286.230 194.556 C 286.622 194.706,286.833 195.215,286.788 195.899 C 286.669 197.704,286.741 197.860,288.213 198.982 L 289.625 200.060 290.606 199.130 C 291.167 198.598,291.589 197.740,291.593 197.124 C 291.600 196.121,292.217 195.283,292.639 195.705 C 293.819 196.886,293.367 203.350,291.852 206.949 C 291.493 207.801,291.196 208.971,291.191 209.549 C 291.186 210.127,290.839 211.047,290.419 211.593 C 289.880 212.295,289.776 212.730,290.066 213.080 C 290.292 213.352,290.702 214.435,290.978 215.487 L 291.480 217.400 291.984 215.800 C 292.560 213.973,293.062 210.897,293.359 207.373 C 293.471 206.038,293.738 204.167,293.952 203.216 C 296.066 193.806,289.835 181.111,280.685 176.189 C 279.538 175.572,278.192 174.754,277.692 174.370 L 276.785 173.673 278.378 173.404 C 279.254 173.256,288.348 173.103,298.587 173.064 L 317.203 172.993 317.022 176.197 C 316.834 179.520,317.122 178.541,317.792 173.575 C 318.247 170.207,317.243 169.327,314.871 171.014 M250.700 177.231 C 251.294 177.860,251.374 180.400,250.800 180.400 C 250.120 180.400,250.359 181.382,251.160 181.882 C 252.366 182.635,253.196 184.737,253.246 187.161 C 253.288 189.210,253.316 189.276,253.577 187.937 C 253.890 186.331,253.203 181.500,252.466 180.122 C 252.209 179.644,252.000 178.887,252.000 178.440 C 252.000 177.994,251.595 177.420,251.100 177.165 C 250.357 176.783,250.287 176.795,250.700 177.231 M99.634 177.600 C 99.646 177.930,99.811 178.560,100.000 179.000 L 100.344 179.800 100.366 179.000 C 100.378 178.560,100.213 177.930,100.000 177.600 C 99.655 177.067,99.615 177.067,99.634 177.600 M316.273 180.153 C 316.123 180.545,316.018 181.436,316.040 182.133 C 316.079 183.367,316.090 183.359,316.449 181.827 C 316.845 180.137,316.724 178.979,316.273 180.153 M100.442 181.754 C 100.419 182.388,100.568 183.558,100.774 184.354 C 100.979 185.149,101.379 187.150,101.662 188.800 C 101.946 190.450,102.248 191.449,102.333 191.020 C 102.419 190.591,102.290 189.331,102.046 188.220 C 101.802 187.109,101.351 184.940,101.043 183.400 C 100.735 181.860,100.465 181.119,100.442 181.754 M315.414 184.681 C 315.134 185.792,314.527 189.929,314.192 193.000 C 313.975 195.003,314.911 191.016,315.625 186.898 C 316.119 184.052,315.969 182.478,315.414 184.681 M188.056 192.000 C 187.945 196.310,187.503 196.848,184.100 196.817 C 183.590 196.813,183.200 197.052,183.200 197.371 C 183.200 197.680,182.975 198.040,182.700 198.170 C 182.425 198.301,182.920 198.300,183.800 198.169 C 187.659 197.594,188.320 198.155,187.660 201.441 C 187.407 202.702,187.221 204.468,187.246 205.367 L 187.292 207.000 187.572 205.600 C 187.726 204.830,188.065 203.807,188.326 203.326 C 188.587 202.846,188.800 202.001,188.800 201.450 C 188.800 200.898,188.980 200.336,189.200 200.200 C 189.772 199.847,189.702 196.501,189.119 196.306 C 188.824 196.208,188.538 194.841,188.381 192.773 L 188.124 189.400 188.056 192.000 M238.027 191.885 C 237.988 193.174,239.449 196.830,240.497 198.063 C 241.556 199.310,246.769 199.061,248.000 197.705 C 248.541 197.109,248.534 197.093,247.937 197.540 C 247.507 197.862,246.190 197.995,244.177 197.918 C 240.647 197.784,239.636 196.876,238.560 192.879 C 238.282 191.845,238.042 191.398,238.027 191.885 M102.468 193.000 C 102.462 193.660,102.611 194.560,102.800 195.000 C 103.270 196.094,103.270 194.267,102.800 192.800 C 102.488 191.825,102.479 191.830,102.468 193.000 M251.283 193.622 C 250.810 194.508,250.586 195.132,250.786 195.009 C 251.212 194.745,252.464 192.331,252.273 192.140 C 252.202 192.068,251.756 192.735,251.283 193.622 M313.497 195.600 C 313.340 196.150,313.225 197.140,313.242 197.800 L 313.272 199.000 313.658 197.658 C 313.871 196.920,313.986 195.930,313.914 195.458 C 313.792 194.654,313.766 194.663,313.497 195.600 M103.252 196.600 C 103.250 197.040,103.491 198.570,103.785 200.000 C 104.189 201.956,104.327 202.253,104.343 201.200 C 104.355 200.430,104.115 198.900,103.809 197.800 C 103.504 196.700,103.253 196.160,103.252 196.600 M312.664 200.800 C 311.990 204.461,311.967 205.563,312.609 203.400 C 312.936 202.300,313.156 200.860,313.099 200.200 C 313.009 199.167,312.949 199.250,312.664 200.800 M104.434 204.400 C 104.422 204.950,104.587 205.670,104.800 206.000 C 105.309 206.787,105.309 205.384,104.800 204.200 C 104.485 203.467,104.454 203.484,104.434 204.400 M311.473 206.553 C 311.323 206.945,311.211 207.566,311.225 207.933 C 311.242 208.375,311.381 208.274,311.637 207.634 C 311.849 207.103,311.961 206.482,311.885 206.254 C 311.809 206.027,311.624 206.161,311.473 206.553 M105.232 206.925 C 105.172 207.527,106.493 211.210,106.848 211.430 C 107.042 211.549,107.200 211.467,107.200 211.247 C 107.200 211.027,107.020 210.736,106.800 210.600 C 106.580 210.464,106.392 210.048,106.382 209.676 C 106.363 208.954,105.287 206.379,105.232 206.925 M310.508 209.701 C 310.273 210.195,309.783 211.278,309.419 212.107 C 307.361 216.785,299.549 225.200,297.264 225.200 C 297.009 225.200,296.800 225.380,296.800 225.600 C 296.800 225.820,296.451 226.000,296.024 226.000 C 295.597 226.000,295.124 226.199,294.974 226.443 C 294.451 227.288,296.554 226.366,299.218 224.581 C 304.166 221.266,308.446 216.018,310.589 210.639 C 311.263 208.945,311.202 208.237,310.508 209.701 M101.291 233.400 C 101.273 235.160,101.403 237.410,101.580 238.400 L 101.900 240.200 101.903 237.800 C 101.905 236.480,101.775 234.230,101.614 232.800 L 101.322 230.200 101.291 233.400 M308.065 236.617 C 307.809 237.178,307.614 238.754,307.632 240.119 C 307.670 243.131,307.865 242.768,308.339 238.800 C 308.745 235.405,308.717 235.186,308.065 236.617 M102.093 242.000 C 102.093 242.770,102.175 243.085,102.276 242.700 C 102.376 242.315,102.376 241.685,102.276 241.300 C 102.175 240.915,102.093 241.230,102.093 242.000 M307.293 244.800 C 307.293 245.570,307.375 245.885,307.476 245.500 C 307.576 245.115,307.576 244.485,307.476 244.100 C 307.375 243.715,307.293 244.030,307.293 244.800 M102.440 246.633 C 102.462 247.495,102.633 248.650,102.821 249.200 C 103.042 249.848,103.080 249.355,102.931 247.800 C 102.663 245.020,102.382 244.351,102.440 246.633 M103.264 251.000 C 103.248 251.440,103.481 252.790,103.783 254.000 C 104.085 255.210,104.330 255.750,104.328 255.200 C 104.322 253.935,103.306 249.920,103.264 251.000 M305.822 253.022 C 305.672 253.825,305.628 254.562,305.726 254.660 C 305.824 254.757,306.027 254.181,306.178 253.378 C 306.328 252.575,306.372 251.838,306.274 251.740 C 306.176 251.643,305.973 252.219,305.822 253.022 M104.621 257.400 C 104.731 258.060,105.172 259.680,105.601 261.000 C 106.029 262.320,106.290 262.860,106.179 262.200 C 106.069 261.540,105.628 259.920,105.199 258.600 C 104.771 257.280,104.510 256.740,104.621 257.400 M303.829 261.029 C 303.681 261.615,303.638 262.172,303.732 262.266 C 303.827 262.360,304.024 261.958,304.171 261.371 C 304.319 260.785,304.362 260.228,304.268 260.134 C 304.173 260.040,303.976 260.442,303.829 261.029 M302.844 264.444 C 302.262 266.114,302.541 266.392,303.200 264.800 C 303.479 264.126,303.614 263.481,303.500 263.367 C 303.386 263.253,303.091 263.738,302.844 264.444 M107.227 265.895 C 107.177 266.806,110.266 274.556,112.341 278.725 C 136.932 328.137,193.882 349.841,244.141 328.954 C 250.416 326.346,258.535 322.052,262.200 319.404 C 274.756 310.329,282.830 302.161,290.374 290.902 C 294.828 284.255,300.865 272.732,300.228 272.094 C 300.104 271.971,299.791 272.484,299.531 273.235 C 293.268 291.312,273.180 313.318,253.000 324.210 C 248.993 326.373,246.405 327.600,245.851 327.600 C 245.726 327.600,244.667 328.037,243.498 328.572 C 239.861 330.236,238.163 330.810,231.600 332.596 C 216.276 336.767,199.969 337.396,185.200 334.386 C 165.536 330.379,146.988 320.598,133.697 307.227 C 122.340 295.802,114.071 283.461,109.426 271.000 C 107.529 265.913,107.260 265.289,107.227 265.895 M190.278 276.409 C 189.001 276.611,187.443 277.142,186.816 277.588 C 186.189 278.035,185.484 278.400,185.249 278.400 C 182.786 278.400,183.519 287.541,186.242 290.777 C 189.927 295.157,218.370 296.264,226.099 292.329 C 227.341 291.696,229.600 285.729,229.600 283.079 C 229.600 281.903,226.045 277.622,224.872 277.384 C 224.282 277.264,223.170 276.981,222.400 276.755 C 220.578 276.220,193.330 275.926,190.278 276.409 M205.758 283.268 C 205.551 283.604,205.685 283.637,206.234 283.385 C 207.186 282.948,208.687 282.939,216.000 283.329 L 221.800 283.637 223.460 285.388 C 225.350 287.380,226.450 290.810,225.502 291.753 C 224.981 292.271,220.336 293.226,217.200 293.461 C 216.210 293.535,213.395 293.803,210.944 294.057 C 206.438 294.525,197.007 294.055,193.600 293.192 C 187.734 291.708,186.225 290.793,186.602 288.951 C 186.687 288.538,186.864 287.525,186.996 286.700 C 187.128 285.875,187.439 285.200,187.687 285.200 C 187.934 285.200,188.466 284.902,188.869 284.537 C 189.623 283.856,199.434 283.008,200.746 283.512 C 201.123 283.656,201.228 283.570,201.042 283.268 C 200.832 282.929,201.481 282.800,203.400 282.800 C 205.319 282.800,205.968 282.929,205.758 283.268 " stroke="none" fill="#ccb484" fill-rule="evenodd"></path><path id="path8" d="M237.278 132.776 C 237.693 133.440,238.205 133.600,239.920 133.600 C 241.236 133.600,241.953 133.448,241.800 133.200 C 241.664 132.980,240.832 132.800,239.950 132.800 C 239.069 132.800,237.991 132.609,237.555 132.376 C 236.829 131.987,236.806 132.020,237.278 132.776 M171.000 132.691 C 168.751 133.011,168.958 133.600,171.320 133.600 C 173.080 133.600,173.600 133.463,173.600 133.000 C 173.600 132.403,173.285 132.365,171.000 132.691 M166.131 134.221 C 165.432 134.527,164.747 134.962,164.607 135.189 C 164.315 135.661,164.917 135.750,165.367 135.300 C 165.531 135.135,166.416 134.695,167.333 134.322 C 168.257 133.947,168.643 133.649,168.200 133.655 C 167.760 133.661,166.829 133.915,166.131 134.221 M245.542 135.026 C 247.159 135.810,248.559 136.374,248.654 136.279 C 248.894 136.039,243.923 133.600,243.195 133.600 C 242.869 133.600,243.925 134.242,245.542 135.026 M161.200 136.638 C 160.210 137.163,159.175 137.594,158.900 137.596 C 158.625 137.598,158.400 137.780,158.400 138.000 C 158.400 138.531,158.226 138.588,161.403 137.018 C 162.941 136.259,163.930 135.648,163.600 135.661 C 163.270 135.674,162.190 136.114,161.200 136.638 M249.200 136.556 C 249.200 136.836,252.883 138.451,253.077 138.256 C 253.181 138.152,252.419 137.692,251.382 137.233 C 249.421 136.366,249.200 136.297,249.200 136.556 M156.800 138.767 C 155.462 139.480,153.364 140.558,152.800 140.823 C 152.470 140.978,151.333 141.505,150.274 141.993 C 149.215 142.482,148.430 142.964,148.530 143.064 C 148.719 143.252,158.000 138.834,158.000 138.556 C 158.000 138.318,157.467 138.411,156.800 138.767 M254.224 138.987 C 254.651 139.310,255.117 139.580,255.259 139.587 C 255.401 139.594,257.633 140.598,260.219 141.817 C 262.805 143.037,265.748 144.411,266.760 144.871 C 267.772 145.331,269.666 146.222,270.968 146.852 C 272.270 147.482,273.421 147.912,273.525 147.808 C 273.697 147.636,270.065 145.849,263.200 142.728 C 260.141 141.338,255.692 139.256,254.705 138.754 C 253.630 138.206,253.362 138.336,254.224 138.987 M145.457 144.067 C 144.608 144.496,144.005 144.939,144.118 145.051 C 144.230 145.163,145.194 144.801,146.261 144.246 C 147.327 143.691,147.930 143.248,147.600 143.262 C 147.270 143.276,146.306 143.638,145.457 144.067 M142.400 145.588 C 141.814 145.922,138.885 147.269,135.917 148.571 C 135.101 148.929,134.326 149.397,134.193 149.611 C 133.889 150.103,134.513 150.121,135.020 149.635 C 135.229 149.435,137.110 148.513,139.200 147.587 C 142.798 145.992,144.252 145.170,143.380 145.224 C 143.171 145.236,142.730 145.401,142.400 145.588 M275.541 149.005 C 276.498 149.552,277.354 150.000,277.443 150.000 C 277.531 150.000,278.537 150.450,279.677 151.000 L 281.750 152.000 311.175 151.905 L 340.600 151.810 311.000 151.605 C 284.546 151.422,281.272 151.330,280.200 150.743 C 275.956 148.418,271.810 146.872,275.541 149.005 M131.400 150.716 C 130.311 151.337,127.716 151.419,103.400 151.606 L 76.600 151.811 103.225 151.906 L 129.851 152.000 131.825 151.021 C 132.911 150.483,133.530 150.040,133.200 150.037 C 132.870 150.034,132.060 150.340,131.400 150.716 M72.324 152.725 C 70.532 153.811,69.873 156.229,70.850 158.126 C 71.360 159.115,75.118 162.800,75.617 162.800 C 75.796 162.800,76.188 163.025,76.488 163.300 C 77.231 163.981,78.333 164.672,80.000 165.502 C 80.770 165.886,81.749 166.515,82.175 166.900 C 82.989 167.634,83.604 167.808,83.594 167.300 C 83.591 167.135,81.864 166.012,79.757 164.804 C 70.088 159.264,67.917 153.793,74.848 152.432 L 76.600 152.088 75.000 152.080 C 74.120 152.076,72.916 152.367,72.324 152.725 M341.847 152.633 C 346.002 154.683,342.859 161.892,336.278 165.407 C 333.444 166.920,332.797 167.548,332.819 168.762 C 332.838 169.761,332.864 169.749,333.519 168.443 C 333.970 167.544,334.906 166.712,336.295 165.976 C 340.577 163.704,344.400 158.837,344.400 155.655 C 344.400 154.170,342.650 151.997,341.464 152.009 C 340.739 152.017,340.801 152.117,341.847 152.633 M83.731 169.400 C 84.246 173.117,84.794 175.904,85.190 176.821 C 85.721 178.053,85.626 177.201,84.630 171.817 C 83.956 168.175,83.326 166.481,83.731 169.400 M332.061 173.200 C 331.768 174.850,331.364 177.064,331.164 178.120 C 330.699 180.571,330.706 181.168,331.189 180.403 C 331.397 180.075,331.672 178.815,331.802 177.603 C 331.931 176.392,332.225 174.661,332.454 173.759 C 332.683 172.856,332.809 171.686,332.732 171.159 C 332.655 170.628,332.355 171.540,332.061 173.200 M85.650 179.628 C 85.623 180.414,85.940 182.664,86.356 184.628 C 86.772 186.593,87.244 189.190,87.407 190.400 C 87.760 193.042,88.333 194.762,88.375 193.306 C 88.389 192.814,88.230 191.644,88.023 190.706 C 87.616 188.860,86.969 185.432,86.192 181.000 C 85.834 178.963,85.687 178.589,85.650 179.628 M248.872 181.076 C 247.930 181.466,247.324 182.123,246.786 183.337 C 246.370 184.279,245.681 185.365,245.255 185.750 C 242.844 187.932,241.094 196.528,242.836 197.631 C 245.464 199.295,249.433 197.300,251.365 193.345 C 251.995 192.055,252.666 190.687,252.855 190.305 C 253.899 188.203,252.914 183.094,251.236 181.903 C 250.846 181.626,250.453 181.203,250.363 180.963 C 250.250 180.660,249.794 180.694,248.872 181.076 M329.853 185.600 C 329.460 187.910,328.986 190.610,328.800 191.600 C 328.121 195.198,327.940 197.016,328.323 196.400 C 328.528 196.070,328.818 194.810,328.968 193.600 C 329.119 192.390,329.400 190.770,329.594 190.000 C 330.255 187.379,330.894 182.985,330.730 182.191 C 330.640 181.756,330.245 183.290,329.853 185.600 M124.245 187.326 C 122.195 191.628,122.185 191.665,122.584 193.843 C 122.816 195.113,123.058 195.477,123.647 195.443 C 124.067 195.420,124.377 195.310,124.337 195.200 C 124.297 195.090,124.747 194.235,125.337 193.300 C 127.172 190.394,128.186 185.146,127.120 184.080 C 126.292 183.252,126.067 183.506,124.245 187.326 M88.434 195.469 C 88.415 195.948,88.590 197.298,88.821 198.469 C 89.053 199.641,89.507 201.950,89.830 203.600 C 91.135 210.262,91.314 211.077,91.895 213.000 C 92.227 214.100,92.683 215.180,92.908 215.400 C 93.186 215.672,93.220 215.543,93.013 215.000 C 92.243 212.980,90.289 204.207,89.583 199.600 C 89.088 196.363,88.485 194.196,88.434 195.469 M327.664 197.954 C 327.629 198.478,327.427 199.558,327.216 200.354 C 327.005 201.149,326.540 203.378,326.183 205.306 C 325.611 208.399,324.257 213.274,323.408 215.300 C 323.243 215.693,323.288 216.000,323.511 216.000 C 323.728 216.000,324.008 215.595,324.132 215.100 C 324.255 214.605,324.624 213.300,324.952 212.200 C 326.219 207.944,326.764 205.655,327.007 203.568 C 327.146 202.376,327.440 201.026,327.660 200.569 C 327.881 200.112,327.986 199.122,327.895 198.369 C 327.789 197.501,327.705 197.349,327.664 197.954 M93.213 216.302 C 93.189 217.209,96.802 224.059,97.865 225.122 C 98.159 225.416,98.400 225.790,98.400 225.953 C 98.400 226.116,98.715 226.598,99.100 227.025 C 99.899 227.910,100.678 229.429,100.933 230.600 C 101.085 231.299,101.113 231.283,101.154 230.480 C 101.197 229.619,100.211 227.245,99.625 226.800 C 98.785 226.162,97.130 223.441,94.759 218.800 C 93.917 217.150,93.221 216.026,93.213 216.302 M321.203 220.200 C 319.163 224.288,315.490 229.077,311.693 232.600 C 308.908 235.183,308.158 236.456,308.786 237.532 C 309.101 238.071,309.178 237.964,309.188 236.977 C 309.198 235.969,309.929 235.016,313.360 231.543 C 318.075 226.771,323.541 218.685,323.128 217.094 C 323.058 216.822,322.192 218.220,321.203 220.200 M192.800 290.054 C 192.800 290.987,195.424 291.636,199.631 291.742 C 204.994 291.878,205.456 291.536,201.087 290.662 C 197.309 289.906,192.800 289.575,192.800 290.054 M213.200 290.400 C 212.870 290.613,212.116 290.791,211.524 290.794 C 210.382 290.800,209.720 291.379,210.384 291.790 C 211.404 292.421,216.704 291.520,216.503 290.749 C 216.286 289.920,214.272 289.707,213.200 290.400 M202.300 337.497 C 203.895 337.573,206.505 337.573,208.100 337.497 C 209.695 337.421,208.390 337.359,205.200 337.359 C 202.010 337.359,200.705 337.421,202.300 337.497 " stroke="none" fill="#ccccc4" fill-rule="evenodd"></path></g></svg>