<svg id="svg" version="1.1" xmlns="http://www.w3.org/2000/svg" xmlns:xlink="http://www.w3.org/1999/xlink" width="400" height="266.6666666666667" viewBox="0, 0, 400,266.6666666666667"><g id="svgg"><path id="path0" d="M109.635 90.088 C 92.083 94.554,90.431 118.022,107.250 123.974 C 123.385 129.684,138.653 114.694,131.536 100.130 C 127.690 92.261,118.199 87.909,109.635 90.088 " stroke="none" fill="#233a79" fill-rule="evenodd"></path><path id="path1" d="M311.849 184.917 C 311.419 185.047,310.915 185.097,310.729 185.028 C 310.522 184.951,310.462 185.019,310.576 185.203 C 310.700 185.404,310.620 185.450,310.338 185.342 C 310.104 185.252,309.832 185.309,309.734 185.468 C 309.616 185.660,309.679 185.684,309.921 185.541 C 310.122 185.422,309.687 185.869,308.955 186.535 C 307.251 188.083,306.471 189.829,306.313 192.448 C 306.230 193.831,306.071 194.506,305.767 194.762 C 305.373 195.093,305.375 195.110,305.794 194.965 C 306.171 194.835,306.250 194.965,306.250 195.711 C 306.250 196.208,306.133 196.615,305.990 196.615 C 305.846 196.615,305.729 196.739,305.729 196.890 C 305.729 197.042,305.842 197.097,305.979 197.011 C 306.137 196.914,306.234 199.212,306.240 203.200 C 306.252 210.366,306.429 211.410,307.974 213.435 C 308.485 214.105,308.804 214.725,308.683 214.813 C 308.295 215.097,308.321 215.625,308.724 215.625 C 308.939 215.625,309.115 215.731,309.115 215.861 C 309.115 215.991,309.351 216.035,309.639 215.960 C 310.043 215.854,310.127 215.920,310.002 216.245 C 309.823 216.711,310.285 216.830,310.558 216.388 C 310.652 216.236,310.900 216.176,311.108 216.255 C 311.349 216.348,311.418 216.291,311.299 216.099 C 311.168 215.886,311.260 215.859,311.611 216.008 C 313.466 216.791,318.284 216.377,320.052 215.281 C 320.553 214.971,321.051 214.745,321.159 214.780 C 321.266 214.815,321.325 214.756,321.290 214.648 C 321.255 214.541,321.545 214.035,321.936 213.524 C 323.696 211.220,324.553 203.077,322.875 204.595 C 322.165 205.238,318.750 205.393,318.750 204.783 C 318.750 203.068,318.016 205.300,317.920 207.307 C 317.820 209.394,317.734 209.728,317.147 210.316 C 316.322 211.140,314.323 211.512,314.323 210.842 C 314.323 210.608,314.118 210.418,313.867 210.421 C 313.478 210.424,313.468 210.461,313.802 210.677 C 314.082 210.858,314.097 210.931,313.855 210.934 C 313.253 210.941,312.217 209.597,312.394 209.040 C 312.501 208.702,312.458 208.589,312.267 208.707 C 312.063 208.833,311.987 208.033,312.005 205.940 C 312.022 204.062,312.107 203.231,312.240 203.646 C 312.420 204.211,312.451 204.159,312.470 203.255 C 312.486 202.493,312.424 202.318,312.240 202.604 C 312.054 202.892,311.987 202.721,311.987 201.953 C 311.987 201.186,312.054 201.014,312.240 201.302 C 312.437 201.608,312.493 201.540,312.496 200.992 C 312.498 200.607,312.383 200.219,312.240 200.130 C 312.096 200.042,311.987 199.244,311.997 198.357 C 312.010 197.246,312.083 196.907,312.231 197.266 C 312.405 197.685,312.444 197.619,312.433 196.924 C 312.425 196.363,312.344 196.181,312.203 196.404 C 312.068 196.618,311.987 196.356,311.987 195.703 C 311.987 194.936,312.054 194.764,312.240 195.052 C 312.443 195.366,312.493 195.325,312.496 194.841 C 312.498 194.506,312.385 194.311,312.240 194.401 C 312.083 194.498,311.981 194.166,311.983 193.570 C 311.987 192.296,312.236 191.373,312.527 191.553 C 312.652 191.630,312.693 191.534,312.618 191.338 C 312.401 190.771,313.424 190.053,314.638 189.920 C 316.001 189.772,317.302 190.211,317.095 190.750 C 317.015 190.959,317.080 191.210,317.239 191.308 C 317.429 191.425,317.456 191.361,317.320 191.121 C 317.149 190.822,317.176 190.816,317.469 191.088 C 317.695 191.298,317.876 192.256,317.963 193.692 L 318.099 195.964 320.541 196.039 C 323.378 196.126,323.916 195.842,323.741 194.346 C 323.685 193.871,323.770 193.326,323.929 193.134 C 324.144 192.875,324.111 192.572,323.800 191.950 C 323.571 191.490,323.433 190.775,323.493 190.362 C 323.554 189.949,323.508 189.670,323.390 189.743 C 323.273 189.815,323.177 189.714,323.177 189.518 C 323.177 189.322,322.768 188.482,322.268 187.652 C 321.767 186.821,321.418 186.045,321.491 185.927 C 321.563 185.809,321.504 185.639,321.358 185.550 C 321.213 185.460,321.090 185.598,321.085 185.857 C 321.078 186.290,321.046 186.287,320.684 185.807 C 320.467 185.521,320.235 185.320,320.168 185.361 C 320.101 185.402,319.441 185.255,318.700 185.035 C 317.221 184.596,313.140 184.526,311.849 184.917 M265.079 185.026 C 264.685 185.026,264.879 215.832,265.273 215.929 C 265.538 215.994,267.132 216.040,268.815 216.031 C 270.498 216.023,271.875 216.110,271.875 216.226 C 271.875 216.342,272.020 216.347,272.197 216.238 C 272.617 215.978,279.167 215.955,279.167 216.213 C 279.167 216.322,279.393 216.269,279.670 216.096 C 280.549 215.548,280.574 211.319,279.699 211.247 C 279.347 211.218,278.943 211.078,278.801 210.936 C 278.658 210.794,278.419 210.679,278.268 210.681 C 278.109 210.683,278.125 210.768,278.306 210.883 C 278.562 211.046,272.626 211.124,271.019 210.979 C 270.593 210.941,270.557 210.594,270.586 206.771 L 270.618 202.604 271.499 202.604 C 272.178 202.604,272.345 202.694,272.228 202.998 C 272.121 203.279,272.197 203.346,272.496 203.231 C 272.726 203.143,272.864 202.990,272.803 202.892 C 272.743 202.794,273.784 202.733,275.117 202.758 C 278.230 202.816,278.151 202.885,278.151 200.142 C 278.151 197.322,278.498 197.567,274.408 197.500 C 272.513 197.469,270.889 197.433,270.797 197.420 C 270.541 197.383,270.670 196.509,270.964 196.293 C 271.125 196.175,271.100 196.100,270.898 196.098 C 270.656 196.095,270.574 195.282,270.577 192.904 C 270.580 190.748,270.663 189.840,270.833 190.104 C 270.995 190.355,271.087 190.380,271.090 190.175 C 271.093 189.938,272.253 189.838,275.586 189.785 L 280.078 189.714 280.078 187.370 L 280.078 185.026 272.592 185.026 C 268.474 185.026,265.094 185.026,265.079 185.026 M283.752 185.308 C 283.344 186.370,283.584 215.885,284.000 215.885 C 284.240 215.885,284.330 216.008,284.220 216.186 C 284.095 216.388,284.150 216.415,284.386 216.269 C 284.882 215.963,288.802 215.940,288.802 216.244 C 288.802 216.381,288.866 216.429,288.944 216.351 C 289.022 216.273,289.085 211.889,289.085 206.607 L 289.084 197.005 289.992 199.467 C 290.492 200.821,290.843 202.078,290.774 202.260 C 290.704 202.442,290.796 202.681,290.978 202.793 C 291.160 202.904,291.624 203.892,292.009 204.989 C 292.776 207.175,292.822 207.393,292.472 207.176 C 292.342 207.096,292.298 207.267,292.373 207.556 C 292.449 207.845,292.612 208.144,292.737 208.221 C 292.861 208.298,292.897 208.149,292.816 207.891 C 292.677 207.448,292.685 207.447,292.963 207.880 C 293.125 208.131,293.192 208.444,293.111 208.574 C 293.031 208.703,293.076 208.849,293.212 208.897 C 293.690 209.066,295.039 213.190,294.721 213.508 C 294.503 213.726,294.527 213.802,294.816 213.802 C 295.037 213.802,295.380 214.281,295.609 214.909 L 296.013 216.016 298.723 216.058 C 300.634 216.087,301.509 216.003,301.693 215.772 C 301.863 215.557,301.908 210.180,301.823 200.235 L 301.693 185.026 299.031 184.952 C 295.998 184.867,295.874 184.970,296.180 187.308 C 296.259 187.915,296.231 188.646,296.117 188.932 C 296.000 189.228,296.028 189.642,296.183 189.890 C 296.376 190.198,296.366 190.523,296.150 190.996 C 295.982 191.365,295.944 191.667,296.065 191.667 C 296.187 191.667,296.278 192.546,296.268 193.620 C 296.258 194.694,296.152 195.573,296.032 195.573 C 295.913 195.573,295.936 195.799,296.084 196.075 C 296.231 196.351,296.282 196.760,296.196 196.985 C 295.965 197.585,295.597 197.230,295.769 196.574 C 295.869 196.189,295.820 196.071,295.614 196.199 C 295.183 196.465,295.249 196.910,295.833 197.656 C 296.468 198.467,296.630 201.972,296.002 201.293 C 295.525 200.777,294.229 197.154,294.414 196.854 C 294.495 196.722,294.425 196.615,294.258 196.615 C 294.091 196.615,294.024 196.433,294.110 196.210 C 294.195 195.988,294.162 195.870,294.035 195.948 C 293.762 196.117,293.406 194.877,293.626 194.521 C 293.710 194.386,293.649 194.069,293.491 193.817 C 293.247 193.428,293.226 193.456,293.347 194.010 C 293.591 195.121,292.594 192.746,291.270 189.063 C 290.575 187.129,289.897 185.400,289.763 185.221 C 289.368 184.693,283.958 184.771,283.752 185.308 M327.344 185.156 C 327.067 185.335,327.051 185.410,327.289 185.413 C 327.728 185.418,327.674 191.404,327.236 191.410 C 327.052 191.413,327.060 191.482,327.259 191.609 C 327.669 191.869,327.650 199.525,327.239 199.801 C 327.040 199.934,327.049 199.993,327.270 199.996 C 327.641 200.001,327.671 204.791,327.304 205.518 C 327.179 205.765,327.183 206.020,327.311 206.100 C 327.437 206.178,327.545 208.347,327.550 210.921 C 327.555 213.495,327.634 215.724,327.727 215.873 C 327.838 216.052,330.347 216.146,335.032 216.146 C 343.297 216.146,342.708 216.365,342.708 213.283 C 342.708 212.112,342.804 211.487,342.969 211.589 C 343.112 211.677,343.229 211.620,343.229 211.462 C 343.229 211.304,343.024 211.210,342.773 211.252 C 342.492 211.299,342.348 211.187,342.398 210.959 C 342.458 210.678,342.393 210.658,342.130 210.877 C 341.902 211.066,340.326 211.151,337.558 211.123 L 333.333 211.081 333.307 208.600 C 333.270 205.144,333.339 204.326,333.684 204.106 C 333.903 203.966,333.896 203.913,333.659 203.910 C 333.480 203.908,333.333 203.613,333.333 203.255 C 333.333 202.683,333.445 202.604,334.260 202.604 C 334.812 202.604,335.122 202.710,335.026 202.865 C 334.938 203.008,334.982 203.125,335.126 203.125 C 335.269 203.125,335.453 203.016,335.536 202.882 C 335.741 202.551,337.240 202.616,337.240 202.956 C 337.240 203.124,337.359 203.109,337.552 202.917 C 337.930 202.538,339.424 202.491,339.193 202.865 C 339.104 203.008,339.156 203.125,339.308 203.125 C 339.459 203.125,339.583 203.008,339.583 202.865 C 339.583 202.721,339.671 202.618,339.779 202.635 C 340.582 202.762,340.643 202.568,340.569 200.089 C 340.482 197.141,340.871 197.392,336.393 197.392 L 333.333 197.392 333.315 196.548 C 333.230 192.508,333.318 190.826,333.635 190.435 C 333.883 190.130,333.890 190.061,333.659 190.200 C 333.480 190.307,333.333 190.271,333.333 190.120 C 333.333 189.936,334.852 189.844,337.873 189.844 C 341.988 189.844,342.427 189.801,342.559 189.383 C 342.745 188.798,342.572 185.568,342.335 185.184 C 342.106 184.813,327.915 184.787,327.344 185.156 M252.409 185.336 C 252.660 185.401,253.070 185.401,253.320 185.336 C 253.571 185.270,253.366 185.217,252.865 185.217 C 252.363 185.217,252.158 185.270,252.409 185.336 M266.830 186.075 C 266.532 186.294,266.484 186.441,266.688 186.509 C 266.905 186.581,266.876 186.733,266.588 187.021 C 266.270 187.339,266.247 187.506,266.488 187.778 C 266.744 188.066,266.721 188.069,266.357 187.794 C 266.114 187.611,265.872 187.148,265.818 186.765 C 265.765 186.381,265.696 188.522,265.666 191.521 C 265.637 194.520,265.557 197.030,265.489 197.098 C 265.420 197.166,265.365 194.590,265.365 191.372 L 265.365 185.521 266.323 185.633 C 267.171 185.732,267.230 185.783,266.830 186.075 M256.264 186.413 C 259.467 188.448,259.905 189.794,259.870 197.508 C 259.856 200.669,259.765 202.973,259.668 202.628 C 259.496 202.012,258.556 201.584,258.667 202.173 C 258.698 202.338,258.577 202.445,258.398 202.409 C 258.219 202.373,258.073 202.538,258.073 202.775 C 258.073 203.176,258.106 203.176,258.550 202.774 C 258.812 202.537,259.105 202.421,259.201 202.517 C 259.514 202.830,259.384 203.112,258.995 202.963 C 258.720 202.857,258.643 202.968,258.719 203.362 C 258.857 204.077,258.498 204.056,258.003 203.320 C 257.527 202.613,257.047 202.934,257.499 203.658 C 257.762 204.078,257.749 204.167,257.424 204.167 C 257.208 204.167,257.045 204.079,257.062 203.971 C 257.139 203.485,257.008 203.125,256.755 203.125 C 256.604 203.125,256.531 203.213,256.593 203.320 C 256.655 203.428,256.603 203.750,256.479 204.036 C 256.313 204.417,256.271 204.258,256.323 203.445 C 256.376 202.628,256.307 202.366,256.062 202.460 C 255.648 202.619,255.629 202.288,256.029 201.887 C 256.242 201.675,256.477 201.666,256.830 201.855 C 257.283 202.097,257.303 202.070,257.033 201.565 C 256.794 201.119,256.660 201.070,256.362 201.317 C 256.097 201.537,255.990 201.542,255.990 201.334 C 255.990 201.173,255.858 201.042,255.697 201.042 C 255.484 201.042,255.483 201.135,255.691 201.386 C 255.866 201.597,255.884 201.825,255.737 201.972 C 255.605 202.105,255.454 202.917,255.402 203.776 C 255.350 204.635,255.285 202.842,255.258 199.790 C 255.193 192.510,254.749 190.799,252.704 189.944 C 251.768 189.553,248.057 189.439,248.286 189.809 C 248.363 189.933,249.190 189.986,250.124 189.927 C 254.491 189.649,255.070 191.048,254.902 201.453 C 254.791 208.319,254.561 209.884,253.694 209.701 C 253.524 209.665,253.399 209.723,253.416 209.831 C 253.512 210.436,253.287 210.680,252.409 210.924 C 251.005 211.314,248.492 211.281,248.507 210.872 C 248.514 210.693,248.474 205.977,248.418 200.391 L 248.316 190.234 248.182 200.781 L 248.047 211.328 249.001 211.407 C 250.280 211.513,250.686 213.057,249.518 213.367 C 249.157 213.463,249.164 213.486,249.563 213.511 C 249.858 213.530,250.006 213.706,249.954 213.973 C 249.865 214.426,249.052 214.685,248.832 214.329 C 248.762 214.215,248.263 214.279,247.724 214.471 C 246.593 214.875,246.006 214.936,246.195 214.630 C 246.267 214.513,245.952 214.475,245.494 214.546 C 244.688 214.671,244.682 214.681,245.313 214.854 C 245.887 215.011,245.840 215.047,244.922 215.156 C 244.147 215.248,244.296 215.282,245.502 215.288 C 246.394 215.293,247.061 215.195,246.984 215.070 C 246.907 214.946,246.968 214.844,247.120 214.844 C 247.272 214.844,247.396 214.956,247.396 215.093 C 247.396 215.230,248.245 215.385,249.284 215.437 C 250.322 215.490,249.386 215.542,247.203 215.554 L 243.235 215.576 243.164 204.989 L 243.093 194.401 243.031 205.143 L 242.969 215.885 247.201 215.915 C 249.528 215.931,252.135 215.916,252.995 215.882 C 253.854 215.848,254.882 215.818,255.280 215.815 C 255.677 215.813,255.946 215.755,255.878 215.687 C 255.697 215.506,256.292 214.970,257.193 214.504 C 258.064 214.054,259.183 212.511,259.848 210.847 C 260.317 209.671,260.592 192.497,260.155 191.667 C 260.042 191.452,259.909 190.983,259.860 190.625 C 259.812 190.267,259.387 189.352,258.916 188.592 C 258.445 187.832,258.140 187.081,258.237 186.924 C 258.343 186.754,258.294 186.712,258.117 186.822 C 257.953 186.923,257.310 186.707,256.686 186.341 C 255.150 185.441,254.821 185.496,256.264 186.413 M243.067 191.146 C 243.067 192.793,243.110 193.467,243.161 192.643 C 243.213 191.820,243.213 190.472,243.161 189.648 C 243.110 188.825,243.067 189.499,243.067 191.146 M255.567 199.120 C 255.590 200.069,255.693 200.417,255.924 200.329 C 256.329 200.174,256.354 199.740,255.958 199.740 C 255.756 199.740,255.766 199.619,255.990 199.349 C 256.190 199.107,256.209 198.958,256.040 198.958 C 255.889 198.958,255.714 198.695,255.650 198.372 C 255.587 198.050,255.550 198.386,255.567 199.120 M312.300 198.958 C 312.300 199.460,312.354 199.665,312.419 199.414 C 312.485 199.163,312.485 198.753,312.419 198.503 C 312.354 198.252,312.300 198.457,312.300 198.958 M257.687 200.776 C 257.326 201.175,257.288 201.375,257.519 201.653 C 257.840 202.039,257.290 202.777,256.942 202.428 C 256.848 202.334,256.771 202.394,256.771 202.561 C 256.771 203.560,258.186 202.061,258.228 201.017 C 258.265 200.118,258.277 200.124,257.687 200.776 M259.860 204.362 C 259.838 204.974,259.783 205.118,259.712 204.749 C 259.649 204.424,259.481 204.232,259.337 204.320 C 259.194 204.409,259.230 204.235,259.418 203.934 C 259.875 203.202,259.902 203.227,259.860 204.362 M312.305 207.422 C 312.308 207.995,312.361 208.199,312.424 207.875 C 312.486 207.551,312.484 207.082,312.419 206.833 C 312.353 206.584,312.302 206.849,312.305 207.422 M248.727 213.116 C 248.412 213.496,249.056 214.312,249.399 213.969 C 249.491 213.877,249.416 213.802,249.232 213.802 C 249.026 213.802,248.950 213.602,249.034 213.281 C 249.194 212.668,249.128 212.633,248.727 213.116 M231.893 214.930 C 231.969 215.193,232.031 215.515,232.031 215.646 C 232.031 215.780,233.264 215.861,234.831 215.830 L 237.630 215.776 234.997 215.692 C 232.587 215.615,232.338 215.559,232.059 215.030 C 231.868 214.669,231.806 214.631,231.893 214.930 M309.857 215.381 C 309.958 215.686,309.908 215.695,309.589 215.432 C 309.373 215.254,309.101 215.196,308.984 215.302 C 308.867 215.408,308.859 215.342,308.966 215.156 C 309.204 214.745,309.687 214.867,309.857 215.381 M212.956 215.809 C 213.278 215.871,213.805 215.871,214.128 215.809 C 214.450 215.747,214.186 215.696,213.542 215.696 C 212.897 215.696,212.633 215.747,212.956 215.809 M221.810 215.816 C 222.419 215.871,223.415 215.871,224.023 215.816 C 224.632 215.761,224.134 215.716,222.917 215.716 C 221.699 215.716,221.201 215.761,221.810 215.816 " stroke="none" fill="#2f80f8" fill-rule="evenodd"></path><path id="path2" d="M109.505 78.031 C 98.326 80.317,90.593 87.293,88.095 97.347 C 87.667 99.068,87.576 99.217,86.953 99.218 C 84.198 99.222,83.084 101.632,83.343 107.031 C 83.353 107.246,83.350 108.125,83.336 108.984 C 83.323 109.844,83.429 111.363,83.571 112.362 C 83.745 113.573,83.744 114.230,83.570 114.338 C 83.412 114.435,83.470 114.633,83.718 114.838 C 84.069 115.130,84.104 115.108,83.966 114.685 C 83.845 114.313,83.933 114.349,84.330 114.836 C 84.619 115.191,84.814 115.546,84.764 115.627 C 84.714 115.708,84.870 115.793,85.110 115.817 C 87.044 116.011,88.314 116.249,88.432 116.440 C 88.654 116.799,89.114 116.703,88.909 116.341 C 88.788 116.126,88.812 116.104,88.981 116.276 C 89.388 116.693,90.374 119.306,90.218 119.558 C 90.140 119.684,90.205 119.994,90.363 120.245 C 90.604 120.630,90.623 120.599,90.482 120.052 C 90.383 119.665,90.687 119.979,91.231 120.826 C 91.734 121.610,92.079 122.361,91.997 122.494 C 91.914 122.628,91.963 122.665,92.106 122.576 C 92.498 122.334,94.108 124.110,93.926 124.584 C 93.842 124.804,93.876 125.047,94.002 125.125 C 94.128 125.203,94.270 125.070,94.316 124.829 C 94.390 124.451,94.500 124.477,95.130 125.021 L 95.858 125.651 94.239 126.823 C 93.349 127.467,92.514 127.963,92.384 127.923 C 92.255 127.884,92.212 127.953,92.288 128.077 C 92.365 128.201,92.022 128.696,91.526 129.176 C 91.031 129.657,90.625 129.954,90.625 129.837 C 90.625 129.720,90.468 129.754,90.276 129.914 C 90.083 130.073,89.868 130.146,89.798 130.076 C 89.728 130.005,89.670 130.122,89.670 130.334 C 89.670 130.627,89.755 130.651,90.017 130.433 C 90.259 130.232,90.365 130.229,90.365 130.424 C 90.365 130.578,90.160 130.823,89.909 130.969 C 89.658 131.115,89.559 131.238,89.689 131.242 C 89.818 131.246,89.751 131.455,89.538 131.706 C 88.745 132.642,87.906 134.349,86.465 137.956 C 85.650 139.997,84.886 141.579,84.767 141.471 C 84.649 141.364,84.633 141.418,84.733 141.592 C 85.024 142.098,83.604 144.697,83.284 144.246 C 83.084 143.965,83.061 143.994,83.183 144.370 C 83.365 144.927,82.199 146.646,81.707 146.546 C 81.540 146.512,81.399 146.655,81.392 146.864 C 81.372 147.504,78.900 149.169,76.467 150.181 C 74.085 151.171,71.875 152.475,71.875 152.889 C 71.875 153.019,71.494 153.133,71.029 153.143 C 70.230 153.159,70.216 153.176,70.768 153.443 C 72.147 154.108,71.303 155.135,69.263 155.275 L 67.839 155.372 69.278 155.421 L 70.717 155.469 70.616 156.528 C 70.294 159.907,72.974 163.024,76.563 163.443 C 77.064 163.501,77.614 163.567,77.785 163.589 C 78.092 163.628,77.769 164.583,77.449 164.583 C 77.374 164.583,77.385 164.466,77.474 164.323 C 77.562 164.180,77.503 164.063,77.342 164.063 C 77.164 164.063,77.115 164.274,77.218 164.596 C 77.311 164.889,77.269 165.272,77.124 165.446 C 73.692 169.581,79.656 175.716,89.063 177.727 C 91.716 178.295,91.814 178.307,97.526 178.780 C 98.242 178.839,100.264 178.969,102.018 179.067 L 105.208 179.246 105.208 178.266 C 105.208 176.848,106.626 174.368,108.461 172.576 L 110.020 171.052 109.112 170.280 C 102.449 164.619,92.478 160.850,85.316 161.285 L 82.742 161.441 84.244 160.536 C 91.821 155.974,94.823 151.403,95.933 142.738 C 96.341 139.550,96.748 138.691,97.596 139.225 C 98.009 139.486,98.053 140.351,98.115 149.442 L 98.183 159.375 114.196 159.375 L 130.208 159.375 130.208 149.341 C 130.208 140.554,130.258 139.287,130.609 139.153 C 131.458 138.827,131.916 139.741,132.252 142.433 C 133.318 150.976,136.549 156.174,143.331 160.258 L 144.783 161.133 141.076 161.270 C 134.318 161.519,124.909 165.199,120.768 169.211 C 119.551 170.391,119.545 170.349,120.999 171.056 C 123.934 172.482,127.283 177.009,126.427 178.394 C 126.340 178.535,126.347 178.899,126.444 179.203 C 126.540 179.508,126.695 179.636,126.786 179.490 C 126.878 179.343,128.301 179.151,129.948 179.064 C 144.748 178.278,154.141 172.807,151.855 166.305 C 151.559 165.461,151.390 164.652,151.480 164.507 C 151.569 164.361,151.531 164.312,151.394 164.396 C 151.258 164.481,151.011 164.334,150.847 164.070 C 150.576 163.637,150.624 163.603,151.343 163.717 C 151.929 163.809,152.087 163.758,151.940 163.521 C 151.798 163.290,151.901 163.241,152.303 163.346 C 152.612 163.427,152.814 163.410,152.751 163.309 C 152.689 163.208,153.150 162.973,153.775 162.789 C 156.855 161.879,158.703 158.099,157.671 154.819 C 156.966 152.578,156.119 151.887,152.214 150.370 C 149.582 149.348,146.707 147.357,147.053 146.797 C 147.143 146.652,147.093 146.610,146.944 146.702 C 146.112 147.217,144.286 144.203,142.031 138.590 L 140.428 134.602 141.438 133.964 C 141.993 133.614,142.448 133.204,142.448 133.054 C 142.448 132.904,142.566 132.855,142.710 132.944 C 142.854 133.033,143.042 132.923,143.128 132.700 C 143.214 132.477,143.370 132.348,143.474 132.413 C 143.920 132.688,144.833 131.710,144.684 131.118 C 144.518 130.456,145.173 129.990,145.408 130.602 C 145.484 130.802,145.407 130.930,145.234 130.889 C 145.062 130.848,145.010 130.864,145.119 130.924 C 145.227 130.985,145.235 131.164,145.137 131.323 C 145.039 131.483,145.338 131.343,145.801 131.012 C 146.265 130.682,146.579 130.346,146.499 130.266 C 146.419 130.186,146.558 129.877,146.809 129.578 C 147.259 129.044,147.258 129.043,146.724 129.492 C 146.427 129.743,145.958 129.939,145.683 129.927 C 145.405 129.916,145.328 129.848,145.509 129.775 C 145.689 129.702,145.770 129.536,145.689 129.405 C 145.472 129.053,145.052 129.116,145.052 129.500 C 145.052 129.684,144.671 129.981,144.206 130.161 C 143.419 130.466,143.392 130.514,143.831 130.844 C 144.102 131.049,144.193 131.268,144.044 131.359 C 143.902 131.447,143.711 131.398,143.620 131.250 C 143.528 131.102,143.357 131.041,143.238 131.114 C 143.120 131.187,142.952 131.062,142.865 130.835 C 142.754 130.545,142.937 130.337,143.489 130.129 C 143.919 129.967,144.271 129.735,144.271 129.615 C 144.271 129.495,144.417 129.481,144.596 129.584 C 144.775 129.687,144.835 129.675,144.729 129.558 C 144.623 129.441,144.681 129.168,144.859 128.951 C 145.037 128.735,144.582 128.988,143.849 129.513 C 142.554 130.441,142.016 130.696,142.291 130.252 C 142.365 130.132,142.256 130.035,142.050 130.035 C 141.796 130.035,141.755 130.132,141.925 130.336 C 142.088 130.533,142.064 130.762,141.856 130.996 C 141.585 131.300,141.607 131.301,141.998 131.005 C 142.253 130.812,142.536 130.730,142.628 130.822 C 142.887 131.082,142.609 131.241,141.718 131.345 C 140.765 131.456,139.502 132.211,139.709 132.546 C 139.788 132.673,139.704 132.862,139.522 132.966 C 139.341 133.071,139.266 133.074,139.355 132.974 C 139.445 132.873,139.250 132.474,138.922 132.086 C 136.884 129.671,135.940 128.331,136.098 128.076 C 136.199 127.913,136.162 127.856,136.015 127.947 C 135.870 128.037,135.130 127.647,134.371 127.080 C 133.612 126.514,132.754 125.975,132.463 125.883 C 131.932 125.715,133.109 124.792,133.659 124.945 C 133.766 124.975,133.825 124.912,133.789 124.805 C 133.660 124.417,136.100 122.402,136.371 122.673 C 136.545 122.848,136.632 122.806,136.632 122.546 C 136.632 122.333,136.519 122.228,136.381 122.313 C 136.032 122.529,136.181 122.240,137.372 120.389 C 137.944 119.501,138.587 118.766,138.802 118.758 C 139.095 118.746,139.111 118.690,138.868 118.536 C 138.008 117.989,139.304 116.146,140.550 116.146 C 141.181 116.146,141.638 116.242,141.565 116.360 C 141.492 116.478,141.836 116.566,142.330 116.555 C 142.824 116.545,143.186 116.419,143.135 116.276 C 143.083 116.133,142.761 116.047,142.419 116.085 C 141.865 116.146,141.890 116.096,142.646 115.631 C 144.467 114.510,144.546 114.151,144.511 107.078 C 144.495 103.595,144.424 100.802,144.353 100.872 C 144.283 100.942,143.914 100.652,143.532 100.226 C 143.014 99.648,142.512 99.406,141.547 99.269 L 140.255 99.085 139.965 97.655 C 139.805 96.868,139.528 95.787,139.350 95.252 C 139.172 94.718,139.111 94.132,139.216 93.950 C 139.321 93.769,139.311 93.706,139.195 93.811 C 139.079 93.916,138.537 93.096,137.991 91.988 C 134.444 84.792,127.833 79.890,119.323 78.147 C 118.033 77.883,110.657 77.796,109.505 78.031 M118.489 89.974 C 130.168 92.431,136.584 104.637,131.631 114.974 C 125.567 127.627,105.884 128.838,98.177 117.032 C 89.409 103.600,102.209 86.549,118.489 89.974 M154.105 95.497 C 154.429 95.559,154.897 95.557,155.146 95.491 C 155.395 95.426,155.130 95.375,154.557 95.378 C 153.984 95.381,153.781 95.434,154.105 95.497 M145.850 97.551 L 145.216 97.883 145.850 98.040 C 146.199 98.127,146.953 98.088,147.526 97.953 C 148.181 97.799,148.344 97.699,147.965 97.682 C 147.633 97.668,147.164 97.558,146.923 97.438 C 146.656 97.305,146.236 97.349,145.850 97.551 M151.171 97.328 C 151.600 97.391,152.023 97.559,152.111 97.702 C 152.202 97.848,152.340 97.782,152.430 97.548 C 152.560 97.208,152.393 97.142,151.489 97.174 C 150.600 97.206,150.539 97.235,151.171 97.328 M152.796 97.461 C 152.709 97.686,153.002 97.796,153.744 97.818 C 154.600 97.843,154.660 97.820,154.036 97.704 C 153.268 97.561,153.273 97.555,154.297 97.384 L 155.339 97.209 154.129 97.172 C 153.373 97.149,152.874 97.257,152.796 97.461 M160.537 99.203 C 160.620 99.337,160.489 99.559,160.245 99.695 C 159.895 99.891,159.973 99.936,160.615 99.910 C 161.374 99.879,161.400 99.846,161.012 99.417 C 160.567 98.926,160.288 98.800,160.537 99.203 M165.946 105.990 C 165.946 106.491,165.999 106.696,166.065 106.445 C 166.130 106.195,166.130 105.785,166.065 105.534 C 165.999 105.283,165.946 105.488,165.946 105.990 M162.938 109.795 C 163.054 110.098,163.011 110.181,162.805 110.053 C 162.395 109.800,162.417 110.023,162.836 110.372 C 163.090 110.582,163.182 110.528,163.210 110.148 C 163.231 109.872,163.140 109.579,163.007 109.497 C 162.873 109.414,162.842 109.546,162.938 109.795 M162.019 110.872 C 161.993 111.123,161.967 111.536,161.960 111.789 C 161.953 112.043,161.846 112.188,161.721 112.111 C 161.596 112.034,161.427 112.079,161.345 112.212 C 161.263 112.345,161.401 112.424,161.652 112.387 C 161.904 112.351,162.126 112.097,162.146 111.824 C 162.166 111.551,162.267 111.123,162.369 110.872 C 162.472 110.622,162.446 110.417,162.311 110.417 C 162.176 110.417,162.045 110.622,162.019 110.872 M156.496 118.424 L 155.599 119.401 156.576 118.504 C 157.484 117.668,157.672 117.448,157.473 117.448 C 157.429 117.448,156.990 117.887,156.496 118.424 M156.889 121.159 L 155.859 122.266 156.966 121.236 C 157.995 120.279,158.193 120.052,157.996 120.052 C 157.953 120.052,157.455 120.550,156.889 121.159 M78.578 121.810 C 78.325 121.868,78.185 122.021,78.266 122.152 C 78.346 122.283,78.231 122.320,78.008 122.235 C 77.786 122.149,77.604 122.190,77.604 122.325 C 77.604 122.459,77.445 122.569,77.249 122.569 C 76.569 122.569,75.000 123.735,75.000 124.240 C 75.000 124.797,75.314 124.869,76.043 124.478 C 76.384 124.296,76.587 124.308,76.717 124.519 C 76.843 124.722,76.784 124.751,76.538 124.608 C 76.336 124.491,76.263 124.496,76.375 124.619 C 76.486 124.741,76.765 124.869,76.995 124.903 C 77.310 124.949,77.339 124.891,77.111 124.663 C 76.883 124.435,76.953 124.244,77.402 123.877 C 77.728 123.610,77.856 123.463,77.687 123.549 C 77.518 123.636,77.298 123.575,77.199 123.414 C 77.071 123.207,76.953 123.224,76.794 123.475 C 76.620 123.750,76.570 123.727,76.566 123.372 C 76.564 123.122,76.593 122.917,76.629 122.917 C 76.666 122.917,77.086 123.029,77.563 123.165 C 78.235 123.358,78.371 123.343,78.167 123.097 C 77.977 122.869,78.081 122.697,78.535 122.482 C 79.224 122.158,79.354 122.342,78.841 122.917 C 78.564 123.228,78.584 123.231,78.971 122.937 C 79.765 122.337,79.508 121.599,78.578 121.810 M154.158 123.893 L 152.734 125.391 154.232 123.967 C 155.055 123.184,155.729 122.511,155.729 122.470 C 155.729 122.277,155.480 122.502,154.158 123.893 M151.698 123.171 C 151.442 123.454,151.139 123.628,151.025 123.557 C 150.911 123.487,150.749 123.540,150.665 123.676 C 150.279 124.300,151.040 124.119,151.702 123.428 C 152.108 123.004,152.379 122.656,152.303 122.656 C 152.226 122.656,151.954 122.888,151.698 123.171 M74.066 124.515 C 73.949 124.706,73.991 124.750,74.179 124.634 C 74.344 124.532,74.479 124.566,74.479 124.709 C 74.479 124.852,74.360 125.043,74.215 125.133 C 74.069 125.223,74.012 125.397,74.088 125.520 C 74.223 125.739,73.238 126.195,72.852 126.093 C 72.744 126.065,72.656 126.139,72.656 126.259 C 72.656 126.699,73.000 126.797,73.537 126.511 C 74.034 126.246,74.053 126.260,73.731 126.650 C 73.535 126.888,73.476 127.077,73.601 127.069 C 73.726 127.061,74.121 126.685,74.479 126.232 C 74.837 125.780,74.979 125.504,74.794 125.618 C 74.541 125.774,74.498 125.666,74.620 125.180 C 74.792 124.495,74.383 124.003,74.066 124.515 M71.396 126.567 C 71.061 126.846,70.829 127.200,70.880 127.354 C 70.932 127.508,71.238 127.276,71.562 126.838 C 72.246 125.913,72.224 125.876,71.396 126.567 M146.875 127.245 C 145.393 128.405,144.868 128.978,146.141 128.046 C 147.215 127.260,147.791 127.139,147.557 127.748 C 147.463 127.994,147.510 128.085,147.677 127.982 C 147.828 127.888,147.884 127.633,147.800 127.415 C 147.716 127.196,147.781 126.856,147.944 126.660 C 148.400 126.111,148.153 126.246,146.875 127.245 M72.315 127.722 C 72.107 127.930,71.864 128.047,71.776 127.982 C 71.687 127.918,71.677 127.946,71.752 128.046 C 71.828 128.145,72.073 128.254,72.297 128.287 C 72.521 128.319,72.636 128.278,72.552 128.195 C 72.469 128.111,72.531 127.885,72.690 127.693 C 73.080 127.224,72.791 127.246,72.315 127.722 M69.257 131.182 C 68.763 131.718,68.661 131.893,69.030 131.571 C 69.398 131.248,69.779 131.044,69.876 131.117 C 69.973 131.190,69.995 131.173,69.924 131.079 C 69.854 130.984,69.927 130.750,70.086 130.558 C 70.710 129.806,70.105 130.261,69.257 131.182 M63.640 135.468 C 63.536 135.636,63.579 135.685,63.742 135.584 C 63.897 135.488,64.065 135.617,64.116 135.869 C 64.200 136.288,64.223 136.290,64.379 135.894 C 64.576 135.394,63.919 135.016,63.640 135.468 M68.337 136.134 C 64.825 138.118,63.970 142.530,66.636 144.903 C 67.058 145.278,67.117 145.455,66.871 145.607 C 66.648 145.746,66.708 145.807,67.061 145.799 C 67.691 145.786,69.586 146.473,69.408 146.651 C 69.338 146.721,70.008 146.692,70.898 146.588 C 71.787 146.483,72.623 146.464,72.756 146.546 C 72.889 146.628,72.914 146.560,72.811 146.394 C 72.706 146.225,72.776 146.094,72.972 146.094 C 74.292 146.094,76.306 143.086,76.296 141.129 C 76.287 139.227,74.356 136.198,73.153 136.198 C 73.006 136.198,72.940 136.110,73.006 136.003 C 73.279 135.557,69.153 135.673,68.337 136.134 M64.375 137.435 C 64.480 137.836,64.016 138.804,63.786 138.662 C 63.655 138.581,63.619 138.701,63.707 138.930 C 63.919 139.481,64.451 139.282,64.452 138.651 C 64.453 138.376,64.605 138.182,64.790 138.220 C 65.049 138.273,65.061 138.167,64.846 137.764 C 64.572 137.253,64.271 137.043,64.375 137.435 M120.378 140.636 L 121.094 141.414 121.094 146.699 C 121.094 153.627,121.775 152.963,114.705 152.926 L 109.028 152.896 108.355 152.223 C 107.693 151.561,107.681 151.482,107.590 147.107 C 107.437 139.688,107.446 139.679,114.740 139.785 L 119.661 139.857 120.378 140.636 M110.011 142.264 C 109.940 142.449,109.914 144.411,109.954 146.626 L 110.026 150.651 114.388 150.722 L 118.750 150.794 118.750 146.360 L 118.750 141.927 114.445 141.927 C 111.167 141.927,110.109 142.007,110.011 142.264 M61.966 145.384 C 62.093 146.457,62.099 146.463,62.187 145.605 C 62.237 145.121,62.178 144.626,62.057 144.505 C 61.936 144.384,61.895 144.779,61.966 145.384 M62.244 147.548 C 62.246 147.822,62.367 148.223,62.512 148.438 C 62.705 148.723,62.729 148.617,62.601 148.047 C 62.387 147.089,62.238 146.881,62.244 147.548 M63.542 150.365 C 63.542 150.397,63.921 150.768,64.384 151.188 C 64.932 151.686,65.046 151.739,64.709 151.340 C 64.425 151.003,64.251 150.662,64.323 150.583 C 64.395 150.505,64.248 150.410,63.997 150.373 C 63.747 150.337,63.542 150.333,63.542 150.365 M64.063 153.774 C 64.063 153.952,65.657 154.742,65.776 154.623 C 65.833 154.567,65.470 154.326,64.971 154.087 C 64.471 153.849,64.063 153.708,64.063 153.774 M132.979 154.818 C 132.887 155.056,132.978 155.208,133.211 155.208 C 133.422 155.208,133.594 155.033,133.594 154.818 C 133.594 154.603,133.489 154.427,133.361 154.427 C 133.233 154.427,133.061 154.603,132.979 154.818 M132.875 156.971 C 132.832 157.595,132.860 157.623,133.106 157.201 C 133.270 156.922,133.291 156.624,133.156 156.490 C 133.022 156.355,132.905 156.556,132.875 156.971 M132.843 158.756 L 132.813 159.569 135.286 159.615 C 136.781 159.643,137.760 159.559,137.760 159.403 C 137.760 159.261,137.526 159.190,137.240 159.245 C 136.953 159.300,136.717 159.205,136.715 159.035 C 136.712 158.825,136.648 158.814,136.519 159.000 C 136.278 159.349,134.084 159.374,134.300 159.026 C 134.390 158.879,134.318 158.859,134.126 158.978 C 133.935 159.096,133.688 159.030,133.540 158.822 C 133.351 158.558,133.329 158.600,133.454 158.984 C 133.564 159.321,133.536 159.413,133.374 159.245 C 133.236 159.102,133.067 158.750,132.998 158.464 C 132.914 158.113,132.863 158.209,132.843 158.756 M91.753 159.245 C 91.753 159.558,92.119 159.629,93.598 159.605 C 95.159 159.580,95.290 159.546,94.452 159.384 C 93.908 159.278,93.175 159.247,92.825 159.314 C 92.456 159.384,92.188 159.313,92.188 159.145 C 92.188 158.985,92.090 158.854,91.970 158.854 C 91.851 158.854,91.753 159.030,91.753 159.245 M100.022 161.821 C 100.081 161.877,101.279 162.518,102.683 163.246 C 105.909 164.918,108.358 166.559,110.441 168.443 L 112.075 169.922 114.397 169.830 L 116.719 169.737 119.266 167.607 C 121.687 165.583,125.211 163.365,127.400 162.488 C 129.186 161.772,128.251 161.719,113.976 161.719 C 106.241 161.719,99.962 161.765,100.022 161.821 M111.979 179.818 C 111.979 180.068,112.231 180.208,112.680 180.208 C 113.352 180.208,113.360 180.193,112.875 179.826 C 112.225 179.334,111.979 179.332,111.979 179.818 M123.624 181.880 C 123.148 182.240,122.743 183.472,123.191 183.195 C 123.326 183.111,123.438 182.927,123.438 182.786 C 123.438 182.079,124.073 181.854,124.535 182.397 L 125.000 182.943 124.780 182.305 C 124.510 181.524,124.229 181.421,123.624 181.880 M164.844 184.505 C 164.665 184.720,164.366 184.896,164.178 184.896 C 163.990 184.896,163.506 185.036,163.103 185.207 C 162.700 185.378,162.194 185.525,161.979 185.533 C 161.764 185.541,161.587 185.665,161.585 185.808 C 161.582 185.951,161.253 186.392,160.852 186.789 C 157.979 189.630,158.067 195.342,161.033 198.625 C 161.548 199.196,161.884 199.757,161.779 199.873 C 161.674 199.989,161.719 200.009,161.879 199.918 C 162.239 199.713,163.096 200.611,162.826 200.909 C 162.718 201.028,162.763 201.049,162.925 200.957 C 163.087 200.864,163.527 201.030,163.902 201.325 C 164.277 201.619,164.585 201.764,164.587 201.647 C 164.590 201.529,164.701 201.605,164.834 201.816 C 164.994 202.069,164.970 202.277,164.765 202.427 C 164.551 202.582,164.582 202.613,164.866 202.523 C 165.475 202.331,167.076 203.644,166.624 203.965 C 166.374 204.142,166.439 204.176,166.852 204.086 C 167.470 203.951,168.091 204.456,167.771 204.833 C 167.665 204.958,167.813 204.893,168.099 204.688 C 168.385 204.482,168.532 204.418,168.424 204.545 C 168.316 204.672,168.396 204.961,168.601 205.187 C 168.806 205.414,168.993 205.716,169.018 205.859 C 169.042 206.003,169.170 206.090,169.302 206.053 C 169.433 206.016,169.675 206.280,169.838 206.639 C 170.002 206.998,170.205 207.292,170.289 207.292 C 170.374 207.292,170.443 207.879,170.443 208.597 C 170.443 209.515,170.349 209.866,170.126 209.780 C 169.951 209.713,169.728 209.788,169.630 209.947 C 169.525 210.116,169.569 210.164,169.733 210.062 C 169.889 209.966,170.082 209.994,170.163 210.125 C 170.362 210.446,169.639 210.698,169.076 210.504 C 168.703 210.375,168.715 210.425,169.141 210.773 C 169.631 211.174,169.632 211.189,169.163 211.024 C 168.825 210.905,168.723 210.944,168.848 211.146 C 169.105 211.562,167.919 211.816,166.748 211.597 C 166.008 211.458,165.876 211.358,166.164 211.155 C 166.448 210.954,166.398 210.923,165.950 211.021 C 165.628 211.092,165.422 211.055,165.493 210.941 C 165.564 210.826,165.441 210.662,165.219 210.577 C 164.950 210.474,164.876 210.529,164.997 210.745 C 165.096 210.923,164.961 210.864,164.697 210.614 C 164.293 210.233,164.228 209.824,164.289 208.040 C 164.352 206.173,164.310 205.939,163.938 206.082 C 163.691 206.176,163.581 206.137,163.674 205.987 C 163.774 205.824,162.968 205.729,161.492 205.729 C 158.562 205.729,158.326 205.912,158.352 208.157 C 158.365 209.355,158.431 209.633,158.611 209.245 C 158.780 208.880,158.805 209.065,158.695 209.864 C 158.576 210.722,158.615 210.955,158.854 210.808 C 159.084 210.665,159.120 210.772,158.984 211.198 C 158.848 211.629,158.884 211.731,159.120 211.585 C 159.331 211.455,159.398 211.511,159.314 211.748 C 159.188 212.103,159.776 213.542,160.048 213.542 C 160.124 213.542,160.113 213.395,160.022 213.216 C 159.931 213.037,160.038 213.113,160.259 213.385 C 160.480 213.656,160.587 213.997,160.498 214.141 C 160.406 214.290,160.466 214.323,160.639 214.216 C 160.808 214.112,161.010 214.208,161.097 214.435 C 161.182 214.658,161.349 214.781,161.468 214.708 C 161.586 214.635,161.751 214.686,161.835 214.822 C 161.919 214.957,161.850 215.153,161.683 215.257 C 161.474 215.385,161.448 215.329,161.598 215.079 C 161.786 214.768,161.753 214.767,161.378 215.071 C 161.136 215.268,160.938 215.466,160.938 215.512 C 160.938 215.642,161.948 215.415,162.281 215.209 C 162.480 215.086,162.509 215.140,162.367 215.369 C 162.213 215.619,162.273 215.668,162.587 215.547 C 162.826 215.456,163.021 215.491,163.021 215.625 C 163.021 215.759,163.197 215.802,163.411 215.719 C 163.626 215.637,163.802 215.688,163.802 215.833 C 163.802 215.985,164.269 216.054,164.909 215.995 C 165.668 215.926,165.819 215.956,165.389 216.091 C 165.013 216.209,165.785 216.288,167.318 216.288 C 168.723 216.288,169.591 216.219,169.246 216.135 C 168.757 216.016,168.897 215.944,169.884 215.805 C 170.579 215.708,171.282 215.704,171.446 215.798 C 171.610 215.892,171.659 215.874,171.553 215.757 C 171.448 215.641,171.667 215.388,172.039 215.195 C 172.867 214.766,173.002 214.756,172.762 215.144 C 172.646 215.332,172.690 215.374,172.881 215.257 C 173.048 215.153,173.113 214.951,173.025 214.808 C 172.935 214.663,173.074 214.585,173.340 214.631 C 173.602 214.676,173.819 214.577,173.822 214.410 C 173.830 214.021,174.177 213.674,174.566 213.666 C 174.733 213.663,174.833 213.446,174.787 213.184 C 174.729 212.849,174.806 212.769,175.048 212.914 C 175.279 213.054,175.264 212.962,175.000 212.631 C 174.647 212.189,174.652 212.158,175.052 212.308 C 175.383 212.432,175.454 212.368,175.333 212.053 C 175.217 211.751,175.269 211.693,175.517 211.846 C 175.733 211.980,175.799 211.958,175.694 211.788 C 175.602 211.639,175.638 210.889,175.775 210.121 C 175.911 209.352,176.092 208.281,176.176 207.740 C 176.280 207.070,176.428 206.816,176.641 206.944 C 176.813 207.047,176.783 206.922,176.575 206.665 C 176.212 206.219,176.188 206.219,175.984 206.680 C 175.842 207.001,175.815 206.874,175.903 206.302 C 175.975 205.830,175.931 205.507,175.805 205.585 C 175.509 205.767,175.234 205.058,175.417 204.584 C 175.493 204.383,175.413 204.131,175.238 204.023 C 175.034 203.897,174.987 203.934,175.105 204.126 C 175.208 204.292,175.230 204.427,175.155 204.427 C 175.080 204.427,174.885 204.179,174.723 203.875 C 174.491 203.441,174.498 203.366,174.754 203.524 C 174.983 203.666,175.018 203.617,174.871 203.361 C 174.448 202.620,173.616 201.843,173.393 201.981 C 173.267 202.058,173.196 201.967,173.236 201.777 C 173.275 201.587,173.168 201.459,172.998 201.492 C 172.812 201.528,172.731 201.331,172.794 201.001 C 172.853 200.698,172.827 200.524,172.737 200.614 C 172.647 200.703,172.417 200.646,172.224 200.487 C 172.032 200.327,171.875 200.292,171.875 200.409 C 171.875 200.525,171.709 200.393,171.505 200.115 C 171.302 199.837,171.009 199.595,170.854 199.577 C 170.282 199.511,170.255 199.472,170.543 199.124 C 170.781 198.838,170.708 198.783,170.171 198.842 C 169.587 198.906,169.546 198.863,169.843 198.496 C 170.089 198.192,170.094 198.130,169.860 198.271 C 169.244 198.641,164.628 194.571,164.993 193.980 C 165.071 193.853,165.011 193.750,164.859 193.750 C 164.705 193.750,164.583 193.223,164.583 192.558 C 164.583 190.109,167.412 188.862,169.191 190.527 C 169.593 190.903,169.726 191.072,169.487 190.903 C 169.116 190.641,169.072 190.672,169.187 191.113 C 169.268 191.424,169.468 191.575,169.687 191.491 C 169.964 191.384,170.057 191.624,170.072 192.485 C 170.093 193.662,170.212 194.549,170.358 194.620 C 170.405 194.643,170.705 194.808,171.025 194.987 C 171.725 195.378,172.227 195.412,172.005 195.052 C 171.912 194.902,172.154 194.793,172.576 194.796 C 173.144 194.799,173.220 194.856,172.917 195.052 C 172.611 195.250,172.679 195.305,173.227 195.309 C 173.612 195.311,174.000 195.195,174.089 195.052 C 174.314 194.687,175.349 194.727,175.758 195.117 C 176.038 195.383,176.066 195.329,175.913 194.824 C 175.784 194.400,175.816 194.262,176.014 194.384 C 176.288 194.553,176.431 194.180,176.306 193.620 C 176.120 192.791,176.137 192.541,176.401 192.203 C 176.629 191.909,176.616 191.873,176.338 192.041 C 175.846 192.337,175.522 191.724,175.701 190.833 C 175.789 190.390,175.735 190.104,175.562 190.104 C 175.403 190.104,175.350 189.912,175.443 189.671 C 175.548 189.397,175.506 189.301,175.329 189.411 C 175.148 189.523,175.100 189.386,175.196 189.022 C 175.282 188.690,175.239 188.524,175.088 188.617 C 174.937 188.711,174.867 188.436,174.917 187.942 C 174.962 187.484,174.933 187.251,174.851 187.424 C 174.757 187.625,174.426 187.421,173.929 186.855 C 172.609 185.351,171.129 184.817,167.923 184.685 C 166.378 184.621,165.178 184.467,165.255 184.342 C 165.486 183.968,165.193 184.085,164.844 184.505 M270.676 184.418 C 270.603 184.538,270.783 184.635,271.078 184.635 C 271.373 184.635,271.615 184.538,271.615 184.418 C 271.615 184.299,271.434 184.201,271.213 184.201 C 270.991 184.201,270.750 184.299,270.676 184.418 M141.753 184.653 C 141.580 184.826,140.473 184.900,138.838 184.849 C 136.841 184.786,136.171 184.849,136.072 185.108 C 136.000 185.296,135.805 185.366,135.639 185.263 C 135.449 185.146,135.407 185.190,135.525 185.381 C 135.628 185.548,135.822 185.618,135.955 185.536 C 136.103 185.445,136.198 188.399,136.198 193.084 C 136.198 198.042,136.105 200.781,135.938 200.781 C 135.794 200.781,135.677 200.905,135.677 201.057 C 135.677 201.209,135.794 201.260,135.938 201.172 C 136.092 201.076,136.198 201.386,136.198 201.938 C 136.198 202.448,136.081 202.865,135.938 202.865 C 135.794 202.865,135.677 202.989,135.677 203.140 C 135.677 203.292,135.794 203.344,135.938 203.255 C 136.108 203.150,136.198 205.254,136.198 209.375 C 136.198 213.496,136.108 215.600,135.938 215.495 C 135.794 215.406,135.677 215.445,135.677 215.582 C 135.677 215.858,136.295 216.146,136.886 216.146 C 137.097 216.146,137.198 216.029,137.109 215.885 C 137.006 215.718,137.771 215.638,139.242 215.662 C 141.041 215.691,141.311 215.739,140.495 215.885 L 139.453 216.072 140.414 216.109 C 141.722 216.159,141.640 216.763,141.685 206.668 C 141.707 201.696,141.769 197.672,141.824 197.727 C 142.209 198.111,146.085 209.512,145.963 209.898 C 145.875 210.176,145.966 210.469,146.178 210.593 C 146.381 210.711,146.628 211.100,146.728 211.458 C 146.866 211.955,146.844 212.017,146.636 211.719 C 146.400 211.382,146.362 211.391,146.358 211.784 C 146.356 212.035,146.523 212.240,146.730 212.240 C 146.964 212.240,147.318 212.901,147.671 213.997 L 148.237 215.755 151.227 215.674 C 153.637 215.608,154.180 215.659,154.024 215.934 C 153.883 216.182,153.913 216.200,154.131 216.001 C 154.353 215.797,154.414 211.723,154.364 200.376 L 154.297 185.026 151.540 184.896 C 149.214 184.786,148.779 184.827,148.754 185.156 C 148.738 185.371,148.722 188.330,148.718 191.732 C 148.713 196.569,148.639 197.918,148.379 197.921 C 148.163 197.923,148.143 197.992,148.320 198.116 C 148.470 198.221,148.617 198.675,148.647 199.125 C 148.715 200.145,148.008 200.546,147.687 199.670 C 147.570 199.350,147.197 198.306,146.858 197.350 C 146.519 196.394,146.152 195.667,146.041 195.736 C 145.930 195.804,145.901 195.699,145.977 195.502 C 146.053 195.305,145.873 194.579,145.577 193.890 C 145.279 193.194,145.108 192.392,145.193 192.086 C 145.286 191.753,145.260 191.659,145.128 191.848 C 144.989 192.045,144.476 190.950,143.724 188.853 C 142.571 185.635,142.554 185.542,143.080 185.378 C 143.377 185.284,143.503 185.183,143.359 185.152 C 143.216 185.121,142.982 185.069,142.839 185.036 C 142.695 185.002,142.425 184.957,142.237 184.935 C 142.050 184.914,141.969 184.779,142.057 184.635 C 142.269 184.293,142.103 184.303,141.753 184.653 M189.974 184.665 C 189.544 184.799,188.435 184.855,187.509 184.787 C 186.321 184.701,185.937 184.743,186.207 184.930 C 186.480 185.120,186.303 185.148,185.586 185.029 C 185.015 184.934,184.646 184.963,184.729 185.097 C 184.966 185.480,183.218 186.194,182.789 185.889 C 182.512 185.692,182.549 185.670,182.943 185.798 C 183.351 185.932,183.396 185.900,183.149 185.651 C 182.808 185.308,181.914 185.797,182.158 186.193 C 182.225 186.300,182.044 186.602,181.756 186.862 C 180.935 187.605,180.143 189.036,180.310 189.473 C 180.396 189.696,180.352 189.802,180.209 189.714 C 180.054 189.618,180.011 189.892,180.098 190.417 L 180.240 191.276 179.823 190.625 L 179.405 189.974 179.574 190.593 C 179.703 191.062,179.658 191.167,179.390 191.029 C 179.195 190.929,179.242 191.015,179.492 191.220 C 179.909 191.562,179.952 192.373,179.990 200.680 C 180.014 205.677,180.102 209.121,180.186 208.333 C 180.319 207.084,180.405 206.912,180.859 206.991 C 181.146 207.040,181.293 206.993,181.187 206.885 C 180.830 206.522,181.538 205.949,181.936 206.279 C 182.197 206.496,182.292 206.496,182.292 206.282 C 182.292 206.121,182.168 205.990,182.016 205.990 C 181.864 205.990,181.814 205.870,181.904 205.725 C 181.994 205.579,182.194 205.539,182.350 205.635 C 182.519 205.739,182.558 205.688,182.447 205.509 C 182.187 205.089,182.615 205.134,183.218 205.591 C 183.496 205.801,183.841 205.975,183.984 205.977 C 184.128 205.980,184.069 205.868,183.854 205.729 C 183.636 205.588,183.596 205.475,183.765 205.473 C 183.948 205.470,184.007 205.239,183.915 204.883 C 183.789 204.393,183.826 204.348,184.144 204.608 C 184.568 204.955,184.607 204.794,184.650 202.506 C 184.684 200.697,185.110 201.351,185.223 203.385 C 185.274 204.316,185.339 202.061,185.366 198.372 C 185.405 193.211,185.492 191.666,185.742 191.663 C 185.964 191.660,185.947 191.582,185.687 191.418 C 184.894 190.916,187.074 189.295,188.464 189.354 L 189.193 189.385 188.411 189.605 C 187.774 189.785,187.853 189.805,188.835 189.714 C 189.795 189.625,190.135 189.706,190.503 190.114 C 190.758 190.395,190.860 190.629,190.730 190.633 C 190.601 190.637,190.707 190.764,190.966 190.915 C 191.329 191.126,191.401 191.380,191.276 192.014 C 191.160 192.607,191.187 192.731,191.375 192.458 C 191.567 192.178,191.657 192.453,191.716 193.499 L 191.797 194.922 193.674 194.945 C 194.707 194.958,195.491 194.870,195.417 194.750 C 195.342 194.630,195.406 194.531,195.558 194.531 C 195.709 194.531,195.833 194.648,195.833 194.792 C 195.833 195.178,196.413 195.092,197.005 194.618 C 197.382 194.316,197.407 194.241,197.096 194.348 C 196.803 194.448,196.617 194.314,196.514 193.927 C 196.295 193.110,196.319 191.614,196.549 191.757 C 196.657 191.823,196.763 191.577,196.785 191.211 C 196.809 190.802,196.747 190.671,196.623 190.871 C 196.495 191.079,196.357 190.855,196.245 190.256 C 196.148 189.738,196.151 189.181,196.252 189.018 C 196.362 188.840,196.319 188.793,196.145 188.901 C 195.978 189.004,195.693 188.764,195.471 188.335 C 195.046 187.514,193.126 185.677,192.692 185.677 C 192.541 185.677,192.497 185.547,192.595 185.389 C 192.717 185.192,192.587 185.160,192.188 185.286 C 191.782 185.415,191.658 185.382,191.783 185.178 C 191.912 184.970,191.636 184.921,190.839 185.011 C 190.220 185.082,189.948 185.073,190.234 184.992 C 190.806 184.831,191.414 184.360,191.003 184.397 C 190.867 184.410,190.404 184.530,189.974 184.665 M212.500 184.617 C 212.500 184.751,212.236 184.910,211.914 184.972 C 211.412 185.069,211.430 185.090,212.044 185.121 C 212.523 185.144,212.760 185.027,212.760 184.766 C 212.760 184.551,212.702 184.375,212.630 184.375 C 212.559 184.375,212.500 184.484,212.500 184.617 M105.794 184.791 C 105.880 184.930,103.533 184.988,100.073 184.932 C 95.331 184.856,94.165 184.906,93.986 185.193 C 93.691 185.666,93.735 215.442,94.031 215.910 C 94.159 216.111,94.265 216.155,94.267 216.007 C 94.271 215.715,95.459 215.685,95.745 215.970 C 95.841 216.067,96.399 216.128,96.984 216.107 L 98.047 216.068 96.875 215.885 L 95.703 215.703 96.683 215.664 C 97.222 215.643,97.881 215.761,98.146 215.927 C 98.435 216.107,98.826 216.142,99.119 216.015 C 99.389 215.898,99.717 215.828,99.849 215.859 C 99.980 215.890,99.922 215.710,99.719 215.459 C 99.428 215.101,99.424 215.049,99.702 215.217 C 99.977 215.382,100.013 215.295,99.864 214.825 C 99.534 213.784,99.490 211.955,99.801 212.147 C 99.985 212.261,100.003 212.195,99.853 211.954 C 99.573 211.503,99.523 205.208,99.800 205.208 C 99.910 205.208,100.000 205.084,100.000 204.933 C 100.000 204.781,99.883 204.729,99.740 204.818 C 99.596 204.906,99.479 204.808,99.479 204.601 C 99.479 203.735,101.406 203.647,101.858 204.492 C 102.030 204.814,102.143 205.078,102.109 205.078 C 102.075 205.078,102.157 205.371,102.292 205.729 C 103.714 209.507,104.406 211.745,104.275 212.147 C 104.169 212.471,104.194 212.524,104.351 212.307 C 104.646 211.900,105.332 213.652,105.054 214.101 C 104.945 214.278,104.981 214.333,105.140 214.235 C 105.292 214.141,105.486 214.354,105.576 214.715 C 105.666 215.072,105.861 215.365,106.010 215.365 C 106.159 215.365,106.226 215.452,106.159 215.560 C 106.092 215.667,107.052 215.739,108.292 215.719 C 110.060 215.690,110.294 215.724,109.375 215.875 C 108.281 216.055,108.328 216.070,110.082 216.107 C 111.752 216.141,111.994 216.084,112.256 215.594 C 112.440 215.251,112.449 215.105,112.282 215.208 C 112.124 215.306,111.774 214.725,111.441 213.813 C 111.107 212.895,110.759 212.319,110.600 212.418 C 110.433 212.520,110.391 212.421,110.491 212.160 C 110.581 211.927,110.305 210.887,109.877 209.851 C 109.450 208.814,109.157 207.817,109.227 207.636 C 109.296 207.454,109.203 207.214,109.020 207.103 C 108.092 206.541,107.057 202.604,107.836 202.604 C 108.046 202.604,108.033 202.741,107.792 203.060 C 107.494 203.453,107.499 203.469,107.825 203.177 C 108.033 202.991,108.203 202.754,108.203 202.650 C 108.203 202.546,108.533 202.113,108.936 201.686 C 110.626 199.900,111.192 197.776,111.134 193.438 C 111.111 191.748,111.023 190.365,110.937 190.365 C 110.649 190.365,110.179 188.678,110.263 187.947 C 110.309 187.549,110.286 187.284,110.210 187.359 C 110.135 187.434,109.896 187.350,109.679 187.172 C 109.393 186.938,109.415 187.064,109.762 187.630 C 110.191 188.333,110.159 188.319,109.445 187.493 C 109.009 186.988,108.057 186.296,107.330 185.955 C 106.603 185.615,106.065 185.245,106.133 185.134 C 106.202 185.023,106.121 184.847,105.954 184.743 C 105.786 184.640,105.714 184.661,105.794 184.791 M74.284 185.108 C 73.094 185.222,72.568 186.883,73.041 189.035 L 73.205 189.784 76.112 189.827 C 77.711 189.851,79.062 189.913,79.115 189.965 C 79.167 190.018,79.230 195.832,79.253 202.885 L 79.297 215.709 81.290 215.651 C 82.478 215.616,83.351 215.704,83.453 215.869 C 83.723 216.305,84.908 216.219,84.738 215.776 C 84.660 215.573,84.787 215.115,85.020 214.759 C 85.301 214.330,85.352 214.053,85.170 213.941 C 84.867 213.754,84.771 204.379,85.069 204.080 C 85.346 203.804,85.405 202.604,85.142 202.604 C 84.861 202.604,84.859 190.158,85.140 189.984 C 85.242 189.921,86.665 189.851,88.301 189.828 L 91.276 189.788 91.146 187.598 C 91.074 186.394,90.986 185.323,90.949 185.218 C 90.886 185.035,76.051 184.937,74.284 185.108 M120.451 185.143 C 120.293 185.399,119.641 188.285,118.699 192.904 C 118.399 194.372,118.047 195.573,117.916 195.573 C 117.785 195.573,117.746 195.683,117.829 195.818 C 118.053 196.181,117.680 198.190,117.418 198.029 C 117.295 197.952,117.254 198.046,117.327 198.237 C 117.508 198.709,115.125 210.003,114.821 210.113 C 114.689 210.161,114.647 210.309,114.729 210.442 C 114.870 210.669,114.142 214.459,113.866 214.937 C 113.795 215.059,113.636 215.001,113.513 214.806 C 113.390 214.612,113.287 214.578,113.285 214.730 C 113.269 215.879,115.045 216.375,118.359 216.147 C 119.362 216.078,119.402 216.000,119.923 213.108 C 120.435 210.264,120.349 210.345,122.916 210.287 C 124.013 210.262,125.035 210.165,125.186 210.072 C 125.338 209.978,125.616 210.087,125.805 210.315 C 126.115 210.688,126.164 210.682,126.321 210.247 C 126.432 209.940,126.614 210.497,126.825 211.784 C 127.006 212.894,127.238 213.802,127.340 213.802 C 127.441 213.802,127.507 214.317,127.486 214.945 L 127.447 216.089 130.368 216.129 C 131.974 216.151,133.343 216.076,133.410 215.962 C 133.606 215.630,131.382 205.424,131.162 205.644 C 131.052 205.754,131.033 205.658,131.120 205.432 C 131.207 205.206,130.916 203.282,130.474 201.157 C 130.033 199.032,129.730 197.141,129.801 196.954 C 129.873 196.767,129.831 196.615,129.707 196.615 C 129.384 196.615,128.953 193.796,129.100 192.643 C 129.194 191.897,129.132 191.667,128.837 191.667 C 128.386 191.667,127.414 187.237,127.746 186.699 C 127.874 186.493,127.838 186.444,127.644 186.564 C 127.456 186.680,127.344 186.557,127.344 186.235 C 127.344 184.940,127.227 184.896,123.816 184.896 C 122.049 184.896,120.535 185.007,120.451 185.143 M202.409 185.082 C 202.803 185.142,203.447 185.142,203.841 185.082 C 204.235 185.023,203.913 184.974,203.125 184.974 C 202.337 184.974,202.015 185.023,202.409 185.082 M205.802 185.088 C 206.487 185.141,207.541 185.141,208.146 185.086 C 208.750 185.032,208.190 184.987,206.901 184.988 C 205.612 184.989,205.117 185.034,205.802 185.088 M213.477 185.080 C 213.799 185.142,214.326 185.142,214.648 185.080 C 214.971 185.018,214.707 184.967,214.063 184.967 C 213.418 184.967,213.154 185.018,213.477 185.080 M201.302 186.380 C 201.302 186.757,201.335 187.017,201.376 186.957 C 201.416 186.898,201.595 186.658,201.773 186.424 C 202.037 186.077,202.023 185.970,201.699 185.846 C 201.405 185.733,201.302 185.872,201.302 186.380 M202.344 186.068 C 202.344 186.283,202.468 186.458,202.620 186.458 C 202.771 186.458,202.813 186.605,202.712 186.784 C 202.595 186.990,202.662 186.978,202.891 186.751 C 203.174 186.473,203.182 186.367,202.928 186.273 C 202.748 186.207,202.667 186.046,202.748 185.915 C 202.829 185.784,202.771 185.677,202.620 185.677 C 202.468 185.677,202.344 185.853,202.344 186.068 M182.134 187.008 C 181.737 187.422,181.354 187.760,181.283 187.760 C 181.211 187.760,181.469 187.430,181.856 187.026 C 182.243 186.622,182.470 186.193,182.360 186.073 C 182.251 185.953,182.318 185.944,182.508 186.055 C 182.774 186.208,182.686 186.432,182.134 187.008 M216.212 187.370 C 216.214 187.943,216.268 188.146,216.330 187.822 C 216.392 187.499,216.390 187.030,216.325 186.781 C 216.260 186.532,216.209 186.797,216.212 187.370 M204.115 187.118 C 203.970 187.263,202.965 187.526,202.409 187.564 C 201.617 187.619,202.497 188.828,203.303 188.793 C 203.420 188.788,203.232 188.627,202.886 188.435 C 202.270 188.093,202.267 188.080,202.781 187.805 C 203.151 187.607,203.387 187.606,203.582 187.801 C 203.776 187.995,203.945 187.915,204.152 187.528 C 204.431 187.006,204.414 186.818,204.115 187.118 M201.302 188.976 C 201.302 189.931,201.362 190.652,201.435 190.579 C 201.701 190.313,201.816 187.240,201.559 187.240 C 201.416 187.240,201.302 188.006,201.302 188.976 M128.129 188.493 C 128.131 188.878,128.245 189.368,128.382 189.583 C 128.553 189.851,128.581 189.665,128.473 188.992 C 128.339 188.155,128.378 188.035,128.741 188.174 C 128.975 188.263,129.167 188.232,129.167 188.104 C 129.167 187.976,128.932 187.854,128.646 187.832 C 128.244 187.802,128.126 187.952,128.129 188.493 M259.678 188.984 C 259.830 189.167,260.059 189.253,260.186 189.174 C 260.599 188.919,260.429 188.573,259.909 188.612 C 259.528 188.641,259.470 188.733,259.678 188.984 M200.761 189.518 C 200.750 189.626,200.702 189.918,200.654 190.168 C 200.606 190.418,200.666 190.684,200.787 190.759 C 200.908 190.834,200.997 190.541,200.985 190.109 C 200.965 189.409,200.813 189.009,200.761 189.518 M202.083 189.829 C 202.083 190.245,202.933 191.134,203.182 190.980 C 203.366 190.867,203.305 190.690,203.008 190.472 C 202.757 190.289,202.617 190.033,202.697 189.904 C 202.776 189.776,202.671 189.670,202.463 189.670 C 202.254 189.670,202.083 189.742,202.083 189.829 M101.843 190.299 C 101.856 190.572,101.917 190.624,101.995 190.430 C 102.474 189.244,105.226 190.910,105.190 192.363 C 105.174 193.009,105.144 193.035,104.948 192.578 C 104.767 192.158,104.721 192.142,104.706 192.494 C 104.696 192.735,104.863 193.107,105.078 193.322 C 105.578 193.822,105.574 194.175,105.067 194.369 C 104.756 194.489,104.726 194.638,104.937 195.031 C 105.602 196.274,105.053 198.235,103.868 198.848 C 102.593 199.507,99.472 199.353,99.509 198.633 C 99.532 198.192,99.569 198.160,99.659 198.503 C 99.724 198.753,99.900 198.958,100.049 198.958 C 100.198 198.958,100.130 198.667,99.897 198.312 C 99.503 197.711,99.308 190.714,99.667 190.039 C 99.900 189.600,101.822 189.830,101.843 190.299 M189.323 190.120 C 189.323 190.271,189.432 190.328,189.565 190.246 C 189.698 190.164,189.886 190.348,189.984 190.656 C 190.123 191.094,190.210 191.137,190.388 190.855 C 190.538 190.617,190.467 190.384,190.180 190.169 C 189.647 189.771,189.323 189.752,189.323 190.120 M207.292 190.029 C 207.507 190.109,207.818 190.281,207.985 190.412 C 208.175 190.562,208.359 190.534,208.481 190.337 C 208.603 190.138,208.564 190.092,208.374 190.210 C 208.208 190.312,208.073 190.271,208.073 190.120 C 208.073 189.968,207.809 189.853,207.487 189.864 C 207.101 189.878,207.034 189.934,207.292 190.029 M276.190 190.043 C 275.848 190.385,276.079 190.623,276.523 190.386 C 276.828 190.222,277.113 190.219,277.304 190.377 C 277.517 190.553,277.530 190.536,277.346 190.315 C 277.058 189.968,276.416 189.817,276.190 190.043 M166.667 190.207 C 166.667 190.264,167.126 190.354,167.686 190.407 C 168.247 190.461,168.651 190.414,168.583 190.304 C 168.459 190.104,166.667 190.013,166.667 190.207 M271.019 190.266 C 270.922 190.363,271.083 190.651,271.377 190.906 C 271.878 191.340,271.940 191.341,272.359 190.932 C 272.754 190.546,272.759 190.474,272.406 190.318 C 271.814 190.056,271.615 190.072,271.615 190.380 C 271.615 190.532,271.732 190.583,271.875 190.495 C 272.018 190.406,272.135 190.458,272.135 190.610 C 272.135 191.021,271.672 190.942,271.418 190.488 C 271.295 190.269,271.116 190.169,271.019 190.266 M201.302 193.359 C 201.302 194.338,201.381 195.060,201.477 194.964 C 201.663 194.778,201.610 191.887,201.417 191.694 C 201.354 191.631,201.302 192.381,201.302 193.359 M179.412 193.294 C 179.336 194.884,179.470 206.900,179.564 206.995 C 179.632 207.063,179.688 203.934,179.688 200.043 C 179.688 196.152,179.629 192.969,179.557 192.969 C 179.486 192.969,179.420 193.115,179.412 193.294 M191.136 193.880 C 191.107 194.023,191.104 194.247,191.129 194.377 C 191.153 194.507,191.021 194.711,190.834 194.829 C 190.563 195.001,190.562 195.045,190.828 195.048 C 191.226 195.053,191.510 194.423,191.321 193.954 C 191.247 193.770,191.164 193.737,191.136 193.880 M123.498 195.638 C 123.359 196.178,123.384 196.193,123.822 195.834 C 124.266 195.469,124.289 195.498,124.175 196.276 C 124.103 196.766,124.154 197.045,124.301 196.954 C 124.447 196.864,124.500 197.138,124.429 197.619 C 124.363 198.069,124.419 198.438,124.554 198.438 C 124.689 198.438,124.748 198.783,124.686 199.205 C 124.624 199.627,124.669 199.913,124.787 199.841 C 124.904 199.768,125.000 199.898,125.000 200.130 C 125.000 200.362,124.883 200.479,124.740 200.391 C 124.596 200.302,124.479 200.412,124.479 200.636 C 124.479 200.859,124.626 201.012,124.805 200.977 C 125.000 200.938,125.163 201.252,125.212 201.763 C 125.257 202.231,125.393 202.553,125.513 202.479 C 125.634 202.404,125.672 202.576,125.597 202.861 C 125.523 203.146,125.358 203.315,125.231 203.237 C 124.840 202.996,124.975 203.754,125.443 204.434 C 125.861 205.041,125.861 205.057,125.443 204.721 C 125.054 204.407,124.908 204.477,124.951 204.958 C 124.958 205.035,124.678 205.121,124.331 205.150 C 123.983 205.179,123.698 205.087,123.698 204.945 C 123.698 204.803,123.574 204.688,123.422 204.688 C 123.270 204.688,123.219 204.805,123.307 204.948 C 123.396 205.091,123.279 205.208,123.047 205.208 C 122.815 205.208,122.698 205.091,122.786 204.948 C 122.875 204.805,122.765 204.688,122.541 204.688 C 122.318 204.688,122.128 204.541,122.119 204.362 C 122.110 204.183,121.990 204.317,121.853 204.660 C 121.503 205.534,121.340 205.235,121.530 204.068 C 121.639 203.392,121.759 203.193,121.912 203.430 C 122.045 203.637,122.069 203.435,121.972 202.930 C 121.869 202.392,121.914 202.083,122.095 202.083 C 122.251 202.083,122.318 201.923,122.243 201.727 C 122.116 201.396,123.094 195.679,123.351 195.247 C 123.577 194.870,123.648 195.058,123.498 195.638 M271.017 196.439 C 270.858 196.854,271.181 197.205,271.811 197.301 C 271.991 197.328,272.076 197.250,272.001 197.129 C 271.926 197.007,272.071 196.791,272.323 196.650 C 272.576 196.509,272.686 196.298,272.569 196.181 C 272.452 196.064,272.238 196.180,272.093 196.440 C 271.845 196.883,271.809 196.884,271.503 196.466 C 271.208 196.063,271.162 196.060,271.017 196.439 M211.979 197.396 L 211.328 197.604 212.044 197.630 C 212.438 197.645,212.760 197.539,212.760 197.396 C 212.760 197.253,212.731 197.147,212.695 197.161 C 212.660 197.176,212.337 197.281,211.979 197.396 M207.487 197.580 C 207.809 197.642,208.337 197.642,208.659 197.580 C 208.981 197.518,208.717 197.467,208.073 197.467 C 207.428 197.467,207.165 197.518,207.487 197.580 M185.119 199.349 C 185.129 200.137,185.050 200.781,184.944 200.781 C 184.837 200.781,184.772 200.342,184.799 199.805 C 184.826 199.268,184.859 198.623,184.872 198.372 C 184.927 197.327,185.104 198.025,185.119 199.349 M130.383 199.219 C 130.468 199.863,130.635 200.566,130.753 200.781 C 131.016 201.260,130.739 199.303,130.440 198.568 C 130.312 198.255,130.290 198.516,130.383 199.219 M142.355 200.781 C 142.518 200.996,142.710 201.406,142.780 201.693 C 142.902 202.187,142.910 202.186,142.939 201.659 C 142.955 201.355,142.764 200.945,142.513 200.748 C 142.117 200.437,142.096 200.442,142.355 200.781 M148.696 200.913 C 148.814 200.840,148.846 201.025,148.768 201.324 C 148.610 201.928,148.171 201.507,148.202 200.781 C 148.213 200.513,148.259 200.493,148.350 200.718 C 148.423 200.898,148.578 200.985,148.696 200.913 M275.435 202.794 C 275.243 203.103,276.223 203.551,276.495 203.279 C 276.580 203.194,276.464 203.125,276.237 203.125 C 276.010 203.125,275.778 202.984,275.720 202.812 C 275.644 202.585,275.567 202.579,275.435 202.794 M277.488 202.841 C 277.300 203.146,277.589 203.906,277.892 203.906 C 278.020 203.906,278.125 203.789,278.125 203.646 C 278.125 203.503,277.995 203.385,277.837 203.385 C 277.678 203.385,277.616 203.210,277.698 202.995 C 277.863 202.567,277.722 202.464,277.488 202.841 M271.060 203.214 C 271.219 203.406,271.273 203.641,271.178 203.735 C 271.084 203.829,271.144 203.906,271.311 203.906 C 271.478 203.906,271.615 203.793,271.615 203.654 C 271.615 203.515,271.820 203.468,272.070 203.548 C 272.442 203.668,272.456 203.645,272.148 203.427 C 271.940 203.280,271.676 203.217,271.562 203.288 C 271.448 203.358,271.354 203.292,271.354 203.140 C 271.354 202.989,271.223 202.865,271.062 202.865 C 270.847 202.865,270.846 202.957,271.060 203.214 M182.447 204.326 C 182.325 204.643,182.396 204.703,182.737 204.573 C 182.984 204.477,183.105 204.482,183.004 204.583 C 182.903 204.684,183.024 204.930,183.272 205.130 C 183.593 205.389,183.479 205.375,182.878 205.084 C 182.187 204.749,182.031 204.740,182.031 205.031 C 182.031 205.227,181.797 205.600,181.510 205.859 C 181.215 206.127,180.990 206.201,180.990 206.030 C 180.990 205.865,181.109 205.729,181.255 205.729 C 181.401 205.729,181.477 205.465,181.423 205.143 C 181.370 204.821,181.378 204.712,181.441 204.902 C 181.526 205.157,181.645 205.124,181.902 204.773 C 182.160 204.419,182.171 204.252,181.944 204.107 C 181.750 203.984,181.814 203.913,182.124 203.910 C 182.463 203.907,182.559 204.032,182.447 204.326 M195.703 204.427 C 195.615 204.570,195.673 204.688,195.833 204.688 C 195.993 204.688,196.052 204.805,195.964 204.948 C 195.875 205.091,195.914 205.208,196.051 205.208 C 196.355 205.208,196.637 204.537,196.423 204.322 C 196.190 204.090,195.884 204.134,195.703 204.427 M180.669 205.599 C 180.699 205.957,180.607 206.250,180.466 206.250 C 180.177 206.250,180.113 205.390,180.382 205.122 C 180.619 204.885,180.609 204.868,180.669 205.599 M163.982 207.747 C 163.916 207.998,163.863 207.793,163.863 207.292 C 163.863 206.790,163.916 206.585,163.982 206.836 C 164.047 207.087,164.047 207.497,163.982 207.747 M180.556 207.426 C 180.556 207.639,180.790 207.813,181.076 207.813 C 181.363 207.813,181.548 207.779,181.489 207.739 C 181.429 207.698,181.195 207.524,180.968 207.352 C 180.636 207.101,180.556 207.115,180.556 207.426 M179.386 207.487 C 179.249 208.143,179.272 209.115,179.424 209.115 C 179.522 209.115,179.619 208.704,179.637 208.203 C 179.667 207.408,179.502 206.935,179.386 207.487 M191.068 208.422 C 190.994 208.614,191.038 208.936,191.166 209.138 C 191.335 209.405,191.399 209.310,191.402 208.789 C 191.407 208.011,191.279 207.871,191.068 208.422 M200.842 209.375 C 200.842 209.876,200.895 210.081,200.961 209.831 C 201.026 209.580,201.026 209.170,200.961 208.919 C 200.895 208.669,200.842 208.874,200.842 209.375 M187.161 210.508 C 187.091 210.689,187.249 210.826,187.530 210.826 C 188.107 210.826,188.180 210.533,187.652 210.331 C 187.449 210.253,187.228 210.332,187.161 210.508 M166.809 210.658 C 166.750 210.752,167.046 210.856,167.466 210.888 C 167.886 210.920,168.229 210.899,168.229 210.842 C 168.229 210.653,166.917 210.483,166.809 210.658 M188.932 210.677 C 188.503 210.786,188.347 210.890,188.585 210.907 C 188.824 210.924,189.224 211.016,189.475 211.112 C 189.811 211.241,189.873 211.196,189.714 210.938 C 189.555 210.680,189.615 210.634,189.945 210.760 C 190.210 210.862,190.327 210.827,190.233 210.674 C 190.058 210.391,190.055 210.391,188.932 210.677 M167.125 211.382 C 167.449 211.444,167.918 211.442,168.167 211.377 C 168.416 211.312,168.151 211.261,167.578 211.264 C 167.005 211.266,166.801 211.320,167.125 211.382 M117.773 215.816 C 117.165 215.871,116.169 215.871,115.560 215.816 C 114.951 215.761,115.449 215.716,116.667 215.716 C 117.884 215.716,118.382 215.761,117.773 215.816 M131.836 215.817 C 131.084 215.870,129.854 215.870,129.102 215.817 C 128.350 215.764,128.965 215.721,130.469 215.721 C 131.973 215.721,132.588 215.764,131.836 215.817 M137.826 216.065 C 138.076 216.130,138.486 216.130,138.737 216.065 C 138.988 215.999,138.783 215.946,138.281 215.946 C 137.780 215.946,137.575 215.999,137.826 216.065 M152.148 216.065 C 152.399 216.130,152.809 216.130,153.060 216.065 C 153.311 215.999,153.105 215.946,152.604 215.946 C 152.103 215.946,151.898 215.999,152.148 216.065 " stroke="none" fill="#49d8fb" fill-rule="evenodd"></path><path id="path3" d="M96.773 139.462 C 96.350 139.885,96.283 140.194,95.817 143.880 C 94.967 150.600,91.696 155.798,85.998 159.484 C 83.586 161.044,83.624 161.198,86.424 161.198 C 93.579 161.198,104.094 165.415,109.290 170.370 L 110.117 171.158 109.004 172.102 C 106.767 174.000,104.963 177.111,105.306 178.478 C 105.466 179.114,105.466 179.114,110.183 179.305 L 114.901 179.496 115.589 180.270 C 118.809 183.893,126.302 182.349,126.302 178.061 C 126.302 175.457,122.883 171.358,120.136 170.668 C 119.241 170.444,119.363 170.231,121.253 168.727 C 126.658 164.426,134.536 161.464,141.125 161.256 C 143.656 161.176,144.737 161.058,144.443 160.893 C 144.203 160.759,143.890 160.721,143.748 160.809 C 143.606 160.896,143.490 160.854,143.490 160.714 C 143.490 160.574,142.581 159.823,141.471 159.044 C 136.076 155.259,133.215 150.236,132.298 142.940 C 131.947 140.142,131.580 139.193,130.849 139.193 C 130.352 139.193,130.337 139.455,130.270 149.284 L 130.202 159.375 114.190 159.375 L 98.177 159.375 98.177 149.488 C 98.177 139.987,98.158 139.591,97.674 139.333 C 97.296 139.130,97.073 139.163,96.773 139.462 M108.487 140.645 L 107.813 141.446 107.813 146.516 C 107.813 151.552,107.817 151.590,108.452 152.225 L 109.091 152.865 114.817 152.865 C 119.111 152.865,120.595 152.783,120.753 152.539 C 121.118 151.974,121.175 142.231,120.818 141.369 C 120.217 139.919,119.894 139.844,114.288 139.844 L 109.161 139.844 108.487 140.645 M118.760 144.727 C 118.765 146.266,118.834 147.974,118.914 148.521 C 118.993 149.068,118.986 149.803,118.897 150.155 L 118.737 150.794 114.381 150.722 L 110.026 150.651 109.954 146.626 C 109.860 141.404,109.360 141.927,114.445 141.927 L 118.750 141.927 118.760 144.727 M95.833 156.250 L 95.833 159.635 93.000 159.635 L 90.166 159.635 91.784 157.985 C 92.673 157.078,93.915 155.555,94.542 154.600 C 95.170 153.646,95.717 152.865,95.758 152.865 C 95.800 152.865,95.833 154.388,95.833 156.250 M134.517 155.382 C 135.161 156.265,136.224 157.583,136.879 158.311 L 138.069 159.635 135.441 159.635 L 132.813 159.635 132.810 157.227 C 132.808 155.902,132.743 154.349,132.664 153.776 C 132.500 152.580,132.425 152.515,134.517 155.382 M128.378 161.914 C 128.375 162.021,127.614 162.448,126.688 162.861 C 124.257 163.947,120.708 166.315,118.713 168.180 L 116.986 169.796 114.398 169.893 L 111.810 169.989 110.424 168.579 C 108.783 166.911,105.746 164.857,102.409 163.160 C 101.084 162.487,100.000 161.887,100.000 161.827 C 100.000 161.767,106.387 161.719,114.193 161.719 C 121.999 161.719,128.382 161.807,128.378 161.914 M202.148 215.812 C 202.542 215.871,203.187 215.871,203.581 215.812 C 203.975 215.752,203.652 215.703,202.865 215.703 C 202.077 215.703,201.755 215.752,202.148 215.812 M204.461 215.746 C 204.644 215.929,210.948 215.962,211.128 215.781 C 211.214 215.695,209.722 215.625,207.813 215.625 C 205.903 215.625,204.395 215.680,204.461 215.746 " stroke="none" fill="#0ba4eb" fill-rule="evenodd"></path><path id="path4" d="M150.793 95.619 C 150.496 95.730,149.873 95.866,149.410 95.922 C 148.947 95.979,148.275 96.144,147.917 96.289 C 147.559 96.435,147.158 96.489,147.026 96.411 C 146.894 96.332,146.864 96.470,146.959 96.719 C 147.091 97.063,147.025 97.136,146.678 97.028 C 146.165 96.868,145.361 97.271,145.639 97.549 C 145.739 97.649,145.981 97.598,146.177 97.435 C 146.372 97.273,146.600 97.208,146.683 97.291 C 146.983 97.591,148.675 97.855,148.756 97.614 C 148.800 97.480,150.106 97.309,151.657 97.233 C 159.541 96.847,164.136 100.184,163.691 105.972 C 163.441 109.232,163.427 109.335,163.249 109.225 C 163.159 109.169,162.814 109.737,162.482 110.487 C 161.669 112.319,161.631 112.432,161.979 111.979 C 162.246 111.632,162.267 111.632,162.173 111.979 C 162.114 112.194,161.925 112.370,161.753 112.370 C 161.377 112.370,160.920 113.042,161.098 113.331 C 161.168 113.444,161.043 113.466,160.821 113.381 C 160.575 113.286,160.417 113.367,160.417 113.586 C 160.417 114.400,156.046 119.329,152.052 123.019 C 151.138 123.863,149.951 124.973,149.414 125.486 C 148.877 125.999,148.438 126.307,148.438 126.172 C 148.438 126.037,148.262 126.177,148.047 126.483 C 147.832 126.790,147.723 127.214,147.804 127.426 C 147.886 127.638,147.828 127.888,147.677 127.982 C 147.510 128.085,147.463 127.994,147.557 127.748 C 147.642 127.526,147.577 127.344,147.413 127.344 C 147.043 127.344,144.271 129.369,144.271 129.639 C 144.271 129.746,143.919 129.967,143.489 130.129 C 142.937 130.337,142.754 130.545,142.865 130.835 C 142.952 131.062,143.120 131.187,143.238 131.114 C 143.357 131.041,143.528 131.102,143.620 131.250 C 143.711 131.398,143.902 131.447,144.044 131.359 C 144.193 131.268,144.102 131.049,143.831 130.844 C 143.392 130.514,143.419 130.466,144.206 130.161 C 144.671 129.981,145.052 129.684,145.052 129.500 C 145.052 129.116,145.472 129.053,145.689 129.405 C 145.770 129.536,145.689 129.702,145.509 129.775 C 145.328 129.848,145.405 129.916,145.683 129.927 C 145.958 129.939,146.374 129.801,146.607 129.622 C 146.840 129.443,146.748 129.567,146.402 129.896 C 146.056 130.226,145.817 130.540,145.871 130.593 C 146.059 130.781,148.307 128.916,148.236 128.632 C 148.196 128.475,148.269 128.411,148.396 128.490 C 148.831 128.759,150.858 127.049,155.371 122.606 C 158.834 119.196,160.307 117.522,162.658 114.323 C 167.683 107.486,166.823 99.655,160.753 96.970 C 158.183 95.833,152.352 95.043,150.793 95.619 M78.452 122.528 C 78.131 122.696,77.955 122.927,78.061 123.042 C 78.168 123.158,77.874 123.179,77.409 123.091 C 76.715 122.959,76.566 123.010,76.583 123.379 C 76.596 123.653,76.655 123.701,76.736 123.501 C 76.808 123.321,77.004 123.261,77.171 123.367 C 77.668 123.683,77.961 123.609,78.633 122.996 C 79.377 122.318,79.289 122.091,78.452 122.528 M74.598 124.442 C 74.789 125.044,74.510 125.831,74.179 125.626 C 74.032 125.536,74.058 125.324,74.243 125.101 C 74.414 124.895,74.496 124.669,74.425 124.599 C 74.240 124.414,71.655 126.521,71.336 127.117 C 71.189 127.393,70.971 127.559,70.853 127.486 C 70.569 127.311,66.171 132.039,64.960 133.822 C 64.373 134.685,64.113 135.287,64.282 135.391 C 64.457 135.500,64.468 135.699,64.313 135.944 C 64.111 136.264,64.070 136.249,64.066 135.857 C 64.064 135.590,63.942 135.460,63.784 135.558 C 63.631 135.652,63.567 135.888,63.641 136.081 C 63.728 136.307,63.641 136.380,63.398 136.287 C 63.162 136.196,63.021 136.304,63.021 136.576 C 63.021 136.838,63.140 136.936,63.321 136.824 C 63.514 136.705,63.551 136.753,63.426 136.956 C 63.318 137.131,63.163 137.208,63.082 137.128 C 62.841 136.886,61.936 138.575,62.091 138.978 C 62.169 139.182,62.128 139.285,61.998 139.205 C 61.869 139.125,61.557 139.617,61.305 140.298 C 61.054 140.979,60.765 141.654,60.663 141.797 C 59.696 143.161,59.893 147.942,61.012 150.260 C 62.598 153.545,69.023 156.558,70.980 154.935 C 71.904 154.167,70.940 153.125,69.306 153.125 C 68.275 153.125,65.981 152.402,65.507 151.928 C 65.285 151.707,65.104 151.613,65.104 151.720 C 65.104 152.116,63.730 150.612,63.076 149.500 C 62.422 148.388,61.540 144.129,62.025 144.430 C 62.143 144.502,62.240 144.270,62.240 143.913 C 62.240 143.555,62.376 142.933,62.543 142.530 C 62.710 142.127,62.859 141.738,62.873 141.667 C 62.887 141.595,62.992 141.390,63.105 141.211 C 63.219 141.032,63.243 140.885,63.160 140.885 C 63.076 140.885,63.195 140.523,63.424 140.081 C 63.652 139.638,63.774 139.105,63.694 138.895 C 63.613 138.686,63.655 138.581,63.786 138.662 C 64.023 138.808,64.480 137.829,64.368 137.416 C 64.336 137.297,64.430 137.275,64.577 137.366 C 64.724 137.457,64.844 137.420,64.844 137.286 C 64.844 136.885,68.448 132.013,69.839 130.533 C 70.546 129.781,71.057 129.057,70.974 128.924 C 70.892 128.791,70.962 128.597,71.130 128.493 C 71.331 128.369,71.364 128.418,71.228 128.639 C 71.090 128.863,71.141 128.932,71.383 128.847 C 71.582 128.777,71.727 128.520,71.706 128.275 C 71.684 128.030,71.726 127.889,71.799 127.962 C 71.945 128.108,71.979 128.084,73.849 126.507 C 74.577 125.893,75.514 125.124,75.932 124.797 C 76.436 124.404,76.501 124.294,76.124 124.472 C 75.335 124.843,75.000 124.807,75.000 124.349 C 75.000 124.134,74.875 123.958,74.722 123.958 C 74.569 123.958,74.513 124.176,74.598 124.442 M73.736 126.309 C 73.137 126.809,72.656 126.792,72.656 126.271 C 72.656 126.128,72.750 126.069,72.864 126.139 C 72.978 126.210,73.242 126.160,73.450 126.028 C 74.147 125.587,74.356 125.793,73.736 126.309 M144.820 130.451 C 144.577 130.601,144.546 130.801,144.716 131.105 C 144.918 131.467,145.012 131.482,145.252 131.193 C 145.626 130.742,145.288 130.162,144.820 130.451 M141.944 131.099 C 141.692 131.403,141.733 131.444,142.173 131.329 C 142.467 131.252,142.708 131.086,142.708 130.959 C 142.708 130.608,142.288 130.685,141.944 131.099 M107.658 146.354 C 107.658 148.717,107.698 149.684,107.746 148.503 C 107.794 147.321,107.794 145.387,107.746 144.206 C 107.698 143.024,107.658 143.991,107.658 146.354 M118.816 149.349 C 118.819 149.922,118.872 150.126,118.934 149.802 C 118.996 149.478,118.994 149.009,118.929 148.760 C 118.864 148.511,118.813 148.776,118.816 149.349 M132.552 153.439 C 132.552 153.813,132.775 154.145,133.138 154.310 C 133.460 154.456,133.692 154.727,133.652 154.912 C 133.613 155.096,133.695 155.176,133.835 155.090 C 133.984 154.998,133.869 154.562,133.554 154.028 C 132.869 152.866,132.552 152.680,132.552 153.439 M117.434 169.206 L 116.536 170.182 117.513 169.285 C 118.422 168.450,118.609 168.229,118.410 168.229 C 118.367 168.229,117.927 168.669,117.434 169.206 M113.607 179.607 C 113.857 179.672,114.268 179.672,114.518 179.607 C 114.769 179.541,114.564 179.488,114.063 179.488 C 113.561 179.488,113.356 179.541,113.607 179.607 M115.104 179.859 C 115.104 180.001,115.426 180.402,115.820 180.749 L 116.536 181.380 115.885 180.599 C 115.527 180.169,115.205 179.769,115.169 179.709 C 115.133 179.650,115.104 179.717,115.104 179.859 M125.081 180.719 C 124.338 181.395,124.295 181.510,124.668 181.818 C 125.019 182.108,125.063 182.100,124.945 181.771 C 124.868 181.556,125.105 181.058,125.472 180.664 C 126.341 179.731,126.134 179.760,125.081 180.719 M123.054 182.020 C 122.969 182.157,122.728 182.203,122.518 182.122 C 122.307 182.042,122.135 182.034,122.135 182.106 C 122.135 182.440,122.859 182.457,123.303 182.132 C 123.575 181.934,123.665 181.771,123.503 181.771 C 123.340 181.771,123.139 181.883,123.054 182.020 M188.219 184.820 C 188.543 184.882,189.012 184.880,189.261 184.814 C 189.510 184.749,189.245 184.698,188.672 184.701 C 188.099 184.704,187.895 184.757,188.219 184.820 M248.008 184.830 C 243.858 184.894,242.995 184.973,242.870 185.298 C 242.714 185.705,242.647 201.832,242.764 210.677 C 242.801 213.470,242.893 209.544,242.969 201.953 L 243.106 188.151 243.168 201.864 L 243.229 215.576 247.201 215.554 C 249.385 215.542,250.322 215.490,249.284 215.437 C 248.245 215.385,247.396 215.230,247.396 215.093 C 247.396 214.956,247.272 214.844,247.120 214.844 C 246.968 214.844,246.907 214.946,246.984 215.070 C 247.061 215.195,246.394 215.293,245.502 215.288 C 244.296 215.282,244.147 215.248,244.922 215.156 C 245.840 215.047,245.887 215.011,245.313 214.854 C 244.682 214.681,244.688 214.671,245.494 214.546 C 245.952 214.475,246.267 214.513,246.195 214.630 C 246.006 214.936,246.593 214.875,247.724 214.471 C 248.263 214.279,248.762 214.215,248.832 214.329 C 249.046 214.676,249.864 214.431,249.950 213.995 C 249.994 213.770,249.818 213.531,249.559 213.464 C 249.176 213.364,249.167 213.336,249.514 213.311 C 249.976 213.279,250.309 212.410,250.085 211.824 C 249.997 211.595,249.558 211.458,248.915 211.458 C 248.349 211.458,247.948 211.358,248.024 211.235 C 248.099 211.113,248.172 206.179,248.186 200.272 L 248.210 189.531 250.388 189.622 C 252.675 189.718,254.032 190.312,254.040 191.222 C 254.042 191.446,254.148 191.726,254.277 191.844 C 254.413 191.968,254.422 191.905,254.298 191.692 C 254.149 191.434,254.183 191.386,254.413 191.528 C 254.623 191.657,254.684 192.022,254.584 192.545 C 254.489 193.039,254.516 193.223,254.651 193.013 C 255.052 192.391,255.207 194.134,255.258 199.837 C 255.285 202.863,255.350 204.639,255.402 203.785 C 255.455 202.931,255.606 202.102,255.738 201.943 C 255.887 201.763,255.862 201.539,255.671 201.348 C 255.436 201.113,255.438 201.042,255.677 201.042 C 255.849 201.042,255.990 201.173,255.990 201.334 C 255.990 201.542,256.097 201.537,256.362 201.317 C 256.660 201.070,256.794 201.119,257.033 201.565 C 257.303 202.070,257.283 202.097,256.830 201.855 C 256.477 201.666,256.242 201.675,256.029 201.887 C 255.629 202.288,255.648 202.619,256.062 202.460 C 256.307 202.366,256.376 202.628,256.323 203.445 C 256.271 204.258,256.313 204.417,256.479 204.036 C 256.603 203.750,256.655 203.428,256.593 203.320 C 256.531 203.213,256.604 203.125,256.755 203.125 C 257.008 203.125,257.139 203.485,257.062 203.971 C 257.045 204.079,257.208 204.167,257.424 204.167 C 257.749 204.167,257.762 204.078,257.499 203.658 C 257.047 202.934,257.527 202.613,258.003 203.320 C 258.498 204.056,258.857 204.077,258.719 203.362 C 258.643 202.968,258.720 202.857,258.995 202.963 C 259.384 203.112,259.514 202.830,259.201 202.517 C 259.105 202.421,258.812 202.537,258.550 202.774 C 258.106 203.176,258.073 203.176,258.073 202.775 C 258.073 202.538,258.219 202.373,258.398 202.409 C 258.577 202.445,258.698 202.338,258.667 202.173 C 258.556 201.584,259.496 202.012,259.668 202.628 C 259.765 202.973,259.856 200.657,259.870 197.482 C 259.884 194.307,259.965 191.495,260.051 191.232 C 260.182 190.827,260.160 190.814,259.900 191.146 C 259.650 191.466,259.615 191.408,259.708 190.828 C 259.777 190.392,259.719 190.183,259.557 190.283 C 259.395 190.383,259.350 190.229,259.440 189.884 C 259.535 189.520,259.488 189.383,259.306 189.495 C 259.127 189.606,259.088 189.507,259.198 189.222 C 259.305 188.941,259.267 188.838,259.094 188.945 C 258.938 189.041,258.855 188.942,258.902 188.715 C 258.947 188.495,258.886 188.319,258.765 188.324 C 258.418 188.337,257.036 186.922,257.175 186.697 C 257.244 186.585,257.163 186.410,256.995 186.306 C 256.794 186.181,256.761 186.231,256.897 186.452 C 257.035 186.675,256.983 186.746,256.742 186.666 C 256.543 186.599,256.380 186.389,256.380 186.198 C 256.380 186.007,256.204 185.803,255.990 185.744 C 255.642 185.649,255.642 185.671,255.990 185.942 C 256.322 186.201,256.309 186.224,255.903 186.092 C 255.641 186.007,255.370 185.938,255.302 185.938 C 255.234 185.938,255.253 185.816,255.345 185.667 C 255.454 185.490,255.254 185.452,254.774 185.558 C 254.197 185.684,254.122 185.657,254.427 185.432 C 254.723 185.214,254.470 185.175,253.385 185.271 C 252.598 185.341,252.188 185.332,252.474 185.252 C 252.999 185.105,253.722 184.580,253.242 184.695 C 253.106 184.727,250.751 184.788,248.008 184.830 M201.222 185.156 C 200.746 185.347,200.761 215.922,201.237 216.081 C 201.416 216.140,201.563 216.062,201.563 215.907 C 201.563 215.742,202.108 215.625,202.880 215.625 C 203.692 215.625,204.136 215.725,204.036 215.885 C 203.948 216.029,204.000 216.146,204.151 216.146 C 204.303 216.146,204.427 216.029,204.427 215.885 C 204.427 215.719,206.379 215.637,209.831 215.659 C 212.891 215.679,214.839 215.777,214.323 215.885 C 213.457 216.068,213.477 216.079,214.714 216.108 C 215.703 216.131,215.922 216.071,215.625 215.859 C 215.312 215.635,215.353 215.606,215.830 215.711 C 216.419 215.840,216.425 215.817,216.351 213.585 L 216.276 211.328 211.589 211.183 C 209.010 211.103,206.872 211.015,206.836 210.987 C 206.800 210.960,206.771 209.063,206.771 206.771 L 206.771 202.604 210.547 202.604 L 214.323 202.604 214.323 200.130 C 214.323 197.958,214.267 197.653,213.867 197.629 C 211.937 197.516,206.761 197.632,206.497 197.795 C 206.264 197.939,206.235 197.892,206.395 197.633 C 206.674 197.180,206.725 190.107,206.450 189.937 C 206.340 189.869,206.252 189.673,206.254 189.503 C 206.257 189.301,206.338 189.319,206.487 189.555 C 206.713 189.911,215.636 190.029,216.195 189.683 C 216.311 189.612,216.337 188.990,216.253 188.303 C 216.170 187.615,216.219 186.625,216.364 186.102 C 216.515 185.552,216.525 185.213,216.386 185.299 C 216.254 185.381,216.146 185.353,216.146 185.237 C 216.146 185.013,201.774 184.935,201.222 185.156 M220.073 200.412 C 220.100 208.929,220.224 215.961,220.347 216.037 C 220.471 216.114,220.573 216.052,220.573 215.901 C 220.573 215.725,221.398 215.638,222.852 215.662 C 224.643 215.691,224.908 215.739,224.089 215.885 L 223.047 216.072 224.280 216.109 L 225.514 216.146 225.583 207.145 L 225.651 198.144 227.060 202.067 C 227.836 204.224,228.575 205.990,228.703 205.990 C 228.832 205.990,228.873 206.093,228.795 206.220 C 228.608 206.522,229.152 208.073,229.444 208.073 C 229.569 208.073,229.604 208.249,229.521 208.464 C 229.439 208.678,229.497 208.854,229.651 208.854 C 229.806 208.854,229.857 209.049,229.765 209.288 C 229.666 209.546,229.705 209.656,229.860 209.559 C 230.013 209.465,230.122 209.727,230.122 210.191 C 230.122 210.627,230.229 211.061,230.360 211.156 C 230.492 211.251,230.611 211.475,230.625 211.654 C 230.686 212.418,230.744 212.521,231.017 212.353 C 231.214 212.231,231.247 212.361,231.120 212.760 C 230.985 213.186,231.020 213.293,231.250 213.151 C 231.480 213.009,231.515 213.116,231.380 213.542 C 231.245 213.967,231.281 214.074,231.510 213.932 C 231.740 213.790,231.776 213.897,231.641 214.323 C 231.501 214.762,231.538 214.857,231.787 214.703 C 232.026 214.556,232.071 214.624,231.948 214.945 C 231.846 215.210,231.881 215.327,232.034 215.233 C 232.176 215.145,232.292 215.198,232.292 215.349 C 232.292 215.525,233.241 215.625,234.911 215.625 C 236.792 215.625,237.479 215.708,237.349 215.919 C 237.239 216.098,237.309 216.166,237.529 216.093 C 237.832 215.992,237.891 213.473,237.891 200.499 L 237.891 185.026 235.286 185.026 L 232.682 185.026 232.613 192.773 C 232.562 198.533,232.465 200.521,232.236 200.521 C 232.000 200.521,232.001 200.595,232.240 200.833 C 232.411 201.005,232.546 201.503,232.539 201.940 C 232.525 202.828,232.685 203.223,228.547 192.081 C 225.797 184.674,225.919 185.050,226.342 185.311 C 226.520 185.421,226.573 185.383,226.470 185.218 C 226.363 185.044,225.107 184.936,223.161 184.932 L 220.024 184.925 220.073 200.412 M265.820 185.080 C 266.143 185.142,266.670 185.142,266.992 185.080 C 267.314 185.018,267.051 184.967,266.406 184.967 C 265.762 184.967,265.498 185.018,265.820 185.080 M268.685 185.080 C 269.007 185.142,269.535 185.142,269.857 185.080 C 270.179 185.018,269.915 184.967,269.271 184.967 C 268.626 184.967,268.363 185.018,268.685 185.080 M184.127 185.403 C 183.919 185.535,183.668 185.593,183.568 185.531 C 183.469 185.470,183.320 185.596,183.237 185.812 C 183.102 186.164,184.321 185.748,184.874 185.253 C 185.099 185.052,184.489 185.174,184.127 185.403 M193.099 185.905 C 195.170 187.196,196.781 190.158,196.425 192.021 C 196.262 192.872,196.568 194.590,196.852 194.415 C 197.429 194.059,196.526 189.364,195.585 187.833 C 195.062 186.983,193.128 185.416,192.604 185.418 C 192.447 185.418,192.669 185.638,193.099 185.905 M265.365 191.372 C 265.365 194.590,265.420 197.166,265.489 197.098 C 265.557 197.030,265.637 194.520,265.666 191.521 C 265.696 188.522,265.765 186.381,265.818 186.765 C 265.872 187.148,266.114 187.611,266.357 187.794 C 266.721 188.069,266.744 188.066,266.488 187.778 C 266.247 187.506,266.270 187.339,266.588 187.021 C 266.876 186.733,266.905 186.581,266.688 186.509 C 266.484 186.441,266.532 186.294,266.830 186.075 C 267.230 185.783,267.171 185.732,266.323 185.633 L 265.365 185.521 265.365 191.372 M201.773 186.424 C 201.595 186.658,201.416 186.898,201.376 186.957 C 201.335 187.017,201.302 186.757,201.302 186.380 C 201.302 185.872,201.405 185.733,201.699 185.846 C 202.023 185.970,202.037 186.077,201.773 186.424 M202.748 185.915 C 202.667 186.046,202.748 186.207,202.928 186.273 C 203.182 186.367,203.174 186.473,202.891 186.751 C 202.662 186.978,202.595 186.990,202.712 186.784 C 202.813 186.605,202.771 186.458,202.620 186.458 C 202.468 186.458,202.344 186.283,202.344 186.068 C 202.344 185.853,202.468 185.677,202.620 185.677 C 202.771 185.677,202.829 185.784,202.748 185.915 M181.885 187.044 L 181.120 187.891 181.966 187.126 C 182.755 186.413,182.932 186.198,182.731 186.198 C 182.686 186.198,182.305 186.579,181.885 187.044 M204.152 187.528 C 203.945 187.915,203.776 187.995,203.582 187.801 C 203.387 187.606,203.151 187.607,202.781 187.805 C 202.267 188.080,202.270 188.093,202.886 188.435 C 203.232 188.627,203.420 188.788,203.303 188.793 C 202.497 188.828,201.617 187.619,202.409 187.564 C 202.965 187.526,203.970 187.263,204.115 187.118 C 204.414 186.818,204.431 187.006,204.152 187.528 M201.692 188.843 C 201.522 191.024,201.302 191.099,201.302 188.976 C 201.302 188.006,201.416 187.240,201.559 187.240 C 201.715 187.240,201.767 187.876,201.692 188.843 M187.109 189.627 C 186.384 190.028,185.417 190.930,185.417 191.206 C 185.417 191.332,185.684 191.124,186.012 190.744 C 186.365 190.333,187.131 189.912,187.900 189.705 C 188.936 189.427,189.038 189.356,188.411 189.348 C 187.982 189.343,187.396 189.468,187.109 189.627 M189.345 189.662 C 189.404 189.706,189.805 189.958,190.234 190.223 L 191.016 190.706 190.520 190.144 C 190.247 189.836,189.846 189.583,189.630 189.583 C 189.413 189.583,189.285 189.619,189.345 189.662 M202.697 189.904 C 202.617 190.033,202.757 190.289,203.008 190.472 C 203.305 190.690,203.366 190.867,203.182 190.980 C 203.027 191.076,202.716 190.892,202.492 190.571 C 201.985 189.848,201.979 189.670,202.463 189.670 C 202.671 189.670,202.776 189.776,202.697 189.904 M250.456 190.028 C 250.778 190.090,251.305 190.090,251.628 190.028 C 251.950 189.965,251.686 189.915,251.042 189.915 C 250.397 189.915,250.133 189.965,250.456 190.028 M252.725 190.327 C 252.884 190.602,252.791 190.638,252.311 190.490 C 251.608 190.274,251.690 190.418,252.516 190.847 C 253.097 191.149,253.266 190.652,252.744 190.177 C 252.621 190.065,252.613 190.133,252.725 190.327 M190.505 191.129 C 190.407 191.289,190.495 191.340,190.719 191.254 C 190.937 191.170,191.155 191.286,191.227 191.522 C 191.333 191.871,191.347 191.867,191.315 191.498 C 191.269 190.980,190.745 190.741,190.505 191.129 M179.744 191.927 C 179.596 193.453,179.674 210.084,179.831 210.553 C 181.179 214.565,183.526 216.207,188.078 216.324 C 193.897 216.474,196.934 213.705,197.060 208.137 C 197.090 206.804,197.184 205.601,197.269 205.464 C 197.354 205.325,197.244 205.283,197.019 205.369 C 196.796 205.455,196.615 205.422,196.615 205.297 C 196.615 205.000,191.868 205.163,191.560 205.471 C 191.430 205.601,191.348 206.479,191.379 207.423 C 191.437 209.220,190.854 210.694,189.947 211.042 C 189.004 211.404,186.834 211.122,187.111 210.674 C 187.182 210.559,187.015 210.524,186.739 210.596 C 185.798 210.842,185.408 209.478,185.253 205.394 C 185.118 201.853,184.700 199.850,184.650 202.506 C 184.607 204.794,184.568 204.955,184.144 204.608 C 183.826 204.348,183.789 204.393,183.915 204.883 C 184.007 205.239,183.948 205.470,183.765 205.473 C 183.596 205.475,183.636 205.588,183.854 205.729 C 184.069 205.868,184.128 205.980,183.984 205.977 C 183.841 205.975,183.496 205.801,183.218 205.591 C 182.615 205.134,182.187 205.089,182.447 205.509 C 182.558 205.688,182.519 205.739,182.350 205.635 C 182.194 205.539,181.994 205.579,181.904 205.725 C 181.814 205.870,181.864 205.990,182.016 205.990 C 182.168 205.990,182.292 206.121,182.292 206.282 C 182.292 206.496,182.197 206.496,181.936 206.279 C 181.538 205.949,180.830 206.522,181.187 206.885 C 181.293 206.993,181.146 207.040,180.859 206.991 C 180.403 206.912,180.322 207.078,180.208 208.333 C 180.137 209.121,180.017 205.605,179.943 200.521 C 179.869 195.436,179.779 191.569,179.744 191.927 M201.591 193.299 C 201.624 194.119,201.573 194.868,201.477 194.964 C 201.381 195.060,201.302 194.338,201.302 193.359 C 201.302 191.232,201.506 191.190,201.591 193.299 M191.425 192.448 C 191.345 192.915,191.423 195.152,191.522 195.253 C 191.865 195.602,196.875 195.590,196.875 195.240 C 196.875 194.969,196.708 194.884,196.354 194.977 C 196.063 195.053,195.833 194.985,195.833 194.822 C 195.833 194.662,195.709 194.531,195.558 194.531 C 195.406 194.531,195.342 194.630,195.417 194.750 C 195.491 194.870,194.707 194.958,193.674 194.945 L 191.797 194.922 191.644 193.490 C 191.560 192.702,191.461 192.233,191.425 192.448 M260.222 193.099 C 260.225 193.672,260.278 193.876,260.340 193.552 C 260.403 193.228,260.400 192.759,260.335 192.510 C 260.270 192.261,260.219 192.526,260.222 193.099 M264.904 192.969 C 264.904 193.470,264.958 193.675,265.023 193.424 C 265.089 193.174,265.089 192.764,265.023 192.513 C 264.958 192.262,264.904 192.467,264.904 192.969 M254.800 200.000 C 254.800 203.509,254.837 204.945,254.882 203.190 C 254.927 201.436,254.927 198.564,254.882 196.810 C 254.837 195.055,254.800 196.491,254.800 200.000 M184.872 198.372 C 184.859 198.623,184.826 199.268,184.799 199.805 C 184.772 200.342,184.837 200.781,184.944 200.781 C 185.050 200.781,185.129 200.137,185.119 199.349 C 185.104 198.025,184.927 197.327,184.872 198.372 M256.040 198.958 C 256.209 198.958,256.190 199.107,255.990 199.349 C 255.766 199.619,255.756 199.740,255.958 199.740 C 256.354 199.740,256.329 200.174,255.924 200.329 C 255.693 200.417,255.590 200.069,255.567 199.120 C 255.550 198.386,255.587 198.050,255.650 198.372 C 255.714 198.695,255.889 198.958,256.040 198.958 M258.228 201.017 C 258.186 202.061,256.771 203.560,256.771 202.561 C 256.771 202.394,256.848 202.334,256.942 202.428 C 257.290 202.777,257.840 202.039,257.519 201.653 C 257.288 201.375,257.326 201.175,257.687 200.776 C 258.277 200.124,258.265 200.118,258.228 201.017 M259.418 203.934 C 259.230 204.235,259.194 204.409,259.337 204.320 C 259.481 204.232,259.649 204.424,259.712 204.749 C 259.783 205.118,259.838 204.974,259.860 204.362 C 259.902 203.227,259.875 203.202,259.418 203.934 M181.944 204.107 C 182.171 204.252,182.160 204.419,181.902 204.773 C 181.645 205.124,181.526 205.157,181.441 204.902 C 181.378 204.712,181.370 204.821,181.423 205.143 C 181.477 205.465,181.401 205.729,181.255 205.729 C 181.109 205.729,180.990 205.865,180.990 206.030 C 180.990 206.201,181.215 206.127,181.510 205.859 C 181.797 205.600,182.031 205.227,182.031 205.031 C 182.031 204.740,182.187 204.749,182.878 205.084 C 183.479 205.375,183.593 205.389,183.272 205.130 C 183.024 204.930,182.903 204.684,183.004 204.583 C 183.105 204.482,182.984 204.477,182.737 204.573 C 182.396 204.703,182.325 204.643,182.447 204.326 C 182.559 204.032,182.463 203.907,182.124 203.910 C 181.814 203.913,181.750 203.984,181.944 204.107 M180.382 205.122 C 180.113 205.390,180.177 206.250,180.466 206.250 C 180.607 206.250,180.699 205.957,180.669 205.599 C 180.609 204.868,180.619 204.885,180.382 205.122 M163.863 207.292 C 163.863 207.793,163.916 207.998,163.982 207.747 C 164.047 207.497,164.047 207.087,163.982 206.836 C 163.916 206.585,163.863 206.790,163.863 207.292 M181.489 207.739 C 181.548 207.779,181.363 207.813,181.076 207.813 C 180.790 207.813,180.556 207.639,180.556 207.426 C 180.556 207.115,180.636 207.101,180.968 207.352 C 181.195 207.524,181.429 207.698,181.489 207.739 M176.081 208.255 C 176.020 209.551,175.509 211.691,175.173 212.054 C 175.006 212.235,174.831 212.555,174.784 212.767 C 174.536 213.882,172.395 215.283,170.217 215.757 C 169.185 215.982,168.896 216.110,169.401 216.121 C 171.334 216.163,174.064 214.681,174.894 213.139 C 175.161 212.645,175.469 212.240,175.580 212.240 C 175.691 212.240,175.760 212.152,175.733 212.044 C 175.707 211.937,175.832 211.177,176.011 210.355 C 176.191 209.534,176.288 208.538,176.229 208.142 C 176.125 207.457,176.118 207.462,176.081 208.255 M164.066 209.541 C 164.064 209.705,164.303 210.115,164.598 210.453 C 165.019 210.936,165.077 210.956,164.867 210.547 C 164.415 209.663,164.071 209.231,164.066 209.541 M250.586 211.117 C 250.837 211.183,251.247 211.183,251.497 211.117 C 251.748 211.052,251.543 210.998,251.042 210.998 C 250.540 210.998,250.335 211.052,250.586 211.117 M166.324 211.496 C 166.954 211.744,168.286 211.758,168.659 211.519 C 168.824 211.414,168.259 211.324,167.405 211.319 C 166.523 211.313,166.056 211.390,166.324 211.496 M249.034 213.281 C 248.950 213.602,249.026 213.802,249.232 213.802 C 249.416 213.802,249.491 213.877,249.399 213.969 C 249.056 214.312,248.412 213.496,248.727 213.116 C 249.128 212.633,249.194 212.668,249.034 213.281 M160.133 213.498 C 160.273 213.760,160.593 214.141,160.843 214.344 C 161.124 214.573,161.061 214.391,160.678 213.867 C 159.994 212.933,159.737 212.759,160.133 213.498 M106.159 215.765 C 106.255 216.014,110.114 216.015,110.363 215.766 C 110.418 215.710,109.472 215.626,108.259 215.580 C 106.811 215.524,106.090 215.587,106.159 215.765 M79.725 215.749 C 79.933 215.958,83.032 216.013,83.233 215.812 C 83.336 215.709,82.561 215.625,81.510 215.625 C 80.460 215.625,79.657 215.681,79.725 215.749 M94.448 215.885 C 94.666 216.104,98.132 216.030,97.998 215.809 C 97.929 215.695,97.072 215.637,96.095 215.679 C 95.118 215.721,94.377 215.814,94.448 215.885 M115.560 215.816 C 116.169 215.871,117.165 215.871,117.773 215.816 C 118.382 215.761,117.884 215.716,116.667 215.716 C 115.449 215.716,114.951 215.761,115.560 215.816 M129.102 215.817 C 129.854 215.870,131.084 215.870,131.836 215.817 C 132.588 215.764,131.973 215.721,130.469 215.721 C 128.965 215.721,128.350 215.764,129.102 215.817 M137.074 215.807 C 137.282 216.014,141.142 215.976,141.354 215.764 C 141.430 215.688,140.458 215.625,139.193 215.625 C 137.928 215.625,136.974 215.707,137.074 215.807 M148.533 215.830 C 148.687 216.078,153.827 216.052,154.077 215.802 C 154.174 215.705,152.938 215.625,151.330 215.625 C 149.722 215.625,148.464 215.717,148.533 215.830 M164.648 216.065 C 164.899 216.130,165.309 216.130,165.560 216.065 C 165.811 215.999,165.605 215.946,165.104 215.946 C 164.603 215.946,164.398 215.999,164.648 216.065 M208.008 216.069 C 208.330 216.131,208.857 216.131,209.180 216.069 C 209.502 216.007,209.238 215.956,208.594 215.956 C 207.949 215.956,207.686 216.007,208.008 216.069 M233.398 216.077 C 234.079 216.130,235.192 216.130,235.872 216.077 C 236.553 216.023,235.996 215.979,234.635 215.979 C 233.275 215.979,232.718 216.023,233.398 216.077 M245.260 216.079 C 246.448 216.128,248.323 216.127,249.426 216.079 C 250.530 216.030,249.557 215.991,247.266 215.991 C 244.974 215.991,244.071 216.031,245.260 216.079 M166.735 216.333 C 167.131 216.393,167.717 216.391,168.037 216.329 C 168.358 216.267,168.034 216.218,167.318 216.220 C 166.602 216.222,166.340 216.273,166.735 216.333 " stroke="none" fill="#33acfb" fill-rule="evenodd"></path></g></svg>